<svg
  width="300"
  height="320"
  viewBox="0 0 300 320"
  fill="none"
  xmlns="http://www.w3.org/2000/svg"
>
<path
    d="M150 313.306C226.583 313.306 288.666 275.073 288.666 227.91C288.666 180.748 226.583 142.515 150 142.515C73.4169 142.515 11.334 180.748 11.334 227.91C11.334 275.073 73.4169 313.306 150 313.306Z"
    fill="#F5F5F5"
  />
<path
    d="M245.76 261.069C244.956 257.12 240.96 253.984 236.43 252.365C234.42 249.702 230.73 246.688 224.43 243.405C210.474 236.147 202.944 232.397 199.08 230.534C197.813 229.953 196.44 229.682 195.062 229.742C193.684 229.802 192.336 230.191 191.118 230.88L159.096 251.123C158.658 251.349 158.178 251.467 157.692 251.467C157.206 251.467 156.726 251.349 156.288 251.123C156.197 251.069 156.114 251 156.042 250.918C156.109 250.839 156.188 250.772 156.276 250.72C168.024 243.405 188.208 230.803 191.37 228.589C192.948 227.475 192.906 226.029 192.342 225.062C190.776 222.355 183.15 220.314 179.826 222.368L139.026 247.494C137.646 248.346 136.89 249.6 136.962 250.931C137.04 252.358 138.03 253.613 139.686 254.381C145.41 257.03 155.34 261.811 170.136 269.504C173.346 271.083 176.367 273.066 179.136 275.411C178.86 275.366 178.584 275.334 178.308 275.302C167.784 274.208 162.108 278.221 161.304 282.413C160.656 285.766 162.966 288.858 167.184 290.291C173.106 292.307 182.694 289.709 184.77 284.192C185.29 282.817 185.343 281.291 184.92 279.878C187.446 281.37 189.438 283.443 189.912 285.773C190.56 288.973 188.214 292.333 183.126 295.469C168.456 304.499 157.326 298.95 140.76 288.749C138.396 287.29 121.776 277.139 92.7 259.398C90.8284 258.253 89.2732 256.602 88.1913 254.611C87.1094 252.619 86.5391 250.359 86.538 248.058V240C86.5178 239.712 86.3961 239.442 86.1975 239.246C85.9989 239.049 85.738 238.94 85.467 238.94C85.196 238.94 84.9351 239.049 84.7365 239.246C84.5379 239.442 84.4162 239.712 84.396 240V248.064C84.3976 250.767 85.068 253.422 86.3396 255.761C87.6112 258.099 89.4389 260.039 91.638 261.382C120.714 279.123 137.328 289.274 139.692 290.726C150.534 297.402 159.444 302.285 168.618 302.285C173.616 302.285 178.686 300.838 184.218 297.446C191.766 292.8 192.618 288.275 192.018 285.286C191.214 281.312 187.452 278.17 183.204 276.506C181.218 273.824 177.516 270.778 171.114 267.45C156.282 259.738 146.322 254.944 140.58 252.282C139.716 251.885 139.164 251.315 139.14 250.797C139.116 250.278 139.482 249.869 140.136 249.466L180.936 224.333C182.598 223.309 186.546 223.878 188.97 225.069C190.248 225.709 190.584 226.234 190.608 226.31C190.632 226.387 190.554 226.451 190.236 226.675C187.116 228.864 166.968 241.44 155.238 248.749C154.845 248.935 154.51 249.24 154.276 249.625C154.041 250.01 153.916 250.459 153.916 250.918C153.916 251.378 154.041 251.827 154.276 252.212C154.51 252.597 154.845 252.901 155.238 253.088C156.005 253.517 156.859 253.741 157.725 253.741C158.591 253.741 159.445 253.517 160.212 253.088L192.234 232.838C193.16 232.342 194.175 232.064 195.21 232.024C196.246 231.984 197.277 232.184 198.234 232.608C202.086 234.47 209.592 238.208 223.53 245.453C226.739 247.034 229.761 249.017 232.53 251.36C232.248 251.315 231.972 251.283 231.696 251.251C221.172 250.157 215.496 254.17 214.698 258.362C214.05 261.715 216.36 264.806 220.578 266.24C226.5 268.256 236.088 265.658 238.158 260.141C238.705 258.693 238.737 257.081 238.248 255.61C241.05 257.088 243.276 259.2 243.756 261.555C244.392 264.698 241.89 268.109 236.514 271.418L231.63 274.426C231.516 274.32 231.394 274.226 231.264 274.144C231.112 274.025 230.933 273.951 230.745 273.931C230.557 273.911 230.367 273.944 230.196 274.029L228.066 275.309C227.877 275.184 227.662 275.112 227.44 275.097C227.218 275.082 226.996 275.127 226.794 275.226L218.79 280.16C218.581 280.312 218.415 280.521 218.31 280.766C218.204 281.01 218.162 281.281 218.19 281.549C218.192 281.727 218.206 281.904 218.232 282.08L217.938 282.285L216.138 283.488L215.79 283.725L213.99 284.954L213.666 285.171L211.83 286.419L211.536 286.618L209.034 287.667C208.996 287.692 208.962 287.722 208.932 287.757L208.254 288.397C208.182 288.476 208.127 288.571 208.092 288.674C208.057 288.778 208.043 288.888 208.05 288.998C208.069 289.363 208.168 289.718 208.339 290.035C208.51 290.352 208.748 290.621 209.034 290.822C209.121 290.884 209.22 290.926 209.323 290.946C209.426 290.965 209.532 290.963 209.634 290.938L210.498 290.656C210.546 290.643 210.593 290.624 210.636 290.598L212.742 288.813L214.98 287.565L215.316 287.379L217.212 286.323L217.578 286.118L219.45 285.075L219.774 284.896C219.903 285.008 220.039 285.111 220.182 285.203C220.385 285.359 220.622 285.455 220.871 285.481C221.12 285.507 221.371 285.462 221.598 285.35L223.998 283.885L229.626 280.416C229.677 280.385 229.724 280.346 229.764 280.301C229.904 280.161 230.016 279.991 230.093 279.803C230.169 279.614 230.208 279.412 230.208 279.206L232.332 277.894C232.478 277.805 232.594 277.668 232.662 277.504C232.745 277.302 232.786 277.084 232.782 276.864C232.781 276.705 232.764 276.546 232.734 276.39C232.734 276.39 232.734 276.39 232.734 276.346L237.606 273.344C245.4 268.518 246.354 264 245.76 261.069Z"
    fill="#E0E0E0"
  />
<path
    d="M168.564 298.944C159.39 298.944 150.48 294.061 139.638 287.386C136.638 285.536 111.852 270.406 91.584 258.042C89.3848 256.698 87.5572 254.759 86.2856 252.42C85.014 250.082 84.3436 247.427 84.342 244.723V236.621C84.3622 236.333 84.4838 236.063 84.6825 235.867C84.8811 235.67 85.142 235.561 85.413 235.561C85.6839 235.561 85.9449 235.67 86.1435 235.867C86.3421 236.063 86.4637 236.333 86.484 236.621V244.723C86.4855 247.024 87.056 249.283 88.1379 251.273C89.2199 253.263 90.7749 254.914 92.646 256.058C112.914 268.429 137.706 283.578 140.706 285.408C157.284 295.616 168.402 301.158 183.072 292.128C188.16 288.992 190.506 285.638 189.858 282.432C189.384 280.109 187.398 278.029 184.866 276.538C185.287 277.953 185.234 279.48 184.716 280.858C182.646 286.368 173.052 288.966 167.13 286.957C162.93 285.523 160.602 282.426 161.25 279.078C162.06 274.88 167.724 270.867 178.254 271.968C178.53 271.968 178.806 272.032 179.088 272.077C176.317 269.734 173.296 267.749 170.088 266.163C155.298 258.483 145.368 253.696 139.638 251.04C137.982 250.278 136.992 249.018 136.914 247.59C136.836 246.163 137.598 245.03 138.978 244.154L179.778 219.027C183.102 216.979 190.728 219.027 192.294 221.722C192.858 222.701 192.894 224.141 191.322 225.248C188.172 227.456 167.982 240.064 156.228 247.386C156.141 247.436 156.062 247.501 155.994 247.578C156.064 247.661 156.147 247.73 156.24 247.782C156.678 248.008 157.158 248.126 157.644 248.126C158.13 248.126 158.61 248.008 159.048 247.782L191.07 227.533C192.289 226.845 193.637 226.457 195.014 226.397C196.392 226.338 197.765 226.607 199.032 227.187C202.89 229.05 210.432 232.794 224.382 240.058C230.706 243.347 234.396 246.368 236.382 249.018C240.888 250.637 244.908 253.773 245.712 257.728C246.312 260.659 245.358 265.171 237.45 270.042L227.892 275.93C227.646 276.081 227.354 276.121 227.08 276.043C226.806 275.964 226.573 275.773 226.431 275.51C226.289 275.248 226.251 274.937 226.325 274.644C226.399 274.352 226.578 274.103 226.824 273.952L236.382 268.064C241.782 264.755 244.26 261.35 243.624 258.208C243.144 255.846 240.918 253.728 238.116 252.262C238.605 253.734 238.573 255.345 238.026 256.794C235.956 262.304 226.368 264.902 220.446 262.893C216.246 261.459 213.918 258.362 214.566 255.014C215.376 250.816 221.04 246.803 231.564 247.904C231.84 247.904 232.116 247.968 232.398 248.006C229.629 245.663 226.607 243.68 223.398 242.099C209.454 234.854 201.948 231.117 198.102 229.261C197.146 228.832 196.115 228.63 195.079 228.669C194.043 228.707 193.027 228.986 192.102 229.485L160.08 249.734C159.313 250.163 158.459 250.387 157.593 250.387C156.727 250.387 155.873 250.163 155.106 249.734C154.722 249.532 154.396 249.223 154.162 248.84C153.928 248.457 153.794 248.015 153.774 247.558C153.793 247.105 153.925 246.665 154.156 246.284C154.387 245.903 154.708 245.594 155.088 245.389C175.356 232.768 187.782 224.909 190.086 223.315C190.404 223.091 190.458 222.95 190.458 222.95C190.458 222.95 190.098 222.31 188.82 221.709C186.42 220.518 182.448 219.955 180.786 220.979L139.986 246.106C139.332 246.509 138.966 246.995 138.99 247.437C139.014 247.878 139.59 248.525 140.43 248.922C146.178 251.59 156.144 256.384 170.964 264.09C177.366 267.418 181.068 270.49 183.054 273.152C187.302 274.81 191.064 277.952 191.868 281.926C192.468 284.902 191.61 289.427 184.068 294.086C178.632 297.498 173.562 298.944 168.564 298.944ZM174.846 274.061C167.97 274.061 163.902 276.621 163.344 279.539C162.924 281.702 164.628 283.712 167.778 284.781C172.656 286.438 181.098 284.339 182.73 280.006C183.288 278.522 182.952 276.864 181.794 275.11C180.579 274.669 179.321 274.375 178.044 274.234C176.916 274.118 175.848 274.061 174.846 274.061ZM228.204 249.997C221.334 249.997 217.266 252.557 216.708 255.475C216.288 257.638 217.986 259.648 221.142 260.717C226.02 262.374 234.462 260.275 236.094 255.942C236.658 254.438 236.304 252.742 235.11 250.976C233.904 250.578 232.664 250.308 231.408 250.17C230.28 250.054 229.212 249.997 228.204 249.997Z"
    fill="#455A64"
  />
<path
    d="M230.112 270.675C230.284 270.592 230.473 270.559 230.661 270.579C230.848 270.6 231.027 270.672 231.18 270.79C231.62 271.096 231.986 271.508 232.249 271.993C232.511 272.478 232.663 273.022 232.692 273.581C232.712 273.783 232.681 273.987 232.602 274.171C232.523 274.356 232.398 274.515 232.242 274.63L226.2 278.349L224.07 274.394L230.112 270.675Z"
    fill="#37474F"
  />
<path
    opacity="0.1"
    d="M232.512 272.602C232.622 272.915 232.683 273.246 232.692 273.581C232.712 273.783 232.681 273.987 232.602 274.171C232.523 274.356 232.398 274.515 232.242 274.63L226.2 278.349L225.444 276.947L232.512 272.602Z"
    fill="black"
  />
<path
    d="M226.65 277.306C226.622 276.746 226.47 276.202 226.207 275.717C225.944 275.232 225.578 274.821 225.138 274.515C224.986 274.398 224.808 274.325 224.622 274.304C224.436 274.282 224.248 274.313 224.076 274.394C223.92 274.509 223.795 274.668 223.716 274.853C223.637 275.037 223.606 275.241 223.626 275.443C223.654 276.002 223.806 276.547 224.069 277.031C224.332 277.516 224.698 277.928 225.138 278.234C225.282 278.371 225.463 278.457 225.655 278.479C225.848 278.5 226.041 278.457 226.209 278.354C226.377 278.251 226.51 278.094 226.589 277.906C226.668 277.718 226.689 277.508 226.65 277.306Z"
    fill="#37474F"
  />
<path
    d="M226.71 271.91C226.937 271.798 227.188 271.753 227.437 271.778C227.686 271.804 227.924 271.901 228.126 272.058C228.71 272.463 229.196 273.011 229.544 273.654C229.892 274.298 230.093 275.021 230.13 275.763C230.157 276.031 230.115 276.301 230.01 276.546C229.904 276.79 229.738 277 229.53 277.152L221.52 282.08L218.7 276.838L226.71 271.91Z"
    fill="#455A64"
  />
<path
    opacity="0.1"
    d="M229.89 274.464C230.038 274.873 230.119 275.306 230.13 275.744C230.157 276.012 230.115 276.282 230.01 276.527C229.904 276.771 229.738 276.981 229.53 277.133L221.52 282.061L220.524 280.211L229.89 274.464Z"
    fill="black"
  />
<path
    d="M222.114 280.698C222.077 279.956 221.877 279.234 221.528 278.591C221.18 277.948 220.694 277.403 220.11 276.998C219.923 276.803 219.681 276.677 219.421 276.642C219.162 276.606 218.898 276.662 218.671 276.802C218.444 276.941 218.266 277.156 218.164 277.413C218.062 277.67 218.041 277.956 218.106 278.227C218.145 278.969 218.346 279.691 218.694 280.335C219.042 280.978 219.527 281.526 220.11 281.933C220.297 282.13 220.54 282.256 220.801 282.292C221.061 282.327 221.326 282.271 221.554 282.13C221.781 281.99 221.959 281.774 222.061 281.515C222.162 281.256 222.181 280.969 222.114 280.698Z"
    fill="#37474F"
  />
<path
    d="M220.11 278.061C219.996 277.972 219.862 277.917 219.722 277.902C219.581 277.888 219.44 277.914 219.312 277.978L211.464 283.302L208.962 284.346L210.564 287.322L212.67 285.536L220.914 280.96C221.031 280.874 221.124 280.756 221.183 280.619C221.242 280.482 221.265 280.33 221.25 280.179C221.23 279.755 221.116 279.342 220.918 278.974C220.72 278.606 220.443 278.293 220.11 278.061Z"
    fill="#1E1E1E"
  />
<path
    opacity="0.7"
    d="M220.11 278.061C219.996 277.972 219.862 277.917 219.722 277.902C219.581 277.888 219.44 277.914 219.312 277.978L211.464 283.302L208.962 284.346L210.564 287.322L212.67 285.536L220.914 280.96C221.031 280.874 221.124 280.756 221.183 280.619C221.242 280.482 221.265 280.33 221.25 280.179C221.23 279.755 221.116 279.342 220.918 278.974C220.72 278.606 220.443 278.293 220.11 278.061Z"
    fill="#D9D9D9"
  />
<path
    d="M209.76 284.435C209.646 284.347 209.512 284.292 209.372 284.277C209.232 284.261 209.091 284.285 208.962 284.346L208.86 284.435L208.2 285.107L209.58 287.667L210.444 287.392C210.492 287.377 210.539 287.356 210.582 287.328C210.699 287.241 210.792 287.122 210.852 286.984C210.911 286.845 210.934 286.692 210.918 286.541C210.894 286.117 210.777 285.706 210.576 285.34C210.375 284.974 210.095 284.664 209.76 284.435Z"
    fill="#1E1E1E"
  />
<path
    opacity="0.5"
    d="M209.76 284.435C209.646 284.347 209.512 284.292 209.372 284.277C209.232 284.261 209.091 284.285 208.962 284.346L208.86 284.435L208.2 285.107L209.58 287.667L210.444 287.392C210.492 287.377 210.539 287.356 210.582 287.328C210.699 287.241 210.792 287.122 210.852 286.984C210.911 286.845 210.934 286.692 210.918 286.541C210.894 286.117 210.777 285.706 210.576 285.34C210.375 284.974 210.095 284.664 209.76 284.435Z"
    fill="#D9D9D9"
  />
<path
    d="M209.958 286.931C209.939 286.566 209.839 286.21 209.667 285.893C209.495 285.576 209.255 285.307 208.968 285.107C208.874 285.019 208.756 284.964 208.631 284.951C208.506 284.938 208.38 284.967 208.271 285.034C208.163 285.101 208.076 285.203 208.025 285.325C207.973 285.448 207.959 285.584 207.984 285.715C208.003 286.08 208.102 286.435 208.273 286.752C208.443 287.069 208.682 287.338 208.968 287.539C209.062 287.63 209.181 287.687 209.307 287.702C209.433 287.716 209.561 287.688 209.671 287.62C209.781 287.552 209.868 287.449 209.92 287.326C209.971 287.202 209.985 287.064 209.958 286.931Z"
    fill="#1E1E1E"
  />
<path
    d="M211.464 283.302C211.56 283.256 211.667 283.237 211.772 283.248C211.877 283.259 211.978 283.3 212.064 283.366C212.311 283.54 212.517 283.772 212.665 284.046C212.813 284.319 212.899 284.626 212.916 284.941C212.929 285.054 212.912 285.17 212.869 285.274C212.826 285.379 212.757 285.469 212.67 285.536L212.982 285.363C213.068 285.292 213.135 285.199 213.178 285.093C213.221 284.987 213.239 284.87 213.228 284.755C213.211 284.438 213.125 284.13 212.976 283.856C212.827 283.581 212.619 283.348 212.37 283.174C212.283 283.111 212.183 283.07 212.079 283.057C211.974 283.043 211.868 283.057 211.77 283.098L211.464 283.302Z"
    fill="#1E1E1E"
  />
<path
    d="M213.6 281.856C213.704 281.806 213.819 281.786 213.933 281.798C214.047 281.81 214.155 281.855 214.248 281.926C214.519 282.115 214.744 282.369 214.906 282.669C215.068 282.968 215.161 283.303 215.178 283.648C215.19 283.77 215.172 283.893 215.126 284.005C215.079 284.118 215.006 284.215 214.914 284.288L215.25 284.096C215.341 284.022 215.414 283.924 215.461 283.813C215.508 283.701 215.528 283.578 215.52 283.456C215.501 283.112 215.408 282.778 215.246 282.48C215.085 282.183 214.86 281.929 214.59 281.741C214.495 281.667 214.384 281.62 214.268 281.605C214.151 281.589 214.033 281.605 213.924 281.651L213.6 281.856Z"
    fill="#1E1E1E"
  />
<path
    d="M215.724 280.41C215.837 280.356 215.961 280.335 216.085 280.348C216.208 280.362 216.325 280.409 216.426 280.486C216.719 280.691 216.963 280.966 217.138 281.289C217.313 281.613 217.415 281.976 217.434 282.349C217.448 282.482 217.428 282.616 217.378 282.739C217.327 282.861 217.247 282.967 217.146 283.046L217.512 282.842C217.613 282.758 217.693 282.649 217.743 282.523C217.794 282.398 217.813 282.261 217.8 282.125C217.781 281.752 217.679 281.389 217.504 281.065C217.329 280.742 217.085 280.467 216.792 280.262C216.689 280.184 216.569 280.134 216.443 280.119C216.317 280.103 216.189 280.122 216.072 280.173L215.724 280.41Z"
    fill="#1E1E1E"
  />
<path
    d="M217.854 278.963C217.976 278.906 218.11 278.883 218.242 278.898C218.375 278.913 218.502 278.964 218.61 279.046C218.926 279.266 219.189 279.562 219.377 279.91C219.566 280.258 219.675 280.648 219.696 281.05C219.711 281.194 219.689 281.34 219.633 281.473C219.577 281.606 219.489 281.72 219.378 281.805L219.78 281.581C219.889 281.492 219.974 281.374 220.027 281.24C220.081 281.105 220.101 280.958 220.086 280.813C220.066 280.412 219.958 280.022 219.77 279.674C219.582 279.326 219.321 279.03 219.006 278.81C218.895 278.723 218.765 278.669 218.628 278.651C218.492 278.633 218.353 278.652 218.226 278.707L217.854 278.963Z"
    fill="#1E1E1E"
  />
<g opacity="0.1">
<path
      d="M211.464 283.302C211.56 283.256 211.667 283.237 211.772 283.248C211.877 283.259 211.978 283.3 212.064 283.366C212.311 283.54 212.517 283.772 212.665 284.046C212.813 284.319 212.899 284.626 212.916 284.941C212.929 285.054 212.912 285.17 212.869 285.274C212.826 285.379 212.757 285.469 212.67 285.536L212.982 285.363C213.068 285.292 213.135 285.199 213.178 285.093C213.221 284.987 213.239 284.87 213.228 284.755C213.211 284.438 213.125 284.13 212.976 283.856C212.827 283.581 212.619 283.348 212.37 283.174C212.283 283.111 212.183 283.07 212.079 283.057C211.974 283.043 211.868 283.057 211.77 283.098L211.464 283.302Z"
      fill="black"
    />
<path
      d="M213.6 281.856C213.704 281.806 213.819 281.786 213.933 281.798C214.047 281.81 214.155 281.855 214.248 281.926C214.519 282.115 214.744 282.369 214.906 282.668C215.068 282.968 215.161 283.303 215.178 283.648C215.19 283.77 215.172 283.893 215.126 284.005C215.079 284.118 215.006 284.215 214.914 284.288L215.25 284.096C215.341 284.022 215.414 283.924 215.461 283.813C215.508 283.701 215.528 283.578 215.52 283.456C215.501 283.112 215.408 282.778 215.246 282.48C215.085 282.183 214.86 281.929 214.59 281.741C214.495 281.667 214.384 281.62 214.268 281.605C214.151 281.589 214.033 281.605 213.924 281.651L213.6 281.856Z"
      fill="black"
    />
<path
      d="M215.724 280.41C215.837 280.356 215.961 280.335 216.085 280.348C216.208 280.362 216.325 280.409 216.426 280.486C216.719 280.691 216.963 280.966 217.138 281.289C217.313 281.613 217.415 281.976 217.434 282.349C217.448 282.482 217.428 282.616 217.378 282.739C217.327 282.861 217.247 282.967 217.146 283.046L217.512 282.842C217.613 282.758 217.693 282.649 217.743 282.523C217.794 282.398 217.813 282.261 217.8 282.125C217.781 281.752 217.679 281.389 217.504 281.065C217.329 280.742 217.085 280.467 216.792 280.262C216.689 280.184 216.569 280.134 216.443 280.119C216.317 280.103 216.189 280.122 216.072 280.173L215.724 280.41Z"
      fill="black"
    />
<path
      d="M217.854 278.963C217.976 278.906 218.11 278.883 218.242 278.898C218.375 278.913 218.502 278.964 218.61 279.046C218.926 279.266 219.189 279.562 219.377 279.91C219.566 280.258 219.675 280.648 219.696 281.05C219.711 281.194 219.689 281.34 219.633 281.473C219.577 281.606 219.489 281.72 219.378 281.805L219.78 281.581C219.889 281.492 219.974 281.374 220.027 281.24C220.081 281.105 220.101 280.958 220.086 280.813C220.066 280.412 219.958 280.022 219.77 279.674C219.582 279.326 219.321 279.03 219.006 278.81C218.895 278.723 218.765 278.669 218.628 278.651C218.492 278.633 218.353 278.652 218.226 278.707L217.854 278.963Z"
      fill="black"
    />
</g>
<path
    d="M141.666 121.472C141.444 121.568 141.222 121.658 141.012 121.773C140.802 121.888 140.67 121.965 140.508 122.061C140.346 122.157 140.1 122.31 139.908 122.445C139.716 122.579 139.59 122.682 139.434 122.81C139.278 122.938 139.068 123.117 138.888 123.283C138.708 123.45 138.6 123.558 138.462 123.706C138.324 123.853 138.126 124.07 137.964 124.262C137.802 124.454 137.706 124.589 137.58 124.755C137.454 124.922 137.28 125.178 137.136 125.395C136.992 125.613 136.914 125.741 136.812 125.92L136.74 126.048C136.626 126.253 136.518 126.464 136.416 126.688C136.38 126.752 136.35 126.816 136.32 126.88C136.236 127.053 136.152 127.232 136.08 127.411C136.008 127.59 135.948 127.731 135.888 127.891C135.828 128.051 135.804 128.09 135.768 128.198L135.66 128.486C135.588 128.691 135.522 128.902 135.462 129.126C135.402 129.35 135.348 129.498 135.3 129.683C135.21 130.022 135.12 130.368 135.048 130.726C134.992 130.965 134.944 131.209 134.904 131.456C134.904 131.59 134.856 131.718 134.832 131.859C134.808 132 134.784 132.147 134.766 132.301C134.712 132.659 134.676 133.037 134.64 133.414C134.64 133.594 134.598 133.766 134.586 133.946C134.586 134.016 134.586 134.08 134.586 134.15C134.544 134.79 134.52 135.392 134.52 136.038C134.537 138.644 134.829 141.24 135.39 143.776C137.622 154.24 144 165.056 151.8 171.245C152.714 171.982 153.667 172.662 154.656 173.28L155.064 173.517C155.292 173.651 155.52 173.792 155.748 173.914L156.27 174.189L156.834 174.477L157.404 174.739L157.902 174.957C158.1 175.04 158.292 175.117 158.502 175.187L158.976 175.36L159.546 175.552L160.05 175.693L160.566 175.834L161.25 175.974L161.568 176.038L161.838 176.07L165.93 173.562C163.394 173.128 160.96 172.178 158.76 170.765C147.6 163.904 138.6 147.2 138.6 133.504C138.6 127.942 140.088 123.731 142.596 121.133L142.2 121.254C142.014 121.318 141.84 121.395 141.666 121.472Z"
    fill="#263238"
  />
<path
    d="M145.278 116.838C144.655 117.07 144.052 117.362 143.478 117.709L139.404 120.218C141.198 119.135 143.218 118.552 145.278 118.522V116.838Z"
    fill="#37474F"
  />
<path
    d="M161.574 176.038L161.256 175.974L160.572 175.834L160.056 175.693L159.72 175.603L159.552 175.552L159 175.36L158.526 175.187L157.926 174.957L157.428 174.739L156.858 174.477L156.294 174.189L155.772 173.914C155.544 173.792 155.31 173.651 155.076 173.51C154.95 173.434 154.818 173.37 154.686 173.286C153.733 172.688 152.812 172.034 151.926 171.328C149.386 169.309 147.083 166.972 145.068 164.365C143.327 162.128 141.766 159.738 140.4 157.222C138.144 153.097 136.464 148.643 135.414 144L135.378 143.782C134.818 141.25 134.526 138.659 134.508 136.058C134.508 135.456 134.508 134.874 134.568 134.298C134.568 134.214 134.568 134.131 134.568 134.048C134.565 133.99 134.565 133.933 134.568 133.875C134.604 133.395 134.652 132.922 134.718 132.461L134.754 132.166C134.754 132.013 134.808 131.872 134.832 131.718C134.856 131.565 134.91 131.296 134.952 131.078C134.994 130.861 135.036 130.63 135.084 130.438C135.132 130.246 135.204 129.978 135.27 129.747C135.27 129.658 135.312 129.568 135.336 129.485C135.36 129.402 135.336 129.414 135.366 129.382C135.42 129.197 135.474 129.005 135.534 128.819C135.594 128.634 135.69 128.384 135.774 128.179C135.858 127.974 135.978 127.622 136.098 127.354C136.218 127.085 136.272 126.982 136.362 126.797L136.47 126.579C136.566 126.387 136.668 126.202 136.77 126.016C136.872 125.83 136.968 125.69 137.07 125.53L137.208 125.318C137.28 125.197 137.358 125.082 137.436 124.973L137.622 124.723C137.676 124.653 137.724 124.576 137.784 124.506L138.114 124.102L138.228 123.981C138.366 123.827 138.504 123.674 138.654 123.526C138.72 123.462 138.798 123.405 138.864 123.347C139.044 123.181 139.224 123.021 139.41 122.874C139.596 122.726 139.722 122.624 139.884 122.509C140.046 122.394 140.28 122.246 140.484 122.125C140.688 122.003 140.814 121.926 140.988 121.837C141.162 121.747 141.42 121.632 141.642 121.536C141.864 121.44 141.99 121.382 142.17 121.318C142.35 121.254 142.44 121.229 142.578 121.184L142.884 121.101C143.064 121.056 143.244 120.998 143.43 120.96C143.616 120.922 143.958 120.87 144.222 120.838C144.486 120.806 144.576 120.781 144.762 120.768C144.948 120.755 145.086 120.768 145.254 120.768V118.618C143.194 118.648 141.174 119.231 139.38 120.314C139.128 120.474 138.882 120.64 138.636 120.819L138.51 120.909C137.809 121.442 137.163 122.053 136.584 122.733L136.386 122.963C136.212 123.174 136.044 123.392 135.876 123.603L135.732 123.827C135.454 124.227 135.196 124.641 134.958 125.069C134.874 125.229 134.784 125.389 134.7 125.555C134.616 125.722 134.49 125.978 134.388 126.195C134.286 126.413 134.196 126.637 134.1 126.835C134.004 127.034 133.92 127.283 133.836 127.514C133.704 127.872 133.584 128.243 133.47 128.621C133.422 128.8 133.368 128.986 133.32 129.171C133.236 129.491 133.158 129.811 133.08 130.15C133.044 130.317 133.008 130.477 132.978 130.643C132.878 131.13 132.794 131.629 132.726 132.141C132.726 132.269 132.696 132.397 132.684 132.518C132.63 132.954 132.588 133.389 132.558 133.798C132.558 133.958 132.558 134.118 132.528 134.278C132.492 134.848 132.474 135.424 132.474 136.013C132.523 139.809 133.091 143.578 134.16 147.2C134.709 149.118 135.362 151.001 136.116 152.838C136.516 153.769 136.916 154.688 137.316 155.597C138.614 158.329 140.121 160.943 141.822 163.411C145.2 168.307 149.274 172.461 153.654 175.155C155.393 176.26 157.258 177.12 159.204 177.715L161.82 176.115L161.574 176.038Z"
    fill="#455A64"
  />
<path
    d="M182.106 154.31C182.106 141.792 173.868 126.573 163.704 120.314C158.604 117.178 153.996 116.89 150.666 118.957C149.652 119.597 142.866 123.763 141.828 124.384C138.48 126.426 136.428 130.829 136.428 137.107C136.428 149.626 144.666 164.845 154.83 171.104C159.918 174.24 164.526 174.528 167.856 172.467C168.876 171.827 175.716 167.642 176.742 167.008C180.048 164.96 182.106 160.563 182.106 154.31Z"
    fill="#0AA605"
  />
<path
    opacity="0.3"
    d="M182.106 154.31C182.106 141.792 173.868 126.573 163.704 120.314C158.604 117.178 153.996 116.89 150.666 118.957C149.652 119.597 142.866 123.763 141.828 124.384C138.48 126.426 136.428 130.829 136.428 137.107C136.428 149.626 144.666 164.845 154.83 171.104C159.918 174.24 164.526 174.528 167.856 172.467C168.876 171.827 175.716 167.642 176.742 167.008C180.048 164.96 182.106 160.563 182.106 154.31Z"
    fill="black"
  />
<path
    d="M154.8 125.773C164.958 132.032 173.196 147.258 173.196 159.77C173.196 172.282 165 177.363 154.8 171.104C144.6 164.845 136.398 149.626 136.398 137.107C136.398 124.589 144.648 119.514 154.8 125.773Z"
    fill="#0AA605"
  />
<path
    d="M162.6 176.166H162.69C163.002 176.166 163.29 176.205 163.614 176.211H163.764C164.205 176.213 164.646 176.185 165.084 176.128H165.132C165.499 176.076 165.864 176.004 166.224 175.91C166.374 175.878 166.53 175.84 166.68 175.795C166.962 175.712 167.244 175.616 167.52 175.507C167.796 175.398 167.934 175.328 168.12 175.226C168.222 175.181 168.312 175.13 168.408 175.078C169.291 174.602 170.1 173.985 170.808 173.248C169.211 173.718 167.539 173.825 165.9 173.562L161.808 176.07C162.096 176.109 162.348 176.147 162.6 176.166Z"
    fill="#263238"
  />
<path
    d="M159.774 122.061C159.878 123.739 160.557 125.317 161.682 126.496C170.448 135.091 176.856 149.043 176.856 160.864C176.856 169.466 173.472 175.584 167.94 177.638C168.647 177.393 169.325 177.062 169.962 176.653L174.036 174.144C178.368 171.482 180.948 165.824 180.948 158.342C180.948 146.528 174.534 132.57 165.768 123.981C164.647 122.8 163.968 121.223 163.86 119.546V102.131L159.774 104.653L157.758 103.411L159.774 104.653V122.061Z"
    fill="#37474F"
  />
<path
    d="M161.682 126.496C160.557 125.317 159.878 123.739 159.774 122.061V104.653L157.758 103.411V123.104C157.763 123.366 157.791 123.628 157.842 123.885L157.878 124.077C157.935 124.35 158.01 124.62 158.1 124.883C158.246 125.291 158.425 125.685 158.634 126.061L158.802 126.323C158.958 126.588 159.135 126.839 159.33 127.072C159.449 127.218 159.577 127.355 159.714 127.482C160.2 127.936 160.674 128.41 161.142 128.89L161.514 129.28C161.922 129.715 162.324 130.157 162.714 130.618L162.894 130.816C163.338 131.334 163.77 131.866 164.202 132.416L164.526 132.838C164.88 133.299 165.228 133.773 165.564 134.246L165.81 134.592C166.212 135.162 166.602 135.75 166.98 136.339L167.244 136.768C167.556 137.261 167.844 137.766 168.15 138.272L168.402 138.707C168.756 139.347 169.092 139.949 169.422 140.582L169.608 140.96C169.878 141.491 170.142 142.029 170.394 142.573L170.628 143.078C170.924 143.723 171.206 144.375 171.474 145.037C171.504 145.126 171.54 145.21 171.57 145.299C171.804 145.882 172.026 146.47 172.242 147.066C172.302 147.245 172.368 147.418 172.428 147.597C172.662 148.237 172.884 148.947 173.082 149.619C173.28 150.291 173.466 150.976 173.634 151.654L173.742 152.09C173.898 152.73 174.042 153.408 174.168 154.067L174.222 154.4C174.334 155.006 174.43 155.607 174.51 156.205C174.51 156.314 174.54 156.429 174.558 156.538C174.636 157.178 174.702 157.818 174.744 158.458C174.744 158.598 174.744 158.739 174.774 158.88C174.81 159.52 174.84 160.198 174.84 160.845C174.84 164.685 174.126 167.885 172.848 170.387C172.574 170.923 172.263 171.436 171.918 171.923C171.75 172.16 171.576 172.39 171.396 172.608C171.216 172.826 171.03 173.03 170.838 173.248C170.13 173.985 169.321 174.602 168.438 175.078C168.348 175.13 168.252 175.181 168.15 175.226C167.952 175.328 167.748 175.424 167.55 175.507C167.352 175.59 167.034 175.699 166.776 175.776H166.71C166.56 175.821 166.41 175.859 166.254 175.891L165.984 175.968C165.714 176.026 165.438 176.07 165.162 176.109H165.114C164.676 176.166 164.235 176.194 163.794 176.192H163.452C163.212 176.192 162.966 176.192 162.72 176.147H162.6C162.348 176.147 162.096 176.096 161.838 176.058L159.222 177.658C160.673 178.104 162.175 178.337 163.686 178.349C163.89 178.349 164.088 178.349 164.286 178.317C164.484 178.285 164.832 178.317 165.084 178.272L165.546 178.202C165.84 178.157 166.146 178.112 166.404 178.054C166.542 178.054 166.68 177.99 166.818 177.952L166.986 177.901C167.244 177.83 167.502 177.766 167.754 177.677L167.934 177.619C173.466 175.584 176.85 169.446 176.85 160.845C176.856 149.043 170.448 135.091 161.682 126.496Z"
    fill="#455A64"
  />
<path
    d="M150.6 121.114L150.684 121.075C150.733 121.056 150.779 121.03 150.822 120.998L154.914 118.477C155.177 118.298 155.39 118.046 155.531 117.749C155.671 117.452 155.734 117.119 155.712 116.787V97.0944L151.626 99.616V119.309C151.655 119.687 151.572 120.065 151.387 120.389C151.203 120.713 150.927 120.967 150.6 121.114Z"
    fill="#37474F"
  />
<path
    d="M145.668 118.515C146.65 118.519 147.63 118.618 148.596 118.81C148.715 118.844 148.84 118.848 148.96 118.821C149.081 118.794 149.194 118.737 149.29 118.655C149.386 118.573 149.462 118.467 149.513 118.347C149.563 118.227 149.586 118.096 149.58 117.965V116.006C148.112 116.025 146.658 116.306 145.278 116.838V118.541C145.41 118.534 145.536 118.515 145.668 118.515Z"
    fill="#37474F"
  />
<path
    d="M146.184 120.678C146.67 120.698 147.155 120.745 147.636 120.819C148.104 120.896 148.584 120.998 149.064 121.126H149.154H149.202C149.356 121.166 149.512 121.194 149.67 121.21H149.712C149.842 121.223 149.972 121.223 150.102 121.21H150.174C150.296 121.188 150.417 121.156 150.534 121.114C150.862 120.966 151.137 120.713 151.321 120.389C151.506 120.065 151.589 119.687 151.56 119.309V99.616L149.544 98.336V117.933C149.55 118.064 149.527 118.195 149.477 118.315C149.426 118.435 149.35 118.541 149.254 118.623C149.158 118.705 149.045 118.762 148.924 118.789C148.804 118.816 148.679 118.812 148.56 118.778C147.594 118.586 146.614 118.487 145.632 118.483C145.5 118.483 145.374 118.483 145.242 118.483V120.634C145.386 120.634 145.524 120.634 145.668 120.634C145.812 120.634 146.022 120.672 146.184 120.678Z"
    fill="#455A64"
  />
<path
    d="M180.222 166.214C180.222 147.718 168.048 125.254 153.03 115.981C145.53 111.36 138.744 110.925 133.83 113.946L125.616 119.002C120.708 122.035 117.666 128.518 117.666 137.76C117.666 156.256 129.84 178.72 144.852 187.994C152.352 192.608 159.138 193.05 164.052 190.029L172.26 184.96C177.18 181.946 180.222 175.456 180.222 166.214Z"
    fill="#0AA605"
  />
<path
    opacity="0.1"
    d="M164.08 190.023C174.698 183.484 174.697 162.279 164.078 142.661C153.46 123.042 136.244 112.439 125.626 118.978C115.007 125.517 115.008 146.722 125.627 166.341C136.246 185.959 153.461 196.562 164.08 190.023Z"
    fill="black"
  />
<path
    d="M172.056 171.251C172.056 152.755 159.882 130.291 144.864 121.018C137.352 116.39 130.554 115.962 125.634 119.002L121.566 121.504C116.634 124.531 113.586 131.027 113.586 140.282C113.586 158.778 125.76 181.242 140.772 190.515C148.284 195.136 155.082 195.571 160.002 192.538L164.094 190.016C169.008 186.989 172.056 180.48 172.056 171.251Z"
    fill="#F0F0F0"
  />
<path
    d="M140.772 123.52C155.772 132.768 167.964 155.258 167.964 173.754C167.964 192.25 155.79 199.744 140.772 190.496C125.754 181.248 113.586 158.758 113.586 140.262C113.586 121.766 125.76 114.291 140.772 123.52Z"
    fill="#E0E0E0"
  />
<path
    d="M169.962 173.773C169.962 154.624 157.314 131.258 141.762 121.683C137.184 118.861 132.762 117.434 128.61 117.434C125.771 117.392 122.974 118.163 120.51 119.667C119.154 120.512 113.67 123.859 112.278 124.723C106.698 128.211 103.374 135.546 103.374 145.325C103.374 164.474 116.022 187.84 131.574 197.414C136.152 200.237 140.574 201.664 144.726 201.664C147.584 201.706 150.399 200.923 152.874 199.398C154.206 198.56 159.624 195.258 161.004 194.406C166.62 190.931 169.962 183.584 169.962 173.773Z"
    fill="#455A64"
  />
<path
    d="M144.726 201.664C140.58 201.664 136.152 200.237 131.574 197.414C116.028 187.814 103.374 164.474 103.374 145.325C103.374 131.437 110.07 122.47 120.432 122.47C124.584 122.47 129.006 123.898 133.584 126.72C149.13 136.32 161.784 159.661 161.784 178.81C161.784 192.691 155.088 201.664 144.726 201.664Z"
    fill="#37474F"
  />
<path
    d="M138.648 181.843C136.311 181.768 134.034 181.035 132.048 179.718C124.284 174.938 117.966 163.27 117.966 153.702C117.966 146.771 121.314 142.291 126.486 142.291C128.812 142.372 131.078 143.102 133.056 144.41C140.82 149.197 147.138 160.864 147.138 170.432C147.168 177.363 143.82 181.843 138.648 181.843Z"
    fill="#263238"
  />
<path
    d="M103.968 214.4C103.968 195.251 91.32 171.885 75.768 162.304C71.19 159.488 66.768 158.061 62.622 158.061C59.7831 158.017 56.9854 158.789 54.522 160.294C53.166 161.139 47.676 164.486 46.29 165.35C40.704 168.838 37.38 176.173 37.38 185.946C37.38 205.094 50.028 228.467 65.58 238.042C70.158 240.864 74.58 242.291 78.726 242.291C81.5882 242.328 84.4061 241.536 86.88 240C88.218 239.162 93.636 235.859 95.01 235.008C100.626 231.558 103.968 224.211 103.968 214.4Z"
    fill="#455A64"
  />
<path
    d="M78.732 242.291C74.586 242.291 70.164 240.864 65.586 238.042C50.034 228.442 37.386 205.094 37.386 185.946C37.386 172.064 44.082 163.098 54.45 163.098C58.596 163.098 63.018 164.525 67.596 167.341C83.142 176.941 95.796 200.288 95.796 219.437C95.79 233.318 89.094 242.291 78.732 242.291Z"
    fill="#37474F"
  />
<path
    d="M93.78 219.437C93.78 200.941 81.606 178.477 66.588 169.203C59.076 164.576 52.278 164.141 47.388 167.181L43.32 169.69C38.394 172.717 35.34 179.206 35.34 188.461C35.34 206.957 47.514 229.421 62.532 238.694C70.044 243.322 76.836 243.75 81.732 240.723L85.824 238.202C90.738 235.168 93.78 228.678 93.78 219.437Z"
    fill="#F0F0F0"
  />
<path
    d="M62.502 171.718C77.502 180.966 89.694 203.456 89.694 221.952C89.694 240.448 77.52 247.942 62.502 238.72C47.484 229.498 35.31 206.982 35.31 188.486C35.31 169.99 47.484 162.47 62.502 171.718Z"
    fill="#E0E0E0"
  />
<path
    d="M89.694 221.952C89.694 203.456 77.52 180.992 62.502 171.718C55.002 167.098 48.216 166.662 43.302 169.683L35.088 174.72C30.174 177.754 27.132 184.243 27.132 193.478C27.132 211.974 39.306 234.438 54.324 243.712C61.818 248.333 68.604 248.768 73.524 245.747L81.726 240.698C86.646 237.69 89.694 231.2 89.694 221.952Z"
    fill="#0AA605"
  />
<path
    opacity="0.1"
    d="M54.324 176.755C69.324 186.003 81.51 208.493 81.51 226.989C81.51 245.485 69.342 252.979 54.324 243.731C39.306 234.483 27.132 211.994 27.132 193.498C27.132 175.002 39.306 167.507 54.324 176.755Z"
    fill="black"
  />
<path
    d="M34.8 187.283C34.578 187.373 34.356 187.469 34.14 187.578C33.924 187.686 33.804 187.77 33.642 187.872C33.48 187.974 33.234 188.122 33.042 188.256C32.85 188.39 32.724 188.493 32.568 188.621C32.412 188.749 32.202 188.922 32.022 189.088L31.59 189.517C31.422 189.696 31.26 189.882 31.098 190.074C30.936 190.266 30.834 190.4 30.708 190.566C30.582 190.733 30.414 190.989 30.27 191.206C30.126 191.424 30.048 191.558 29.946 191.738L29.874 191.866C29.76 192.07 29.652 192.275 29.544 192.506L29.454 192.698C29.37 192.87 29.286 193.043 29.208 193.222C29.13 193.402 29.082 193.542 29.022 193.702C28.962 193.862 28.938 193.907 28.902 194.01L28.794 194.304C28.722 194.509 28.656 194.72 28.59 194.944C28.524 195.168 28.482 195.315 28.434 195.501C28.338 195.838 28.254 196.183 28.182 196.538C28.128 196.781 28.08 197.024 28.038 197.274L27.966 197.67C27.966 197.818 27.918 197.965 27.9 198.112C27.846 198.477 27.81 198.848 27.774 199.226C27.774 199.405 27.732 199.578 27.72 199.763C27.72 199.827 27.72 199.898 27.72 199.968C27.678 200.576 27.654 201.203 27.654 201.856C27.6714 204.462 27.9632 207.057 28.524 209.594C30.768 220.077 37.152 230.893 44.964 237.082C45.8806 237.815 46.834 238.494 47.82 239.117L48.228 239.354L48.912 239.75L49.434 240.026L49.998 240.307C50.19 240.403 50.376 240.486 50.598 240.57C50.82 240.653 50.928 240.723 51.096 240.787L51.696 241.024L52.164 241.197L52.764 241.382L53.268 241.53L53.784 241.664C54.012 241.722 54.24 241.766 54.468 241.811L54.78 241.875L55.05 241.907L59.052 239.36C56.5051 238.933 54.06 237.983 51.852 236.563C40.71 229.702 31.68 213.03 31.68 199.302C31.68 193.747 33.168 189.536 35.676 186.938C35.544 186.976 35.406 187.008 35.28 187.053L34.8 187.283Z"
    fill="#263238"
  />
<path
    d="M38.4 182.65C37.778 182.882 37.1757 183.171 36.6 183.514L32.526 186.022C34.3217 184.949 36.3417 184.375 38.4 184.352V182.65Z"
    fill="#37474F"
  />
<path
    d="M54.684 241.85L54.372 241.786C54.144 241.741 53.922 241.696 53.688 241.638C53.454 241.581 53.346 241.549 53.172 241.504L52.83 241.414L52.668 241.357L52.068 241.171L51.588 240.998L50.988 240.762C50.82 240.698 50.658 240.621 50.49 240.544L49.89 240.288L49.326 240L48.804 239.725L48.108 239.322L47.718 239.098C46.7664 238.497 45.8451 237.843 44.958 237.139C42.4179 235.121 40.1152 232.783 38.1 230.176C36.367 227.938 34.8135 225.549 33.456 223.034C31.1909 218.897 29.505 214.43 28.452 209.773C28.452 209.702 28.452 209.632 28.41 209.555C27.8726 207.022 27.6009 204.434 27.6 201.837C27.6 201.235 27.6 200.653 27.66 200.077C27.66 199.994 27.66 199.904 27.66 199.821C27.6572 199.763 27.6572 199.706 27.66 199.648C27.696 199.168 27.744 198.701 27.81 198.24L27.846 197.946C27.846 197.792 27.9 197.645 27.924 197.498C27.948 197.35 28.002 197.075 28.038 196.858C28.074 196.64 28.122 196.41 28.176 196.218C28.23 196.026 28.296 195.75 28.356 195.52L28.428 195.264C28.4307 195.23 28.4307 195.196 28.428 195.162C28.488 194.97 28.542 194.784 28.602 194.598C28.662 194.413 28.758 194.157 28.836 193.958C28.914 193.76 29.046 193.402 29.166 193.139C29.286 192.877 29.34 192.768 29.43 192.582L29.538 192.358C29.634 192.173 29.736 191.981 29.838 191.802C29.94 191.622 30.036 191.475 30.138 191.315L30.27 191.098L30.6 190.72L30.78 190.477C30.84 190.406 30.888 190.33 30.948 190.259C31.008 190.189 31.164 189.99 31.278 189.856L31.386 189.734L31.812 189.28C31.878 189.216 31.956 189.165 32.022 189.101C32.202 188.934 32.382 188.781 32.568 188.634C32.754 188.486 32.88 188.384 33.042 188.269C33.204 188.154 33.438 188.006 33.642 187.885C33.846 187.763 33.972 187.68 34.14 187.59C34.308 187.501 34.578 187.386 34.8 187.296L35.328 187.072L35.736 186.944L36 186.88C36.18 186.829 36.36 186.778 36.546 186.739C36.732 186.701 37.068 186.65 37.338 186.618C37.518 186.618 37.692 186.56 37.878 186.541C38.064 186.522 38.202 186.541 38.37 186.541V184.39C36.3096 184.421 34.2895 185.004 32.496 186.086C32.238 186.24 31.992 186.413 31.752 186.586L31.626 186.682C30.9227 187.214 30.275 187.826 29.694 188.506L29.502 188.736C29.328 188.947 29.16 189.165 28.992 189.376C28.944 189.446 28.896 189.523 28.842 189.594C28.572 189.99 28.314 190.406 28.074 190.874L27.816 191.354C27.708 191.565 27.606 191.782 27.504 191.994C27.402 192.205 27.312 192.435 27.216 192.666C27.12 192.896 27.036 193.107 26.952 193.344C26.82 193.702 26.7 194.067 26.586 194.445C26.532 194.624 26.484 194.81 26.436 194.995C26.352 195.322 26.268 195.635 26.196 195.981L26.088 196.474C25.992 196.96 25.908 197.459 25.842 197.971C25.842 198.093 25.842 198.227 25.8 198.349C25.746 198.778 25.704 199.213 25.674 199.629L25.638 200.109C25.608 200.678 25.584 201.254 25.584 201.843C25.6265 205.633 26.1884 209.395 27.252 213.011C27.8009 214.927 28.454 216.808 29.208 218.643C29.588 219.569 29.988 220.489 30.408 221.402C31.7035 224.136 33.2107 226.749 34.914 229.216C38.292 234.112 42.366 238.266 46.746 240.966C48.4876 242.065 50.3524 242.926 52.296 243.526L54.912 241.92L54.684 241.85Z"
    fill="#455A64"
  />
<path
    d="M72.726 221.574C72.726 209.062 64.488 193.837 54.324 187.578C49.224 184.442 44.616 184.154 41.286 186.227L32.448 191.648C29.1 193.69 27.048 198.099 27.048 204.371C27.048 216.89 35.286 232.109 45.45 238.368C50.538 241.504 55.146 241.798 58.476 239.731L67.362 234.278C70.668 232.224 72.726 227.84 72.726 221.574Z"
    fill="#0AA605"
  />
<path
    opacity="0.3"
    d="M72.726 221.574C72.726 209.062 64.488 193.837 54.324 187.578C49.224 184.442 44.616 184.154 41.286 186.227L32.448 191.648C29.1 193.69 27.048 198.099 27.048 204.371C27.048 216.89 35.286 232.109 45.45 238.368C50.538 241.504 55.146 241.798 58.476 239.731L67.362 234.278C70.668 232.224 72.726 227.84 72.726 221.574Z"
    fill="black"
  />
<path
    d="M58.4403 239.741C65.6261 235.315 65.6262 220.966 58.4404 207.69C51.2547 194.414 39.6041 187.239 32.4183 191.664C25.2324 196.09 25.2323 210.439 32.4181 223.715C39.6039 236.991 51.2544 244.166 58.4403 239.741Z"
    fill="#0AA605"
  />
<path
    d="M54.9884 235.783C60.5899 232.349 60.6098 221.175 55.0329 210.824C49.4559 200.473 40.3939 194.866 34.7924 198.3C29.1909 201.733 29.171 212.908 34.748 223.259C40.3249 233.61 49.3869 239.217 54.9884 235.783Z"
    fill="#263238"
  />
<path
    d="M52.524 207.571L44.076 216.57L33.99 197.926C36.564 196.326 40.14 196.557 44.076 198.982C47.4275 201.179 50.3063 204.106 52.524 207.571Z"
    fill="#455A64"
  />
<path
    d="M58.362 225.376C58.362 230.227 56.76 233.645 54.162 235.219L44.076 216.57L52.524 207.571C56.058 212.954 58.362 219.52 58.362 225.376Z"
    fill="#37474F"
  />
<path
    d="M54.174 235.219C51.6 236.8 48 236.595 44.076 234.17C40.7187 231.98 37.8418 229.047 35.64 225.568L44.076 216.57L54.174 235.219Z"
    fill="#455A64"
  />
<path
    d="M44.076 216.57L35.64 225.568C32.094 220.192 29.802 213.606 29.802 207.789C29.802 202.925 31.404 199.52 34.002 197.926L44.076 216.57Z"
    fill="#37474F"
  />
<path
    d="M55.716 241.978H55.8C56.112 241.978 56.4 242.016 56.724 242.016H56.874C57.324 242.016 57.762 241.984 58.194 241.933H58.242C58.6096 241.885 58.9742 241.815 59.334 241.722C59.484 241.683 59.64 241.651 59.79 241.606C60.072 241.523 60.354 241.421 60.624 241.312C60.894 241.203 61.044 241.133 61.224 241.037L61.512 240.883C62.3957 240.411 63.2053 239.796 63.912 239.059C62.3142 239.527 60.6421 239.632 59.004 239.366L54.906 241.882C55.2 241.92 55.464 241.958 55.716 241.978Z"
    fill="#263238"
  />
<path
    d="M52.89 187.872C52.9955 189.55 53.6744 191.128 54.798 192.307C63.558 200.896 69.972 214.854 69.972 226.669C69.972 235.277 66.588 241.389 61.056 243.443C61.7633 243.201 62.4418 242.873 63.078 242.464L67.152 239.955C71.484 237.293 74.064 231.635 74.064 224.154C74.064 212.339 67.65 198.381 58.884 189.792C57.7701 188.608 57.1002 187.031 57 185.357V167.942L52.914 170.464L50.898 169.222L52.914 170.464L52.89 187.872Z"
    fill="#37474F"
  />
<path
    d="M54.798 192.307C53.6744 191.128 52.9955 189.55 52.89 187.872V170.464L50.874 169.222V188.915C50.8793 189.176 50.9074 189.435 50.958 189.69L50.994 189.888C51.0514 190.162 51.1255 190.431 51.216 190.694C51.3611 191.101 51.5398 191.493 51.75 191.866C51.804 191.962 51.858 192.045 51.918 192.134C52.074 192.398 52.2485 192.648 52.44 192.883C52.5624 193.028 52.6927 193.164 52.83 193.293C53.316 193.741 53.79 194.214 54.258 194.701L54.63 195.091C55.038 195.526 55.44 195.968 55.83 196.422L56.01 196.627C56.454 197.146 56.886 197.677 57.312 198.221C57.426 198.362 57.534 198.509 57.642 198.65C57.996 199.11 58.344 199.578 58.68 200.058C58.764 200.173 58.848 200.282 58.926 200.397C59.328 200.973 59.712 201.555 60.126 202.15L60.39 202.579C60.702 203.072 60.99 203.571 61.296 204.077L61.548 204.518C61.902 205.158 62.238 205.76 62.568 206.387L62.754 206.771C63.024 207.302 63.288 207.84 63.54 208.384L63.774 208.883C64.068 209.523 64.374 210.163 64.614 210.848C64.65 210.931 64.686 211.021 64.716 211.104C64.952 211.693 65.174 212.282 65.382 212.87C65.448 213.05 65.514 213.229 65.574 213.408C65.802 214.08 66.03 214.752 66.228 215.43C66.426 216.109 66.606 216.787 66.78 217.466C66.816 217.606 66.852 217.754 66.882 217.901C67.046 218.558 67.19 219.217 67.314 219.878L67.368 220.211C67.482 220.813 67.572 221.414 67.656 222.016C67.656 222.125 67.656 222.234 67.698 222.342C67.782 222.982 67.842 223.622 67.89 224.262C67.89 224.403 67.89 224.544 67.89 224.685C67.926 225.325 67.956 225.997 67.956 226.643C67.956 230.483 67.242 233.715 65.964 236.192C65.6899 236.728 65.3791 237.241 65.034 237.728C64.866 237.965 64.692 238.195 64.512 238.413C64.332 238.63 64.146 238.835 63.954 239.053C63.2474 239.79 62.4377 240.405 61.554 240.877L61.266 241.03C61.062 241.126 60.858 241.222 60.666 241.306C60.474 241.389 60.156 241.504 59.898 241.581H59.832C59.682 241.626 59.526 241.658 59.376 241.696L59.106 241.766C58.836 241.824 58.56 241.875 58.284 241.907H58.2C57.7618 241.961 57.3211 241.989 56.88 241.99H56.538C56.298 241.99 56.052 241.99 55.806 241.946H55.716C55.464 241.946 55.206 241.888 54.954 241.85L52.338 243.456C53.7894 243.903 55.2914 244.135 56.802 244.147C57.006 244.147 57.204 244.147 57.402 244.147C57.6 244.147 57.948 244.147 58.2 244.102L58.662 244.032C58.956 243.987 59.262 243.942 59.514 243.885L59.934 243.782L60.102 243.731C60.36 243.661 60.618 243.59 60.87 243.507L61.05 243.443C66.582 241.414 69.966 235.277 69.966 226.669C69.972 214.854 63.558 200.896 54.798 192.307Z"
    fill="#455A64"
  />
<path
    d="M43.68 186.925L43.8 186.88L43.938 186.803L48 184.32C48.2633 184.141 48.4764 183.89 48.6168 183.592C48.7573 183.295 48.8199 182.963 48.798 182.63V162.906L44.712 165.427V185.114C44.742 185.493 44.6582 185.873 44.4727 186.199C44.2872 186.524 44.0097 186.778 43.68 186.925Z"
    fill="#37474F"
  />
<path
    d="M38.784 184.32C39.7664 184.321 40.7466 184.42 41.712 184.614C41.8308 184.647 41.9552 184.65 42.0753 184.623C42.1954 184.596 42.3078 184.538 42.4034 184.456C42.4991 184.374 42.5754 184.269 42.6262 184.15C42.677 184.031 42.7009 183.9 42.696 183.77V181.811C41.2278 181.823 39.7725 182.104 38.394 182.643V184.346C38.526 184.32 38.652 184.32 38.784 184.32Z"
    fill="#37474F"
  />
<path
    d="M39.3 186.483C39.774 186.483 40.26 186.554 40.752 186.63C41.2327 186.706 41.7093 186.809 42.18 186.938C42.2079 186.934 42.2361 186.934 42.264 186.938H42.318C42.4734 186.98 42.632 187.008 42.792 187.021H42.834C42.9638 187.031 43.0942 187.031 43.224 187.021H43.296C43.4188 187.002 43.5395 186.97 43.656 186.925C43.9857 186.778 44.2632 186.524 44.4487 186.199C44.6342 185.873 44.718 185.493 44.688 185.114V165.427L42.672 164.147V183.75C42.6769 183.881 42.653 184.012 42.6022 184.131C42.5514 184.25 42.4751 184.355 42.3795 184.437C42.2838 184.519 42.1714 184.576 42.0513 184.604C41.9313 184.631 41.8068 184.628 41.688 184.595C40.7227 184.4 39.7424 184.302 38.76 184.301C38.628 184.301 38.502 184.301 38.37 184.301V186.451H38.796C39 186.49 39.138 186.477 39.3 186.483Z"
    fill="#455A64"
  />
<path
    d="M45.99 153.408C45.246 152.954 44.226 153.018 43.098 153.715C41.9026 154.54 40.9079 155.656 40.1955 156.971C39.4831 158.287 39.0734 159.763 39 161.28C39 162.682 39.462 163.667 40.2 164.115L56.544 174.176L62.304 163.482L45.99 153.408Z"
    fill="#0AA605"
  />
<path
    opacity="0.3"
    d="M45.99 153.408C45.246 152.954 44.226 153.018 43.098 153.715C41.9026 154.54 40.9079 155.656 40.1955 156.971C39.4831 158.287 39.0734 159.763 39 161.28C39 162.682 39.462 163.667 40.2 164.115L56.544 174.176L62.304 163.482L45.99 153.408Z"
    fill="black"
  />
<path
    opacity="0.3"
    d="M39.498 158.624C39.188 159.472 39.0194 160.37 39 161.28C39 162.682 39.462 163.667 40.2 164.115L56.544 174.176L58.578 170.4L39.498 158.624Z"
    fill="black"
  />
<path
    d="M55.362 171.341C55.4365 169.827 55.8462 168.353 56.5575 167.04C57.2687 165.728 58.2613 164.614 59.454 163.789C60.57 163.098 61.584 163.027 62.322 163.469C63.06 163.91 63.522 164.902 63.522 166.304C63.4453 167.818 63.0353 169.291 62.3255 170.604C61.6156 171.917 60.6257 173.033 59.436 173.862C58.302 174.554 57.282 174.624 56.544 174.163C55.806 173.702 55.362 172.736 55.362 171.341Z"
    fill="#0AA605"
  />
<path
    opacity="0.2"
    d="M55.362 171.341C55.4365 169.827 55.8462 168.353 56.5575 167.04C57.2687 165.728 58.2613 164.614 59.454 163.789C60.57 163.098 61.584 163.027 62.322 163.469C63.06 163.91 63.522 164.902 63.522 166.304C63.4453 167.818 63.0353 169.291 62.3255 170.604C61.6156 171.917 60.6257 173.033 59.436 173.862C58.302 174.554 57.282 174.624 56.544 174.163C55.806 173.702 55.362 172.736 55.362 171.341Z"
    fill="black"
  />
<path
    d="M57.132 170.24C57.1758 169.381 57.4088 168.545 57.8123 167.8C58.2157 167.055 58.7782 166.422 59.454 165.952C59.6758 165.742 59.9541 165.612 60.2492 165.58C60.5443 165.549 60.8413 165.617 61.0978 165.776C61.3543 165.935 61.5574 166.176 61.6781 166.465C61.7987 166.754 61.8309 167.076 61.77 167.386C61.726 168.243 61.4935 169.077 61.0911 169.821C60.6888 170.565 60.128 171.197 59.454 171.667C59.2317 171.875 58.9542 172.003 58.6602 172.034C58.3662 172.065 58.0706 171.997 57.8146 171.839C57.5587 171.682 57.3553 171.443 57.2329 171.156C57.1105 170.87 57.0752 170.549 57.132 170.24Z"
    fill="#37474F"
  />
<path
    d="M60.684 166.746C60.6955 166.36 60.6106 165.978 60.438 165.638C60.0899 165.66 59.7521 165.772 59.454 165.965C58.7781 166.434 58.2157 167.068 57.8122 167.813C57.4088 168.558 57.1757 169.394 57.132 170.253C57.1235 170.638 57.2083 171.02 57.378 171.36C57.728 171.339 58.0678 171.227 58.368 171.034C59.0427 170.563 59.604 169.93 60.0064 169.185C60.4088 168.44 60.6409 167.604 60.684 166.746Z"
    fill="#263238"
  />
<path
    d="M152.304 87.936C151.566 87.4816 150.54 87.5456 149.412 88.2432C148.221 89.0702 147.23 90.1851 146.519 91.4972C145.808 92.8094 145.397 94.2819 145.32 95.7952C145.32 97.1968 145.788 98.176 146.52 98.6304L162.858 108.691L168.624 97.9968L152.304 87.936Z"
    fill="#0AA605"
  />
<path
    opacity="0.3"
    d="M152.304 87.936C151.566 87.4816 150.54 87.5456 149.412 88.2432C148.221 89.0702 147.23 90.1851 146.519 91.4972C145.808 92.8094 145.397 94.2819 145.32 95.7952C145.32 97.1968 145.788 98.176 146.52 98.6304L162.858 108.691L168.624 97.9968L152.304 87.936Z"
    fill="black"
  />
<path
    opacity="0.3"
    d="M145.8 93.1456C145.496 93.9926 145.33 94.8886 145.308 95.7952C145.308 97.1968 145.776 98.176 146.508 98.6304L162.846 108.691L164.886 104.909L145.8 93.1456Z"
    fill="black"
  />
<path
    d="M161.682 105.869C161.759 104.355 162.169 102.882 162.879 101.569C163.588 100.256 164.578 99.1395 165.768 98.3104C166.89 97.6256 167.904 97.5552 168.642 97.9968C169.38 98.4384 169.842 99.4304 169.842 100.832C169.767 102.346 169.358 103.82 168.647 105.132C167.935 106.445 166.943 107.559 165.75 108.384C164.622 109.082 163.602 109.146 162.858 108.691C162.114 108.237 161.682 107.258 161.682 105.869Z"
    fill="#0AA605"
  />
<path
    opacity="0.2"
    d="M161.682 105.869C161.759 104.355 162.169 102.882 162.879 101.569C163.588 100.256 164.578 99.1395 165.768 98.3104C166.89 97.6256 167.904 97.5552 168.642 97.9968C169.38 98.4384 169.842 99.4304 169.842 100.832C169.767 102.346 169.358 103.82 168.647 105.132C167.935 106.445 166.943 107.559 165.75 108.384C164.622 109.082 163.602 109.146 162.858 108.691C162.114 108.237 161.682 107.258 161.682 105.869Z"
    fill="black"
  />
<path
    d="M163.452 104.781C163.495 103.922 163.727 103.087 164.13 102.342C164.532 101.597 165.093 100.963 165.768 100.493C166.002 100.314 166.275 100.203 166.562 100.171C166.848 100.14 167.137 100.189 167.4 100.314C167.64 100.49 167.831 100.733 167.952 101.016C168.073 101.298 168.121 101.611 168.09 101.92C168.047 102.779 167.815 103.616 167.411 104.361C167.007 105.106 166.444 105.739 165.768 106.208C165.546 106.417 165.269 106.547 164.975 106.578C164.68 106.61 164.384 106.542 164.128 106.384C163.872 106.226 163.669 105.986 163.548 105.699C163.426 105.411 163.393 105.09 163.452 104.781Z"
    fill="#37474F"
  />
<path
    d="M167.004 101.274C167.012 100.888 166.928 100.507 166.758 100.166C166.408 100.188 166.068 100.3 165.768 100.493C165.092 100.963 164.53 101.596 164.127 102.341C163.723 103.086 163.49 103.922 163.446 104.781C163.436 105.167 163.523 105.549 163.698 105.888C164.046 105.866 164.384 105.754 164.682 105.562C165.357 105.092 165.92 104.458 166.323 103.713C166.727 102.968 166.96 102.133 167.004 101.274Z"
    fill="#263238"
  />
<path
    d="M164.886 51.584L147.246 40.704C146.117 38.4086 144.761 36.2481 143.202 34.2592C152.67 36.0192 160.158 42.1376 164.886 51.584Z"
    fill="#0AA605"
  />
<path
    opacity="0.2"
    d="M164.886 51.584L147.246 40.704C146.117 38.4086 144.761 36.2481 143.202 34.2592C152.67 36.0192 160.158 42.1376 164.886 51.584Z"
    fill="black"
  />
<path
    d="M161.622 98.4192C162.519 93.3308 162.983 88.1663 163.008 82.9888C163.008 47.9872 139.974 33.7984 111.558 51.3024C83.142 68.8064 60.102 111.36 60.102 146.362C60.0743 150.981 60.5413 155.589 61.494 160.096L54.858 164.186C54.0318 159.622 53.6299 154.983 53.658 150.336C53.658 110.944 79.59 63.0336 111.576 43.3408C143.562 23.648 169.488 39.6096 169.488 79.008C169.478 84.1542 169.076 89.291 168.288 94.368L161.688 98.4448"
    fill="#37474F"
  />
<path
    d="M161.628 98.4192C162.521 93.3281 162.983 88.1617 163.008 82.9824C163.008 59.8976 152.988 45.8624 138.006 44.0128C142.692 50.6816 145.38 60.1984 145.38 72.1728C145.351 77.3371 144.889 82.4883 144 87.5648L161.628 98.4192Z"
    fill="#263238"
  />
<path
    d="M151.458 38.4C141.066 32.64 127.02 33.8304 111.558 43.3536C79.566 63.0336 53.64 110.938 53.64 150.342C53.6116 154.986 54.0136 159.62 54.84 164.179L37.242 153.338C36.3979 148.787 35.9818 144.158 36 139.52C36 100.122 61.926 52.2176 93.918 32.5184C109.896 22.6752 124.356 21.7472 134.838 28.192C137.526 29.8176 147.42 35.9168 151.458 38.4Z"
    fill="#455A64"
  />
<path
    d="M45.852 147.974C45.3614 147.956 44.8838 147.801 44.466 147.526C43.6075 146.929 42.8923 146.125 42.3776 145.179C41.8628 144.233 41.563 143.172 41.502 142.08C41.502 140.621 42.21 139.68 43.302 139.68C43.7922 139.696 44.2699 139.848 44.688 140.122C45.5485 140.725 46.2646 141.534 46.7793 142.486C47.294 143.437 47.5928 144.504 47.652 145.6C47.646 147.027 46.938 147.974 45.852 147.974Z"
    fill="#263238"
  />
<path
    d="M154.074 34.6176C148.951 31.6864 143.213 30.1932 137.4 30.2784C128.562 30.2784 119.136 33.3248 109.374 39.328C86.784 53.2352 67.074 80.8 56.814 109.862L39.186 98.9824C49.446 69.92 69.186 42.3552 91.746 28.448C101.508 22.4448 110.946 19.3856 119.772 19.3856C125.806 19.2976 131.755 20.9186 137.01 24.0832C139.8 25.8368 150.342 32.3136 154.074 34.6176Z"
    fill="#0AA605"
  />
<path
    opacity="0.6"
    d="M154.074 34.6176C148.951 31.6864 143.213 30.1932 137.4 30.2784C128.562 30.2784 119.136 33.3248 109.374 39.328C86.784 53.2352 67.074 80.8 56.814 109.862L39.186 98.9824C49.446 69.92 69.186 42.3552 91.746 28.448C101.508 22.4448 110.946 19.3856 119.772 19.3856C125.806 19.2976 131.755 20.9186 137.01 24.0832C139.8 25.8368 150.342 32.3136 154.074 34.6176Z"
    fill="#D9D9D9"
  />
<path
    d="M164.88 51.5776C159.228 40.32 149.634 33.7472 137.4 33.7472C129.138 33.7472 120.252 36.6336 111 42.336C88.86 55.968 69.558 83.0912 59.634 111.603L56.814 109.862C67.074 80.8 86.784 53.2352 109.374 39.328C119.136 33.3248 128.574 30.2784 137.4 30.2784C150.276 30.2784 160.506 36.768 166.8 48.0384L164.88 51.5776Z"
    fill="#0AA605"
  />
<path
    d="M240.63 41.1648L237.69 51.5008C237.449 51.3076 237.179 51.1583 236.892 51.0592C236.39 50.8971 235.854 50.8974 235.352 51.0601C234.85 51.2229 234.405 51.5407 234.072 51.9734C233.74 52.4062 233.535 52.9343 233.484 53.4912C233.433 54.0481 233.538 54.6086 233.786 55.1018C234.033 55.5951 234.412 55.999 234.875 56.2624C235.338 56.5258 235.863 56.6369 236.385 56.5816C236.907 56.5264 237.402 56.3072 237.808 55.9519C238.213 55.5966 238.51 55.1212 238.662 54.5856L241.302 45.3248L250.74 45.696L248.142 54.88C247.902 54.6842 247.632 54.5348 247.344 54.4384C246.842 54.2763 246.306 54.2766 245.804 54.4393C245.302 54.6021 244.857 54.9199 244.524 55.3526C244.192 55.7854 243.987 56.3135 243.936 56.8704C243.885 57.4273 243.99 57.9878 244.238 58.481C244.485 58.9743 244.864 59.3782 245.327 59.6416C245.79 59.905 246.315 60.0161 246.837 59.9608C247.359 59.9056 247.854 59.6864 248.26 59.3311C248.665 58.9758 248.962 58.5003 249.114 57.9648L253.452 42.6048L240.63 41.1648Z"
    fill="#1E1E1E"
  />
<path
    d="M233.538 199.533L230.598 209.869C230.358 209.673 230.088 209.524 229.8 209.427C229.298 209.265 228.762 209.265 228.26 209.428C227.758 209.591 227.313 209.909 226.981 210.341C226.648 210.774 226.443 211.302 226.392 211.859C226.341 212.416 226.446 212.977 226.694 213.47C226.941 213.963 227.32 214.367 227.783 214.63C228.246 214.894 228.772 215.005 229.294 214.95C229.815 214.894 230.31 214.675 230.716 214.32C231.121 213.965 231.418 213.489 231.57 212.954L234.21 203.693L243.648 204.064L241.05 213.248C240.81 213.052 240.54 212.903 240.252 212.806C239.75 212.644 239.214 212.645 238.712 212.807C238.21 212.97 237.765 213.288 237.433 213.721C237.1 214.153 236.895 214.682 236.844 215.238C236.793 215.795 236.898 216.356 237.146 216.849C237.393 217.342 237.772 217.746 238.235 218.01C238.698 218.273 239.224 218.384 239.745 218.329C240.267 218.274 240.762 218.054 241.168 217.699C241.573 217.344 241.87 216.868 242.022 216.333L246.354 200.973L233.538 199.533Z"
    fill="#1E1E1E"
  />
<path
    d="M214.872 77.8176C215.465 77.5078 216.114 77.3355 216.774 77.312C217.657 77.2936 218.539 77.4012 219.396 77.632C220.532 77.9652 221.695 78.1795 222.87 78.272C223.459 78.3149 224.05 78.2304 224.608 78.0236C225.166 77.8169 225.679 77.4921 226.116 77.0688C225.428 77.1372 224.735 77.0388 224.088 76.7808C222.534 76.1408 221.286 74.4448 219.888 73.4976C217.806 72.096 215.748 72.2176 213.216 72.896C213.216 75.1936 213.174 77.504 213.15 79.808L213.096 85.2288C213.096 85.4016 213.018 87.6928 213.018 87.6928C212.431 87.3789 211.785 87.2084 211.128 87.1936C210.409 87.1861 209.703 87.4063 209.101 87.8264C208.499 88.2465 208.028 88.8476 207.746 89.5538C207.465 90.2599 207.386 91.0392 207.52 91.7932C207.653 92.5471 207.994 93.2418 208.498 93.7893C209.002 94.3368 209.647 94.7125 210.351 94.8688C211.055 95.0252 211.787 94.9553 212.454 94.6678C213.121 94.3803 213.693 93.8883 214.098 93.2539C214.503 92.6195 214.722 91.8713 214.728 91.104L214.872 77.8176Z"
    fill="#1E1E1E"
  />
<path
    d="M273.6 174.797C274.252 174.673 274.921 174.7 275.562 174.874C276.414 175.119 277.233 175.48 277.998 175.949C279.004 176.604 280.067 177.155 281.172 177.594C281.728 177.807 282.318 177.899 282.908 177.864C283.497 177.829 284.074 177.667 284.604 177.389C283.924 177.253 283.282 176.956 282.726 176.518C281.4 175.462 280.644 173.446 279.546 172.122C277.914 170.157 275.91 169.658 273.294 169.562C272.694 171.776 272.058 173.978 271.44 176.186L269.982 181.382L269.262 183.718C268.78 183.244 268.203 182.892 267.576 182.688C266.888 182.465 266.153 182.465 265.464 182.687C264.776 182.91 264.165 183.345 263.708 183.939C263.252 184.532 262.971 185.256 262.901 186.02C262.83 186.783 262.974 187.552 263.313 188.229C263.653 188.905 264.173 189.459 264.807 189.821C265.442 190.182 266.163 190.334 266.879 190.258C267.595 190.182 268.273 189.882 268.829 189.394C269.385 188.907 269.792 188.255 270 187.52L273.6 174.797Z"
    fill="#1E1E1E"
  />
<path
    d="M187.65 36.7616C187.932 36.0589 188.352 35.4284 188.88 34.912C189.593 34.2305 190.388 33.6537 191.244 33.1968C192.401 32.609 193.502 31.9039 194.532 31.0912C195.044 30.6824 195.474 30.1671 195.795 29.5764C196.115 28.9858 196.321 28.332 196.398 27.6544C195.877 28.2257 195.241 28.6634 194.538 28.9344C192.852 29.5744 190.686 29.12 188.91 29.3952C186.264 29.8112 184.644 31.456 183.018 33.9328C184.548 35.8528 186.018 37.7728 187.548 39.6928L191.106 44.1728C191.22 44.3136 192.672 46.2592 192.672 46.2592C191.984 46.4525 191.344 46.8066 190.8 47.296C190.203 47.8334 189.769 48.5475 189.553 49.3479C189.337 50.1483 189.348 50.9992 189.585 51.7929C189.823 52.5865 190.275 53.2873 190.886 53.8066C191.496 54.3259 192.238 54.6403 193.016 54.7102C193.794 54.78 194.574 54.6021 195.258 54.199C195.941 53.7958 196.497 53.1855 196.855 52.4453C197.213 51.7051 197.358 50.8682 197.27 50.0405C197.182 49.2128 196.866 48.4314 196.362 47.7952L187.65 36.7616Z"
    fill="#1E1E1E"
  />
<path
    d="M240.6 98.227L224.874 107.917C224.726 108.018 224.602 108.156 224.514 108.318C224.425 108.481 224.374 108.663 224.364 108.851V128.205C224.373 128.392 224.424 128.574 224.513 128.735C224.601 128.897 224.725 129.033 224.874 129.133L226.674 130.24C226.83 130.324 227.003 130.367 227.178 130.367C227.353 130.367 227.526 130.324 227.682 130.24L243.414 120.544C243.561 120.442 243.683 120.305 243.77 120.144C243.858 119.983 243.908 119.802 243.918 119.616V100.23C243.909 100.043 243.858 99.8612 243.769 99.6996C243.681 99.5381 243.557 99.4017 243.408 99.3022L241.608 98.2206C241.451 98.1391 241.278 98.0974 241.103 98.0985C240.929 98.0996 240.756 98.1435 240.6 98.227Z"
    fill="#F21616"
  />
<path
    d="M227.208 129.92V110.541C227.218 110.354 227.268 110.172 227.356 110.01C227.443 109.847 227.565 109.709 227.712 109.606L243.444 99.9168C243.72 99.744 243.948 99.8848 243.948 100.23V119.616C243.938 119.802 243.888 119.983 243.8 120.144C243.713 120.306 243.591 120.443 243.444 120.544L227.712 130.24C227.436 130.406 227.208 130.272 227.208 129.92Z"
    fill="#F21616"
  />
<path
    d="M227.208 129.92V110.541C227.218 110.354 227.268 110.172 227.356 110.01C227.443 109.847 227.565 109.709 227.712 109.606L243.444 99.9168C243.72 99.744 243.948 99.8848 243.948 100.23V119.616C243.938 119.802 243.888 119.983 243.8 120.144C243.713 120.306 243.591 120.443 243.444 120.544L227.712 130.24C227.436 130.406 227.208 130.272 227.208 129.92Z"
    fill="#F21616"
  />
<path
    opacity="0.2"
    d="M227.712 130.24C227.553 130.319 227.38 130.36 227.205 130.36C227.03 130.36 226.857 130.319 226.698 130.24L224.898 129.126C224.749 129.027 224.625 128.89 224.537 128.729C224.448 128.567 224.397 128.385 224.388 128.198V108.851C224.397 108.656 224.452 108.466 224.55 108.301L227.364 110.01C227.27 110.169 227.218 110.353 227.214 110.541V129.92C227.208 130.24 227.4 130.419 227.712 130.24Z"
    fill="black"
  />
<path
    opacity="0.4"
    d="M243.942 100.134C243.9 99.8592 243.696 99.7632 243.444 99.9168L227.712 109.606C227.565 109.708 227.443 109.846 227.358 110.01L224.544 108.301C224.626 108.142 224.746 108.01 224.892 107.917L240.6 98.2272C240.757 98.1418 240.931 98.0972 241.107 98.0972C241.283 98.0972 241.457 98.1418 241.614 98.2272L243.414 99.3088C243.554 99.3963 243.673 99.5157 243.765 99.6585C243.856 99.8012 243.917 99.9637 243.942 100.134Z"
    fill="#D9D9D9"
  />
<path
    d="M241.74 111.226C241.74 116.102 238.962 121.773 235.53 123.885C232.098 125.997 229.314 123.757 229.314 118.874C229.314 113.99 232.098 108.326 235.53 106.214C238.962 104.102 241.74 106.342 241.74 111.226Z"
    fill="#FAFAFA"
  />
<path
    d="M234.69 112.8V118.451C234.682 118.592 234.644 118.728 234.579 118.851C234.513 118.973 234.422 119.077 234.312 119.155L233.292 119.795C233.082 119.923 232.914 119.795 232.914 119.558V113.92C232.922 113.779 232.96 113.643 233.025 113.52C233.091 113.398 233.182 113.294 233.292 113.216L234.312 112.576C234.516 112.442 234.69 112.544 234.69 112.8Z"
    fill="#455A64"
  />
<path
    d="M238.248 110.611V116.256C238.24 116.397 238.202 116.533 238.137 116.655C238.071 116.778 237.98 116.882 237.87 116.96L236.85 117.6C236.64 117.728 236.466 117.6 236.466 117.363V111.718C236.474 111.578 236.513 111.442 236.58 111.321C236.647 111.2 236.739 111.097 236.85 111.021L237.87 110.381C238.08 110.246 238.248 110.349 238.248 110.611Z"
    fill="#455A64"
  />
<path
    d="M258.882 89.3824L246.282 97.1328C246.165 97.2155 246.067 97.3263 245.998 97.4563C245.928 97.5863 245.888 97.732 245.88 97.8816V113.363C245.887 113.513 245.927 113.659 245.998 113.788C246.07 113.917 246.169 114.026 246.288 114.106L247.734 114.995C247.86 115.063 247.998 115.099 248.139 115.099C248.28 115.099 248.419 115.063 248.544 114.995L261.144 107.245C261.262 107.163 261.361 107.052 261.432 106.922C261.503 106.792 261.544 106.646 261.552 106.496V90.9824C261.543 90.8333 261.501 90.6886 261.43 90.5597C261.36 90.4308 261.261 90.3213 261.144 90.24L259.698 89.376C259.571 89.3079 259.431 89.273 259.289 89.2741C259.147 89.2752 259.008 89.3123 258.882 89.3824Z"
    fill="#F21616"
  />
<path
    d="M248.154 114.739V99.232C248.161 99.0831 248.201 98.9382 248.271 98.8091C248.341 98.68 248.439 98.5705 248.556 98.4896L261.156 90.7328C261.378 90.5984 261.564 90.7328 261.564 90.9824V106.49C261.556 106.64 261.515 106.786 261.444 106.916C261.373 107.046 261.274 107.156 261.156 107.238L248.556 114.989C248.334 115.13 248.154 115.014 248.154 114.739Z"
    fill="#F21616"
  />
<path
    d="M248.154 114.739V99.232C248.161 99.0831 248.201 98.9382 248.271 98.8091C248.341 98.68 248.439 98.5705 248.556 98.4896L261.156 90.7328C261.378 90.5984 261.564 90.7328 261.564 90.9824V106.49C261.556 106.64 261.515 106.786 261.444 106.916C261.373 107.046 261.274 107.156 261.156 107.238L248.556 114.989C248.334 115.13 248.154 115.014 248.154 114.739Z"
    fill="#F21616"
  />
<path
    opacity="0.2"
    d="M248.556 114.989C248.43 115.055 248.292 115.089 248.151 115.089C248.011 115.089 247.872 115.055 247.746 114.989L246.3 114.099C246.181 114.02 246.082 113.911 246.011 113.781C245.94 113.652 245.899 113.506 245.892 113.357V97.8816C245.897 97.7251 245.941 97.5728 246.018 97.44L248.274 98.8096C248.199 98.9363 248.158 99.0822 248.154 99.232V114.739C248.154 114.995 248.316 115.136 248.556 114.989Z"
    fill="black"
  />
<path
    opacity="0.4"
    d="M261.54 90.8799C261.504 90.6623 261.342 90.5855 261.138 90.7071L248.538 98.4639C248.42 98.5427 248.322 98.653 248.256 98.7839L246 97.4399C246.067 97.3126 246.164 97.2065 246.282 97.1327L258.882 89.3823C259.007 89.3143 259.146 89.2789 259.287 89.2789C259.428 89.2789 259.567 89.3143 259.692 89.3823L261.138 90.2463C261.242 90.3172 261.331 90.41 261.4 90.5189C261.469 90.6278 261.517 90.7507 261.54 90.8799Z"
    fill="#D9D9D9"
  />
<path
    d="M258.426 97.824V103.469C258.419 103.61 258.382 103.747 258.316 103.869C258.25 103.991 258.158 104.095 258.048 104.173L257.028 104.813C256.818 104.941 256.644 104.813 256.644 104.582V98.9312C256.652 98.7909 256.691 98.6547 256.758 98.5335C256.825 98.4123 256.917 98.3096 257.028 98.2336L258.048 97.5936C258.258 97.4592 258.426 97.5616 258.426 97.824Z"
    fill="#455A64"
  />
<path
    d="M251.268 102.291V107.821C251.268 108.237 251.472 108.314 251.73 108.006L256.53 102.106C256.788 101.792 256.68 101.542 256.29 101.542H252C251.905 101.538 251.811 101.554 251.722 101.59C251.633 101.626 251.553 101.68 251.484 101.75C251.416 101.82 251.361 101.904 251.324 101.997C251.287 102.09 251.268 102.19 251.268 102.291Z"
    fill="#455A64"
  />
<path
    d="M218.94 113.984L206.34 121.734C206.221 121.816 206.123 121.926 206.052 122.057C205.981 122.187 205.94 122.333 205.932 122.483V137.965C205.94 138.114 205.981 138.259 206.052 138.388C206.123 138.517 206.222 138.627 206.34 138.707L207.786 139.597C207.911 139.665 208.05 139.7 208.191 139.7C208.332 139.7 208.471 139.665 208.596 139.597L221.196 131.846C221.313 131.764 221.411 131.653 221.481 131.523C221.551 131.393 221.591 131.247 221.598 131.098V115.584C221.591 115.434 221.551 115.289 221.48 115.159C221.409 115.03 221.309 114.921 221.19 114.842L219.744 113.978C219.619 113.912 219.481 113.878 219.341 113.879C219.202 113.88 219.064 113.916 218.94 113.984Z"
    fill="#F21616"
  />
<path
    d="M208.2 139.341V123.834C208.207 123.685 208.247 123.54 208.317 123.411C208.387 123.282 208.485 123.172 208.602 123.091L221.202 115.334C221.424 115.2 221.604 115.334 221.604 115.584V131.091C221.597 131.241 221.557 131.387 221.487 131.517C221.417 131.647 221.319 131.758 221.202 131.84L208.602 139.59C208.392 139.731 208.2 139.616 208.2 139.341Z"
    fill="#F21616"
  />
<path
    d="M208.2 139.341V123.834C208.207 123.685 208.247 123.54 208.317 123.411C208.387 123.282 208.485 123.172 208.602 123.091L221.202 115.334C221.424 115.2 221.604 115.334 221.604 115.584V131.091C221.597 131.241 221.557 131.387 221.487 131.517C221.417 131.647 221.319 131.758 221.202 131.84L208.602 139.59C208.392 139.731 208.2 139.616 208.2 139.341Z"
    fill="#F21616"
  />
<path
    opacity="0.2"
    d="M208.614 139.59C208.488 139.656 208.349 139.691 208.209 139.691C208.069 139.691 207.93 139.656 207.804 139.59L206.358 138.701C206.24 138.62 206.141 138.511 206.07 138.382C205.999 138.253 205.958 138.108 205.95 137.958V122.483C205.957 122.326 206.002 122.174 206.082 122.042L208.332 123.411C208.257 123.538 208.216 123.684 208.212 123.834V139.341C208.2 139.597 208.38 139.738 208.614 139.59Z"
    fill="black"
  />
<path
    opacity="0.4"
    d="M221.598 115.507C221.568 115.29 221.4 115.213 221.196 115.334L208.596 123.091C208.479 123.172 208.382 123.282 208.314 123.411L206.058 122.042C206.128 121.917 206.225 121.812 206.34 121.734L218.94 113.984C219.065 113.916 219.204 113.88 219.345 113.88C219.486 113.88 219.625 113.916 219.75 113.984L221.196 114.848C221.303 114.922 221.393 115.018 221.463 115.132C221.532 115.246 221.578 115.373 221.598 115.507Z"
    fill="#D9D9D9"
  />
<path
    d="M212.91 125.997V131.642C212.904 131.783 212.866 131.92 212.801 132.042C212.735 132.165 212.643 132.269 212.532 132.346L211.512 132.986C211.302 133.12 211.134 132.986 211.134 132.755V127.11C211.14 126.97 211.178 126.832 211.243 126.71C211.309 126.587 211.401 126.483 211.512 126.406L212.532 125.766C212.742 125.632 212.91 125.741 212.91 125.997Z"
    fill="#455A64"
  />
<path
    d="M218.682 128.058V122.298C218.682 121.856 218.46 121.766 218.184 122.099L213.072 128.262C212.796 128.595 212.91 128.864 213.324 128.864H217.932C218.131 128.861 218.321 128.774 218.461 128.624C218.601 128.473 218.68 128.27 218.682 128.058Z"
    fill="#455A64"
  />
<path
    d="M260.64 118.227L205.632 152.102C205.485 152.205 205.363 152.343 205.275 152.505C205.188 152.667 205.137 152.85 205.128 153.037V190.445C205.138 190.63 205.189 190.81 205.277 190.97C205.364 191.13 205.486 191.266 205.632 191.366L207.432 192.48C207.59 192.563 207.763 192.607 207.939 192.607C208.115 192.607 208.288 192.563 208.446 192.48L263.454 158.598C263.601 158.495 263.723 158.357 263.81 158.195C263.898 158.033 263.948 157.851 263.958 157.664V120.23C263.949 120.043 263.898 119.861 263.809 119.7C263.721 119.538 263.597 119.402 263.448 119.302L261.648 118.221C261.491 118.137 261.318 118.094 261.143 118.095C260.968 118.097 260.796 118.142 260.64 118.227Z"
    fill="#455A64"
  />
<path
    d="M263.964 120.128C263.922 119.859 263.718 119.763 263.466 119.917L208.458 153.798C208.308 153.898 208.184 154.037 208.098 154.202L205.284 152.486C205.368 152.329 205.487 152.197 205.632 152.102L260.64 118.221C260.798 118.137 260.971 118.094 261.147 118.094C261.323 118.094 261.496 118.137 261.654 118.221L263.454 119.302C263.59 119.392 263.707 119.512 263.795 119.655C263.883 119.798 263.941 119.959 263.964 120.128Z"
    fill="#37474F"
  />
<path
    d="M207.948 192.16V154.733C207.958 154.545 208.009 154.363 208.098 154.2C208.186 154.038 208.31 153.9 208.458 153.798L263.466 119.917C263.742 119.744 263.97 119.885 263.97 120.23V157.658C263.96 157.845 263.91 158.026 263.822 158.189C263.735 158.351 263.613 158.489 263.466 158.592L208.458 192.474C208.2 192.64 207.948 192.506 207.948 192.16Z"
    fill="#455A64"
  />
<path
    opacity="0.2"
    d="M208.458 192.474C208.3 192.556 208.127 192.598 207.951 192.598C207.775 192.598 207.602 192.556 207.444 192.474L205.644 191.36C205.498 191.259 205.376 191.124 205.288 190.964C205.201 190.803 205.15 190.623 205.14 190.438V153.037C205.146 152.842 205.2 152.652 205.296 152.486L208.11 154.202C208.019 154.362 207.967 154.545 207.96 154.733V192.16C207.948 192.474 208.158 192.64 208.458 192.474Z"
    fill="#263238"
  />
<path
    d="M214.944 183.443C214.938 183.448 214.93 183.45 214.923 183.45C214.915 183.45 214.908 183.448 214.902 183.443C214.9 183.438 214.899 183.433 214.899 183.427C214.899 183.422 214.9 183.416 214.902 183.411V183.2L214.302 183.584C214.296 183.587 214.29 183.588 214.284 183.588C214.278 183.588 214.272 183.587 214.266 183.584V183.552V183.328C214.26 183.292 214.26 183.255 214.266 183.219L214.866 182.054C214.873 182.036 214.883 182.018 214.896 182.003H214.938L215.238 181.818C215.238 181.818 215.268 181.818 215.274 181.818V181.85V182.662L215.442 182.56C215.448 182.555 215.455 182.553 215.463 182.553C215.471 182.553 215.478 182.555 215.484 182.56V182.79C215.489 182.805 215.489 182.821 215.484 182.835L215.442 182.88L215.274 182.982V183.2C215.278 183.217 215.278 183.234 215.274 183.251C215.267 183.268 215.254 183.282 215.238 183.29L214.944 183.443ZM214.896 182.861V182.47L214.608 183.04L214.896 182.861Z"
    fill="#D9D9D9"
  />
<path
    d="M216.12 181.92C216.122 181.937 216.122 181.954 216.12 181.971L216.078 182.01L215.82 182.17C215.82 182.17 215.79 182.17 215.784 182.17V181.894C215.779 181.878 215.779 181.86 215.784 181.843C215.787 181.834 215.791 181.826 215.797 181.819C215.804 181.812 215.811 181.807 215.82 181.805L216.078 181.638H216.12C216.123 181.649 216.123 181.66 216.12 181.67V181.92ZM216.12 182.662C216.122 182.679 216.122 182.697 216.12 182.714L216.078 182.752L215.82 182.912C215.82 182.912 215.79 182.912 215.784 182.912V182.88V182.605C215.779 182.588 215.779 182.57 215.784 182.554C215.787 182.544 215.791 182.536 215.797 182.53C215.804 182.523 215.811 182.518 215.82 182.515L216.078 182.355C216.084 182.35 216.091 182.348 216.099 182.348C216.107 182.348 216.114 182.35 216.12 182.355V182.662Z"
    fill="#D9D9D9"
  />
<path
    d="M217.128 182.099C217.128 182.099 217.098 182.099 217.086 182.099C217.084 182.094 217.083 182.089 217.083 182.083C217.083 182.078 217.084 182.072 217.086 182.067V181.85L216.456 182.24H216.42V182.016C216.421 181.977 216.431 181.94 216.45 181.907L217.05 180.742L217.08 180.691C217.091 180.677 217.106 180.666 217.122 180.659L217.422 180.474C217.422 180.474 217.452 180.474 217.458 180.474V180.506V181.318L217.632 181.21H217.668C217.671 181.214 217.672 181.22 217.672 181.226C217.672 181.231 217.671 181.237 217.668 181.242V181.466C217.673 181.482 217.673 181.5 217.668 181.517L217.632 181.562L217.458 181.664V181.882C217.462 181.898 217.462 181.916 217.458 181.933C217.451 181.95 217.438 181.963 217.422 181.971L217.128 182.099ZM217.08 181.51V181.12L216.792 181.69L217.08 181.51Z"
    fill="#D9D9D9"
  />
<path
    d="M254.154 158.784C254.155 158.87 254.139 158.955 254.106 159.034C254.076 159.123 254.034 159.207 253.98 159.283C253.923 159.364 253.858 159.439 253.788 159.507C253.719 159.572 253.645 159.63 253.566 159.68C253.495 159.725 253.418 159.76 253.338 159.782C253.275 159.798 253.209 159.798 253.146 159.782C253.094 159.772 253.048 159.742 253.014 159.699C252.981 159.639 252.964 159.57 252.966 159.501C252.96 159.458 252.96 159.415 252.966 159.373L253.002 159.251C253.013 159.211 253.029 159.172 253.05 159.136L253.098 159.027L253.482 158.246V158.202L253.524 158.163L253.842 157.971V158.003L253.578 158.541C253.641 158.508 253.707 158.484 253.776 158.47C253.829 158.457 253.885 158.457 253.938 158.47C253.984 158.489 254.024 158.523 254.052 158.566C254.109 158.624 254.145 158.701 254.154 158.784ZM253.338 159.29C253.331 159.312 253.331 159.337 253.338 159.36C253.355 159.367 253.375 159.367 253.392 159.36C253.416 159.366 253.44 159.366 253.464 159.36L253.548 159.322L253.626 159.258C253.653 159.235 253.677 159.209 253.698 159.181C253.718 159.15 253.736 159.118 253.752 159.085C253.758 159.053 253.758 159.02 253.752 158.989C253.759 158.966 253.759 158.941 253.752 158.918C253.734 158.912 253.716 158.912 253.698 158.918C253.675 158.909 253.649 158.909 253.626 158.918C253.598 158.926 253.571 158.939 253.548 158.957C253.516 158.972 253.488 158.994 253.464 159.021C253.437 159.043 253.413 159.069 253.392 159.098C253.37 159.127 253.352 159.159 253.338 159.194C253.332 159.225 253.332 159.258 253.338 159.29Z"
    fill="#D9D9D9"
  />
<path
    d="M254.79 158.08C254.794 158.097 254.794 158.114 254.79 158.131L254.754 158.17L254.496 158.33C254.496 158.33 254.466 158.33 254.454 158.33C254.452 158.325 254.451 158.319 254.451 158.314C254.451 158.308 254.452 158.303 254.454 158.298V158.08C254.451 158.063 254.451 158.046 254.454 158.029C254.463 158.011 254.478 157.997 254.496 157.99L254.754 157.83C254.754 157.83 254.784 157.83 254.79 157.83C254.796 157.83 254.79 157.83 254.79 157.83V158.08ZM254.79 158.822C254.794 158.839 254.794 158.857 254.79 158.874C254.781 158.889 254.769 158.903 254.754 158.912L254.496 159.072C254.496 159.072 254.466 159.072 254.454 159.072V158.797C254.451 158.78 254.451 158.762 254.454 158.746C254.463 158.728 254.478 158.714 254.496 158.707L254.754 158.547C254.754 158.547 254.784 158.547 254.79 158.547C254.796 158.547 254.79 158.547 254.79 158.547V158.822Z"
    fill="#D9D9D9"
  />
<path
    d="M256.134 156.589H256.2C256.203 156.594 256.204 156.599 256.204 156.605C256.204 156.61 256.203 156.616 256.2 156.621V156.845C256.203 156.862 256.203 156.879 256.2 156.896C256.201 156.913 256.201 156.93 256.2 156.947L255.96 157.35C256.042 157.322 256.13 157.322 256.212 157.35C256.247 157.37 256.276 157.401 256.295 157.439C256.313 157.476 256.32 157.519 256.314 157.562C256.311 157.727 256.256 157.887 256.158 158.016C256.037 158.175 255.888 158.307 255.72 158.406C255.642 158.457 255.557 158.496 255.468 158.522C255.407 158.54 255.343 158.54 255.282 158.522C255.239 158.518 255.198 158.498 255.168 158.464C255.139 158.428 255.124 158.383 255.126 158.336C255.121 158.321 255.121 158.306 255.126 158.291C255.133 158.278 255.143 158.266 255.156 158.259L255.408 158.106C255.417 158.1 255.428 158.098 255.438 158.098C255.448 158.098 255.459 158.1 255.468 158.106H255.516H255.588C255.631 158.1 255.673 158.082 255.708 158.054C255.768 158.018 255.822 157.973 255.87 157.92C255.889 157.901 255.904 157.878 255.914 157.853C255.924 157.828 255.93 157.8 255.93 157.773C255.93 157.722 255.93 157.702 255.87 157.702C255.813 157.713 255.758 157.735 255.708 157.766L255.546 157.869C255.546 157.869 255.546 157.869 255.51 157.869V157.69C255.507 157.673 255.507 157.655 255.51 157.638C255.519 157.62 255.529 157.603 255.54 157.587L255.75 157.229L255.234 157.549C255.234 157.549 255.204 157.549 255.192 157.549C255.18 157.549 255.192 157.549 255.192 157.549V157.325C255.191 157.306 255.195 157.287 255.205 157.27C255.215 157.254 255.229 157.242 255.246 157.235L256.134 156.589Z"
    fill="#D9D9D9"
  />
<path
    d="M257.13 155.955C257.21 155.904 257.297 155.867 257.388 155.846C257.445 155.829 257.505 155.829 257.562 155.846C257.611 155.871 257.649 155.915 257.67 155.968C257.694 156.029 257.708 156.094 257.712 156.16V156.538C257.706 156.622 257.692 156.706 257.67 156.787C257.645 156.873 257.609 156.955 257.562 157.03C257.513 157.116 257.455 157.196 257.388 157.267C257.309 157.345 257.223 157.414 257.13 157.472C257.05 157.524 256.963 157.562 256.872 157.587C256.814 157.608 256.75 157.608 256.692 157.587C256.648 157.561 256.612 157.52 256.59 157.472C256.566 157.409 256.551 157.342 256.548 157.274C256.548 157.216 256.548 157.158 256.548 157.088C256.548 157.018 256.548 156.96 256.548 156.896C256.554 156.813 256.568 156.732 256.59 156.653C256.616 156.566 256.651 156.483 256.692 156.403C256.743 156.317 256.803 156.237 256.872 156.166C256.951 156.086 257.037 156.015 257.13 155.955ZM257.34 156.768C257.346 156.649 257.346 156.529 257.34 156.41C257.343 156.38 257.343 156.35 257.34 156.32C257.333 156.299 257.321 156.281 257.304 156.269C257.294 156.264 257.282 156.261 257.271 156.261C257.26 156.261 257.248 156.264 257.238 156.269C257.204 156.275 257.171 156.288 257.142 156.307C257.104 156.33 257.07 156.358 257.04 156.39C257.016 156.417 256.996 156.447 256.98 156.48C256.962 156.511 256.95 156.546 256.944 156.582C256.941 156.616 256.941 156.651 256.944 156.685C256.938 156.804 256.938 156.924 256.944 157.043C256.941 157.073 256.941 157.103 256.944 157.133C256.94 157.152 256.94 157.171 256.944 157.19C256.966 157.197 256.988 157.197 257.01 157.19C257.046 157.181 257.081 157.166 257.112 157.146C257.146 157.123 257.178 157.097 257.208 157.069C257.234 157.04 257.256 157.008 257.274 156.973C257.291 156.943 257.303 156.911 257.31 156.877C257.322 156.852 257.332 156.826 257.34 156.8V156.768Z"
    fill="#D9D9D9"
  />
<path
    opacity="0.3"
    d="M221.466 177.459L250.458 159.603C250.932 159.309 251.316 159.52 251.316 160.07C251.296 160.378 251.207 160.677 251.058 160.942C250.909 161.206 250.703 161.43 250.458 161.594L221.466 179.45C220.992 179.744 220.602 179.533 220.602 178.982C220.623 178.674 220.712 178.375 220.862 178.11C221.013 177.845 221.219 177.622 221.466 177.459Z"
    fill="#D9D9D9"
  />
<path
    d="M221.466 177.459L243.234 164.051C243.708 163.757 244.098 163.968 244.098 164.518C244.076 164.827 243.986 165.125 243.836 165.389C243.686 165.654 243.48 165.877 243.234 166.042L221.466 179.45C220.992 179.744 220.602 179.533 220.602 178.982C220.623 178.674 220.712 178.375 220.862 178.11C221.013 177.845 221.219 177.622 221.466 177.459Z"
    fill="#D9D9D9"
  />
<path
    d="M261.546 136.32L258.978 137.894C257.922 138.534 256.08 139.77 255.024 139.462C254.136 139.206 253.452 137.933 252.228 138.688C251.454 139.162 250.596 142.086 249.09 143.014C247.584 143.942 246.69 141.325 246.204 139.974C245.718 138.624 244.86 136.096 243.066 137.197C241.272 138.298 240.342 142.17 239.202 145.011C238.062 147.853 236.58 150.605 234.75 151.731C232.59 153.062 231.102 152.416 230.088 153.043C229.074 153.67 228.222 155.654 227.088 156.8C226.08 157.843 224.526 158.848 223.632 158.08C222.738 157.312 222.096 155.341 221.196 155.891C220.296 156.442 219.57 159.629 218.718 161.222C217.866 162.816 216.918 163.782 214.404 165.325L209.64 168.256V168.621L211.692 167.341C212.718 166.701 214.164 165.875 215.13 166.31C216.096 166.746 216.138 167.142 216.99 166.618C217.842 166.093 218.19 165.338 218.79 164.307C219.185 163.514 219.751 162.832 220.44 162.317C221.04 161.926 221.862 162.317 222.36 162.829C222.858 163.341 223.344 163.898 224.082 163.469C224.853 162.86 225.451 162.036 225.81 161.088C226.29 160.09 226.554 159.302 227.082 158.97C227.665 158.683 228.323 158.624 228.942 158.803C229.945 158.977 230.973 158.749 231.828 158.163C233.076 157.395 234.528 156.038 236.352 152.57L239.118 150.861C241.134 149.626 242.526 148.902 243.45 149.133C244.602 149.414 246.186 151.782 247.908 150.714C249.63 149.645 250.134 146.874 250.986 145.043C251.661 143.305 252.901 141.885 254.478 141.043L261.522 136.704L261.546 136.32Z"
    fill="#F21616"
  />
<path
    opacity="0.2"
    d="M246.204 150.803C245.166 150.381 244.224 149.306 243.474 149.12C242.55 148.89 241.158 149.613 239.142 150.848L236.4 152.557C237.996 149.504 239.514 144.723 240.084 142.829C240.33 142.022 240.606 141.216 240.93 140.429C241.255 139.581 241.683 138.783 242.202 138.054C243.096 137.062 243.768 136.954 244.2 138.106C244.632 139.258 244.314 142.688 244.392 145.6C244.47 148.512 245.19 150.15 246.204 150.803Z"
    fill="black"
  />
<path
    opacity="0.2"
    d="M223.65 158.08C224.544 158.835 226.098 157.83 227.106 156.8C228.222 155.654 229.068 153.67 230.106 153.043C231.144 152.416 232.608 153.043 234.768 151.731C235.477 151.266 236.1 150.665 236.604 149.958C235.818 151.238 234.624 153.632 232.29 155.43C230.934 156.474 229.176 157.114 228.396 157.594C227.607 158.068 226.965 158.778 226.548 159.635C226.326 160.026 226.122 160.525 225.852 161.088C225.493 162.036 224.895 162.86 224.124 163.469C223.985 163.566 223.824 163.623 223.657 163.633C223.491 163.643 223.325 163.607 223.176 163.526C222.522 162.982 222.228 161.792 222.144 159.283C222.042 156.384 221.658 155.821 221.232 155.904C222.114 155.366 222.756 157.357 223.65 158.08Z"
    fill="black"
  />
<path
    opacity="0.2"
    d="M244.368 145.6C244.29 142.688 244.614 139.258 244.176 138.106C243.882 137.325 243.48 137.126 242.976 137.382C243.738 137.274 244.41 138.56 243.966 141.728C243.72 143.482 242.994 146.771 243.366 149.101C243.408 149.098 243.45 149.098 243.492 149.101C244.242 149.286 245.184 150.381 246.222 150.784C245.19 150.15 244.446 148.518 244.368 145.6Z"
    fill="black"
  />
<path
    opacity="0.2"
    d="M236.4 152.557L237.93 151.61C238.465 150.074 238.928 148.51 239.316 146.925C239.916 144.627 240.372 141.926 240.93 140.429C240.606 141.216 240.33 142.022 240.084 142.829C239.49 144.723 237.972 149.504 236.4 152.557Z"
    fill="black"
  />
<path
    opacity="0.5"
    d="M251.4 139.827C250.8 140.902 250.092 142.387 249.084 143.027C247.578 143.955 246.684 141.338 246.198 139.987C246.054 139.597 245.88 139.098 245.664 138.624C246.264 139.994 246.768 142.502 247.134 143.917C247.446 145.12 247.764 145.939 248.646 145.574C249.528 145.21 250.134 143.226 250.5 142.157C250.751 141.36 251.051 140.581 251.4 139.827Z"
    fill="#D9D9D9"
  />
<path
    opacity="0.2"
    d="M251.55 141.626C251.094 143.13 250.884 144.787 250.17 147.206C250.452 146.438 250.71 145.67 251.01 145.03C251.685 143.292 252.925 141.872 254.502 141.03L256.812 139.61C254.586 140.979 253.626 139.93 253.092 139.61C252.558 139.29 252 140.122 251.55 141.626Z"
    fill="black"
  />
<path
    opacity="0.2"
    d="M252.78 139.552C252.348 139.642 251.916 140.41 251.55 141.626C251.094 143.13 250.884 144.787 250.17 147.206C250.452 146.438 250.71 145.67 251.01 145.03C251.226 144.563 251.43 144.16 251.61 143.789C251.694 143.072 251.748 142.445 251.784 142.074C251.922 140.966 252.3 139.923 252.78 139.552Z"
    fill="black"
  />
<path
    opacity="0.2"
    d="M234.75 151.744C232.59 153.075 231.102 152.429 230.088 153.056C229.917 153.164 229.76 153.295 229.62 153.446C230.304 152.806 231.42 153.286 232.278 153.446C233.147 153.548 234.024 153.344 234.774 152.864C235.423 151.942 236.024 150.983 236.574 149.99C236.072 150.689 235.453 151.283 234.75 151.744Z"
    fill="black"
  />
<path
    opacity="0.2"
    d="M222.126 159.296C222.21 161.805 222.504 162.995 223.158 163.539C223.307 163.619 223.473 163.656 223.639 163.646C223.806 163.636 223.967 163.579 224.106 163.482C224.808 162.948 225.36 162.22 225.702 161.376C224.832 162.656 223.524 162.867 223.152 161.651C222.78 160.435 222.768 158.746 222.51 157.594C222.252 156.442 221.958 155.846 221.538 155.821H221.454H221.394H221.358H221.31L221.214 155.866C221.64 155.834 222 156.397 222.126 159.296Z"
    fill="black"
  />
<path
    opacity="0.5"
    d="M218.736 161.28C217.878 162.874 216.936 163.84 214.422 165.382L213.87 165.722C217.044 163.802 218.286 164.275 219.108 162.426C219.93 160.576 220.254 157.478 220.668 156.608C220.008 157.741 219.408 160 218.736 161.28Z"
    fill="#D9D9D9"
  />
<path
    opacity="0.5"
    d="M237.858 149.242C237.418 150.374 236.921 151.481 236.37 152.557C234.57 156.026 233.1 157.382 231.852 158.15C231.001 158.74 229.973 158.968 228.972 158.79C228.35 158.616 227.691 158.677 227.106 158.963C227.847 158.434 228.729 158.174 229.62 158.221C230.616 158.189 232.086 157.722 233.778 155.93C235.47 154.138 237.786 149.389 237.858 149.242Z"
    fill="#D9D9D9"
  />
<path
    d="M229.116 164.768C229.126 164.759 229.139 164.753 229.152 164.753C229.165 164.753 229.178 164.759 229.188 164.768C229.199 164.799 229.199 164.833 229.188 164.864V165.075C229.196 165.12 229.196 165.165 229.188 165.21C229.182 165.229 229.173 165.247 229.16 165.262C229.148 165.277 229.133 165.29 229.116 165.299L228.438 165.722V169.216C228.437 169.262 228.426 169.308 228.408 169.35C228.392 169.387 228.367 169.418 228.336 169.44L228.186 169.53C228.182 169.535 228.177 169.539 228.171 169.542C228.166 169.545 228.159 169.547 228.153 169.547C228.147 169.547 228.14 169.545 228.135 169.542C228.129 169.539 228.124 169.535 228.12 169.53C228.108 169.517 228.099 169.502 228.094 169.486C228.089 169.469 228.087 169.451 228.09 169.434V165.939L227.406 166.362C227.396 166.37 227.383 166.374 227.37 166.374C227.357 166.374 227.344 166.37 227.334 166.362C227.313 166.335 227.302 166.301 227.304 166.266V166.048C227.305 166.004 227.316 165.96 227.334 165.92C227.334 165.875 227.376 165.843 227.406 165.83L229.116 164.768Z"
    fill="#D9D9D9"
  />
<path
    d="M231.492 163.302C231.502 163.294 231.515 163.29 231.528 163.29C231.541 163.29 231.554 163.294 231.564 163.302C231.585 163.329 231.596 163.363 231.594 163.398V167.27C231.593 167.317 231.582 167.363 231.564 167.405C231.55 167.442 231.525 167.474 231.492 167.494L231.342 167.584C231.338 167.589 231.333 167.594 231.327 167.597C231.322 167.599 231.315 167.601 231.309 167.601C231.303 167.601 231.296 167.599 231.291 167.597C231.285 167.594 231.28 167.589 231.276 167.584C231.265 167.553 231.265 167.519 231.276 167.488V165.798L229.992 166.592V168.282C230 168.326 230 168.372 229.992 168.416C229.978 168.454 229.953 168.485 229.92 168.506L229.776 168.595C229.744 168.595 229.72 168.595 229.704 168.595C229.682 168.567 229.671 168.53 229.674 168.493V164.653C229.675 164.608 229.686 164.565 229.704 164.525C229.71 164.505 229.719 164.488 229.732 164.472C229.744 164.457 229.759 164.444 229.776 164.435L229.92 164.339C229.93 164.331 229.943 164.326 229.956 164.326C229.969 164.326 229.982 164.331 229.992 164.339C230.003 164.37 230.003 164.404 229.992 164.435V166.08L231.276 165.286V163.642C231.268 163.599 231.268 163.556 231.276 163.514C231.288 163.477 231.311 163.445 231.342 163.424L231.492 163.302Z"
    fill="#D9D9D9"
  />
<path
    d="M233.796 165.542C233.805 165.535 233.817 165.53 233.829 165.53C233.841 165.53 233.853 165.535 233.862 165.542C233.874 165.555 233.883 165.57 233.888 165.586C233.893 165.603 233.895 165.621 233.892 165.638V165.856C233.894 165.901 233.884 165.945 233.862 165.984C233.848 166.021 233.825 166.054 233.796 166.08L232.32 166.989C232.31 166.997 232.297 167.002 232.284 167.002C232.271 167.002 232.258 166.997 232.248 166.989C232.227 166.962 232.216 166.928 232.218 166.893V163.053C232.219 163.006 232.23 162.961 232.248 162.918C232.248 162.874 232.29 162.842 232.32 162.829L233.766 161.939C233.775 161.93 233.787 161.925 233.799 161.925C233.811 161.925 233.823 161.93 233.832 161.939C233.838 161.954 233.842 161.971 233.842 161.987C233.842 162.004 233.838 162.02 233.832 162.035V162.253C233.843 162.297 233.843 162.343 233.832 162.387C233.818 162.423 233.795 162.454 233.766 162.477L232.566 163.213V164.493L233.688 163.802C233.697 163.794 233.709 163.79 233.721 163.79C233.733 163.79 233.745 163.794 233.754 163.802C233.775 163.828 233.786 163.863 233.784 163.898V164.115C233.783 164.16 233.773 164.203 233.754 164.243C233.74 164.281 233.717 164.314 233.688 164.339L232.566 165.024V166.304L233.796 165.542Z"
    fill="#D9D9D9"
  />
<path
    d="M236.058 160.435C236.173 160.352 236.309 160.308 236.448 160.307C236.552 160.311 236.653 160.344 236.742 160.403C236.82 160.467 236.882 160.551 236.922 160.646C236.96 160.742 236.983 160.844 236.988 160.947C236.996 160.983 236.996 161.02 236.988 161.056C236.975 161.085 236.954 161.109 236.928 161.126L236.778 161.222C236.759 161.23 236.737 161.23 236.718 161.222C236.718 161.222 236.682 161.19 236.664 161.146C236.648 161.105 236.628 161.066 236.604 161.03C236.577 160.983 236.537 160.945 236.49 160.922C236.439 160.889 236.381 160.873 236.322 160.877C236.236 160.88 236.153 160.909 236.082 160.96C236.011 161.003 235.947 161.057 235.89 161.12C235.825 161.184 235.768 161.257 235.722 161.338C235.672 161.422 235.632 161.512 235.602 161.606C235.573 161.703 235.558 161.805 235.56 161.907C235.555 161.989 235.57 162.07 235.602 162.144C235.617 162.171 235.637 162.194 235.661 162.213C235.684 162.232 235.711 162.245 235.74 162.253C235.817 162.269 235.897 162.269 235.974 162.253C236.091 162.242 236.207 162.225 236.322 162.202C236.437 162.183 236.555 162.183 236.67 162.202C236.758 162.21 236.841 162.246 236.91 162.304C236.973 162.363 237.019 162.441 237.042 162.528C237.07 162.652 237.084 162.778 237.084 162.906C237.084 163.087 237.06 163.268 237.012 163.443C236.964 163.621 236.897 163.793 236.814 163.955C236.729 164.115 236.624 164.261 236.502 164.39C236.386 164.526 236.251 164.641 236.1 164.73C235.983 164.81 235.849 164.859 235.71 164.87C235.603 164.88 235.496 164.853 235.404 164.794C235.317 164.738 235.247 164.659 235.2 164.563C235.149 164.456 235.122 164.338 235.122 164.218C235.114 164.184 235.114 164.149 235.122 164.115C235.134 164.085 235.152 164.059 235.176 164.038L235.326 163.949C235.336 163.944 235.348 163.941 235.359 163.941C235.37 163.941 235.382 163.944 235.392 163.949C235.392 163.949 235.428 163.981 235.44 164.026C235.456 164.075 235.478 164.123 235.506 164.166C235.539 164.215 235.582 164.254 235.632 164.282C235.691 164.307 235.755 164.318 235.818 164.314C235.91 164.301 235.999 164.266 236.076 164.211C236.165 164.158 236.246 164.092 236.316 164.013C236.395 163.936 236.464 163.848 236.52 163.75C236.579 163.658 236.626 163.556 236.658 163.45C236.693 163.349 236.712 163.243 236.712 163.136C236.719 163.054 236.698 162.972 236.652 162.906C236.61 162.852 236.549 162.817 236.484 162.81C236.395 162.79 236.303 162.79 236.214 162.81C236.095 162.824 235.977 162.845 235.86 162.874C235.757 162.893 235.651 162.893 235.548 162.874C235.467 162.856 235.394 162.811 235.338 162.746C235.281 162.676 235.242 162.592 235.224 162.502C235.199 162.385 235.186 162.265 235.188 162.144C235.189 161.987 235.207 161.83 235.242 161.677C235.279 161.513 235.333 161.354 235.404 161.203C235.477 161.051 235.568 160.909 235.674 160.781C235.784 160.645 235.914 160.528 236.058 160.435Z"
    fill="#D9D9D9"
  />
<path
    d="M237.438 161.21C237.439 160.982 237.462 160.754 237.504 160.531C237.55 160.311 237.616 160.097 237.702 159.891C237.786 159.698 237.891 159.515 238.014 159.347C238.135 159.193 238.279 159.062 238.44 158.957C238.57 158.87 238.719 158.824 238.872 158.822C238.99 158.833 239.1 158.887 239.184 158.976C239.277 159.091 239.345 159.226 239.382 159.373C239.427 159.565 239.45 159.763 239.448 159.962C239.448 160.314 239.448 160.672 239.448 161.03C239.445 161.258 239.421 161.486 239.376 161.709C239.332 161.929 239.265 162.144 239.178 162.349C239.098 162.542 238.993 162.723 238.866 162.886C238.747 163.043 238.603 163.175 238.44 163.277C238.313 163.364 238.165 163.41 238.014 163.411C237.956 163.409 237.899 163.394 237.846 163.368C237.794 163.341 237.747 163.304 237.708 163.258C237.609 163.144 237.541 163.005 237.51 162.854C237.459 162.665 237.435 162.469 237.438 162.272C237.426 161.92 237.426 161.568 237.438 161.21ZM239.106 160.211C239.106 160.057 239.085 159.905 239.046 159.757C239.027 159.656 238.978 159.564 238.908 159.494C238.881 159.467 238.849 159.445 238.814 159.431C238.779 159.417 238.741 159.41 238.704 159.411C238.611 159.42 238.521 159.451 238.44 159.501C238.346 159.567 238.259 159.644 238.182 159.731C238.099 159.831 238.03 159.943 237.978 160.064C237.916 160.203 237.867 160.349 237.834 160.499C237.803 160.672 237.785 160.848 237.78 161.024C237.78 161.21 237.78 161.376 237.78 161.536C237.78 161.696 237.78 161.856 237.78 162.035C237.782 162.188 237.8 162.341 237.834 162.49C237.859 162.589 237.909 162.68 237.978 162.752C238.005 162.78 238.037 162.801 238.072 162.815C238.107 162.83 238.144 162.836 238.182 162.835C238.274 162.828 238.363 162.794 238.44 162.739C238.54 162.679 238.629 162.601 238.704 162.509C238.788 162.41 238.857 162.298 238.908 162.176C238.972 162.04 239.018 161.896 239.046 161.747C239.083 161.573 239.103 161.395 239.106 161.216C239.106 161.037 239.106 160.864 239.106 160.71C239.106 160.557 239.106 160.39 239.106 160.211Z"
    fill="#D9D9D9"
  />
<path
    d="M241.662 161.235C241.626 161.235 241.602 161.235 241.578 161.235C241.553 161.209 241.533 161.179 241.518 161.146L240.318 158.944V161.92C240.317 161.966 240.306 162.012 240.288 162.054C240.276 162.091 240.253 162.123 240.222 162.144L240.072 162.24C240.062 162.248 240.049 162.253 240.036 162.253C240.023 162.253 240.01 162.248 240 162.24C239.989 162.209 239.989 162.175 240 162.144V158.272C239.992 158.228 239.992 158.182 240 158.138C240.006 158.118 240.015 158.1 240.028 158.085C240.04 158.07 240.055 158.057 240.072 158.048L240.198 157.965C240.234 157.965 240.258 157.965 240.282 157.965C240.305 157.99 240.325 158.018 240.342 158.048L241.542 160.25V157.306C241.543 157.259 241.554 157.213 241.572 157.171C241.584 157.134 241.607 157.103 241.638 157.082L241.788 156.986C241.798 156.977 241.811 156.973 241.824 156.973C241.837 156.973 241.85 156.977 241.86 156.986C241.871 157.016 241.871 157.051 241.86 157.082V160.954C241.868 160.998 241.868 161.044 241.86 161.088C241.854 161.107 241.845 161.125 241.832 161.14C241.82 161.156 241.805 161.168 241.788 161.178L241.662 161.235Z"
    fill="#D9D9D9"
  />
<path
    d="M242.4 158.125C242.403 157.91 242.425 157.695 242.466 157.485C242.509 157.264 242.575 157.049 242.664 156.845C242.746 156.645 242.855 156.46 242.988 156.294C243.117 156.133 243.271 155.997 243.444 155.891C243.573 155.8 243.722 155.747 243.876 155.738C243.99 155.737 244.101 155.776 244.194 155.846C244.277 155.912 244.341 156 244.38 156.102C244.421 156.206 244.445 156.316 244.452 156.429C244.46 156.462 244.46 156.498 244.452 156.531C244.44 156.563 244.419 156.59 244.392 156.608L244.242 156.698C244.188 156.736 244.152 156.736 244.14 156.698C244.112 156.626 244.078 156.557 244.038 156.493C244.007 156.436 243.961 156.389 243.906 156.358C243.849 156.327 243.784 156.316 243.72 156.326C243.63 156.342 243.545 156.377 243.468 156.429C243.366 156.493 243.273 156.572 243.192 156.666C243.105 156.769 243.032 156.886 242.976 157.011C242.907 157.148 242.857 157.295 242.826 157.446C242.79 157.617 242.77 157.79 242.766 157.965C242.766 158.144 242.766 158.31 242.766 158.464C242.766 158.618 242.766 158.778 242.766 158.957C242.767 159.115 242.787 159.272 242.826 159.424C242.851 159.527 242.903 159.621 242.976 159.693C243.005 159.721 243.039 159.742 243.076 159.755C243.114 159.769 243.153 159.773 243.192 159.77C243.29 159.759 243.385 159.724 243.468 159.667C243.569 159.606 243.66 159.528 243.738 159.437C243.831 159.342 243.907 159.229 243.96 159.104C244.029 158.965 244.079 158.816 244.11 158.662C244.148 158.48 244.166 158.293 244.164 158.106V157.939L243.636 158.259C243.627 158.268 243.615 158.273 243.603 158.273C243.591 158.273 243.579 158.268 243.57 158.259C243.549 158.233 243.538 158.198 243.54 158.163V157.952C243.541 157.905 243.552 157.86 243.57 157.818C243.582 157.781 243.605 157.749 243.636 157.728L244.41 157.248C244.42 157.24 244.433 157.235 244.446 157.235C244.459 157.235 244.472 157.24 244.482 157.248C244.493 157.279 244.493 157.313 244.482 157.344V157.914C244.482 158.15 244.458 158.386 244.41 158.618C244.365 158.839 244.297 159.053 244.206 159.258C244.123 159.455 244.014 159.638 243.882 159.802C243.756 159.96 243.606 160.094 243.438 160.198C243.303 160.294 243.145 160.348 242.982 160.352C242.921 160.351 242.861 160.336 242.805 160.31C242.75 160.284 242.7 160.246 242.658 160.198C242.564 160.083 242.498 159.944 242.466 159.795C242.418 159.599 242.394 159.397 242.394 159.194C242.398 158.839 242.4 158.483 242.4 158.125Z"
    fill="#D9D9D9"
  />
</svg>
