<svg
  width="300"
  height="320"
  viewBox="0 0 300 320"
  fill="none"
  xmlns="http://www.w3.org/2000/svg"
>
<path
    d="M251.484 147.296L256.284 139.053L253.92 137.491C253.581 137.264 253.307 136.941 253.129 136.558C252.951 136.175 252.876 135.747 252.912 135.322C252.952 134.839 252.968 134.354 252.96 133.869C252.947 133.443 253.046 133.021 253.246 132.652C253.445 132.282 253.736 131.979 254.088 131.776L256.542 130.374L252.24 121.818L249.786 123.226C249.432 123.424 249.033 123.515 248.634 123.486C248.235 123.458 247.85 123.313 247.524 123.066C247.153 122.79 246.768 122.536 246.372 122.304C246.018 122.103 245.724 121.8 245.523 121.431C245.321 121.061 245.221 120.639 245.232 120.211L245.322 117.242L236.226 116.941L236.142 119.923C236.126 120.35 235.999 120.763 235.776 121.117C235.552 121.47 235.241 121.751 234.876 121.926C234.672 122.029 234.474 122.138 234.276 122.253C234.078 122.368 233.886 122.483 233.676 122.605C233.336 122.826 232.946 122.943 232.548 122.943C232.15 122.943 231.76 122.826 231.42 122.605L229.02 121.024L224.22 129.274L226.59 130.842C226.93 131.068 227.203 131.391 227.38 131.774C227.557 132.158 227.631 132.586 227.592 133.011C227.552 133.492 227.536 133.975 227.544 134.458C227.555 134.883 227.456 135.304 227.257 135.674C227.058 136.043 226.767 136.346 226.416 136.55L223.962 137.952L228.264 146.502L230.718 145.101C231.071 144.903 231.468 144.813 231.866 144.84C232.264 144.867 232.647 145.01 232.974 145.254C233.345 145.53 233.73 145.784 234.126 146.016C234.48 146.217 234.775 146.519 234.978 146.889C235.18 147.258 235.282 147.681 235.272 148.109L235.2 151.104L244.29 151.405L244.38 148.429C244.396 148.002 244.523 147.589 244.746 147.235C244.97 146.882 245.281 146.601 245.646 146.426C245.844 146.323 246.048 146.214 246.246 146.099C246.444 145.984 246.636 145.869 246.846 145.747C247.187 145.523 247.579 145.404 247.98 145.404C248.38 145.404 248.773 145.523 249.114 145.747L251.484 147.296ZM243.786 141.178C242.487 141.919 241.01 142.234 239.543 142.08C238.076 141.927 236.685 141.313 235.545 140.317C234.405 139.32 233.568 137.985 233.14 136.481C232.711 134.977 232.71 133.371 233.137 131.866C233.564 130.361 234.4 129.025 235.539 128.027C236.678 127.029 238.069 126.414 239.536 126.259C241.002 126.104 242.479 126.417 243.779 127.157C245.079 127.898 246.145 129.033 246.84 130.419C247.302 131.339 247.59 132.348 247.687 133.387C247.784 134.425 247.688 135.475 247.404 136.474C247.12 137.473 246.655 138.403 246.034 139.21C245.413 140.017 244.649 140.686 243.786 141.178Z"
    fill="#D9D9D9"
  />
<path
    d="M95.634 266.669L102.06 255.443L102.09 255.571L98.7 253.357C98.1342 252.929 97.7249 252.304 97.542 251.59C97.4218 250.883 97.3916 250.162 97.452 249.446V248.397C97.4483 247.838 97.5772 247.287 97.8269 246.796C98.0766 246.305 98.4389 245.889 98.88 245.587L102.378 243.571L102.312 243.808L96.456 232.23L96.72 232.314L93.216 234.323C92.7284 234.555 92.1938 234.651 91.6618 234.603C91.1299 234.555 90.6181 234.364 90.174 234.048L89.34 233.498L88.5 232.947C88.0342 232.666 87.6432 232.263 87.3639 231.776C87.0847 231.289 86.9264 230.734 86.904 230.163L87.012 225.92L87.24 226.176L74.916 225.798L75.186 225.53L75.066 229.773C75.0087 230.353 74.8133 230.908 74.4982 231.386C74.1832 231.863 73.759 232.246 73.266 232.499L72.39 232.979L71.532 233.498C71.0616 233.794 70.5277 233.957 69.9814 233.97C69.4352 233.984 68.8948 233.848 68.412 233.574L65.016 231.354L65.43 231.251L58.95 242.413L58.866 242.01L62.238 244.269C62.6767 244.607 63.0275 245.059 63.2573 245.582C63.4872 246.105 63.5886 246.681 63.552 247.258L63.516 248.307L63.48 249.357C63.4813 249.932 63.3461 250.499 63.0869 251.003C62.8278 251.508 62.4532 251.934 61.998 252.243L58.488 254.246L58.584 253.907L64.386 265.517L64.11 265.427L67.62 263.437C68.2712 263.128 69.0018 263.067 69.69 263.264C70.3302 263.513 70.9357 263.853 71.49 264.275L72.33 264.832C72.7881 265.113 73.1716 265.513 73.4445 265.996C73.7174 266.479 73.8707 267.027 73.89 267.59L73.764 271.827L73.602 271.648L85.926 272.115L85.812 272.23L85.968 268C86.064 266.451 87.33 265.523 88.542 264.992C89.628 264.23 91.056 263.648 92.292 264.422L95.646 266.669H95.634ZM95.634 266.669L92.25 264.474C91.008 263.725 89.67 264.32 88.584 265.114C87.384 265.664 86.184 266.534 86.124 268.032L86.022 272.25V272.365H85.914L73.584 272H73.416V271.827L73.524 267.61C73.5022 267.111 73.3633 266.627 73.1201 266.201C72.8768 265.775 72.5371 265.421 72.132 265.171L71.28 264.621L70.428 264.064C70.0413 263.788 69.5952 263.62 69.1314 263.578C68.6676 263.535 68.2013 263.619 67.776 263.821L64.296 265.818L64.116 265.92L64.02 265.728L58.2 254.144L58.092 253.926L58.296 253.805L61.77 251.802C62.1541 251.54 62.4695 251.178 62.6867 250.75C62.904 250.323 63.0159 249.843 63.012 249.357V248.288V247.226C63.043 246.743 62.9579 246.259 62.7647 245.821C62.5715 245.384 62.2766 245.006 61.908 244.723L58.548 242.502L58.32 242.349L58.464 242.106L64.938 230.912L65.094 230.643L65.346 230.81L68.706 233.03C69.1034 233.254 69.5477 233.366 69.997 233.356C70.4463 233.346 70.8858 233.214 71.274 232.973L72.144 232.448L73.032 231.974C73.4385 231.764 73.7882 231.447 74.0485 231.053C74.3087 230.659 74.471 230.201 74.52 229.722L74.652 225.51V225.229H74.91L87.234 225.664H87.468V225.92L87.336 230.131C87.3554 230.623 87.491 231.101 87.7301 231.522C87.9693 231.943 88.3043 232.292 88.704 232.538L89.55 233.094L90.396 233.664C90.7802 233.938 91.2228 234.104 91.6831 234.148C92.1434 234.192 92.6066 234.111 93.03 233.914L96.522 231.936L96.696 231.84L96.786 232.019L102.6 243.642L102.678 243.795L102.534 243.878L99.048 245.869C98.6495 246.14 98.3213 246.513 98.0937 246.955C97.8662 247.397 97.7466 247.893 97.746 248.397C97.746 248.922 97.698 249.99 97.668 250.515C97.6336 251.024 97.72 251.533 97.9193 251.996C98.1186 252.459 98.4243 252.861 98.808 253.165L102.156 255.418L102.228 255.462L102.186 255.539L95.586 266.669H95.634Z"
    fill="#D9D9D9"
  />
<path
    d="M85.2 258.368C77.244 262.938 68.01 254.957 70.518 245.677C70.9078 244.286 71.5518 242.99 72.4129 241.866C73.274 240.741 74.3352 239.809 75.5354 239.124C76.7355 238.439 78.051 238.013 79.4059 237.873C80.7608 237.732 82.1284 237.879 83.43 238.304C92.07 241.21 93.168 253.83 85.2 258.368ZM85.2 258.368C93 253.818 91.8 241.504 83.28 238.829C80.7819 238.062 78.1019 238.365 75.8103 239.674C73.5187 240.983 71.7964 243.194 71.01 245.837C68.4 254.886 77.322 262.803 85.2 258.368Z"
    fill="#D9D9D9"
  />
<path
    d="M47.202 224.416L52.722 221.018L51.75 219.213C51.6095 218.954 51.54 218.659 51.5496 218.36C51.5591 218.061 51.6473 217.771 51.804 217.523C51.972 217.235 52.134 216.941 52.278 216.64C52.4023 216.373 52.5938 216.147 52.8311 215.989C53.0684 215.831 53.3421 215.746 53.622 215.744H55.572V208.947H53.622C53.3421 208.945 53.0684 208.86 52.8311 208.702C52.5938 208.544 52.4023 208.319 52.278 208.051C52.134 207.75 51.972 207.456 51.804 207.174C51.6474 206.925 51.5594 206.634 51.5499 206.335C51.5403 206.035 51.6096 205.738 51.75 205.478L52.722 203.68L47.202 200.282L46.23 202.093C46.0863 202.35 45.8784 202.56 45.6294 202.699C45.3805 202.838 45.1003 202.901 44.82 202.88H44.352H43.884C43.606 202.901 43.3282 202.838 43.0814 202.701C42.8346 202.563 42.6285 202.355 42.486 202.099L41.502 200.282L36 203.68L36.978 205.485C37.1174 205.745 37.1857 206.042 37.1751 206.342C37.1645 206.642 37.0754 206.932 36.918 207.181C36.75 207.462 36.588 207.757 36.444 208.058C36.3193 208.324 36.1276 208.549 35.8903 208.706C35.6529 208.863 35.3793 208.946 35.1 208.947H33.132V215.744H35.082C35.3618 215.746 35.6356 215.831 35.8728 215.989C36.1101 216.147 36.3016 216.373 36.426 216.64C36.57 216.941 36.732 217.235 36.9 217.517C37.0574 217.765 37.1465 218.056 37.1571 218.356C37.1677 218.655 37.0994 218.952 36.96 219.213L36 221.018L41.52 224.416L42.498 222.605C42.6402 222.349 42.8461 222.14 43.0928 222.001C43.3396 221.862 43.6175 221.798 43.896 221.818H44.37H44.838C45.1188 221.798 45.3991 221.862 45.648 222.002C45.8969 222.142 46.1045 222.353 46.248 222.611L47.202 224.416ZM44.352 217.914C43.3193 217.914 42.3098 217.587 41.4513 216.975C40.5927 216.363 39.9236 215.493 39.5287 214.475C39.1338 213.457 39.0308 212.337 39.2327 211.257C39.4346 210.177 39.9324 209.185 40.663 208.406C41.3936 207.628 42.3243 207.098 43.3373 206.884C44.3502 206.67 45.4 206.781 46.3537 207.203C47.3074 207.626 48.1223 208.34 48.6951 209.257C49.268 210.173 49.5731 211.25 49.572 212.352C49.572 213.083 49.4369 213.807 49.1745 214.482C48.9121 215.157 48.5275 215.77 48.0427 216.287C47.5579 216.803 46.9824 217.213 46.3491 217.492C45.7158 217.771 45.0372 217.914 44.352 217.914Z"
    fill="#D9D9D9"
  />
<path
    d="M109.242 76.1088L106.056 70.2208L104.4 71.264C104.155 71.4108 103.878 71.4831 103.597 71.473C103.317 71.4628 103.045 71.3706 102.81 71.2064C102.544 71.0184 102.267 70.8474 101.982 70.6944C101.732 70.5615 101.522 70.357 101.374 70.1038C101.227 69.8506 101.149 69.5588 101.148 69.2608V67.2H94.74V69.28C94.7393 69.578 94.6609 69.8698 94.5136 70.123C94.3663 70.3762 94.1559 70.5807 93.906 70.7136C93.6214 70.868 93.345 71.0389 93.078 71.2256C92.8445 71.3899 92.5731 71.4823 92.2936 71.4924C92.0141 71.5026 91.7373 71.4302 91.494 71.2832L89.802 70.24L86.616 76.128L88.314 77.1712C88.5565 77.322 88.7547 77.5422 88.8862 77.8068C89.0177 78.0715 89.0772 78.37 89.058 78.6688C89.058 78.8352 89.058 79.0016 89.058 79.168C89.058 79.3344 89.058 79.5008 89.058 79.6672C89.0757 79.965 89.0162 80.2623 88.886 80.5265C88.7558 80.7907 88.56 81.0115 88.32 81.1648L86.616 82.208L89.802 88.096L91.494 87.0528C91.7386 86.9055 92.0167 86.8335 92.2975 86.8448C92.5782 86.8561 92.8504 86.9503 93.084 87.1168C93.349 87.3014 93.6234 87.4702 93.906 87.6224C94.1559 87.7554 94.3663 87.9599 94.5136 88.213C94.6609 88.4662 94.7393 88.7581 94.74 89.056V91.1424H101.118V89.056C101.119 88.7581 101.197 88.4662 101.344 88.213C101.492 87.9599 101.702 87.7554 101.952 87.6224C102.234 87.4702 102.509 87.3014 102.774 87.1168C103.007 86.9503 103.28 86.8561 103.56 86.8448C103.841 86.8335 104.119 86.9055 104.364 87.0528L106.056 88.096L109.242 82.208L107.55 81.1648C107.309 81.0139 107.112 80.7947 106.98 80.5314C106.849 80.2682 106.789 79.9712 106.806 79.6736C106.806 79.5072 106.806 79.3408 106.806 79.168C106.806 78.9952 106.806 78.8352 106.806 78.6688C106.787 78.37 106.846 78.0715 106.978 77.8068C107.109 77.5422 107.307 77.322 107.55 77.1712L109.242 76.1088ZM103.152 79.1488C103.152 80.2501 102.846 81.3266 102.272 82.2422C101.699 83.1579 100.883 83.8715 99.9296 84.293C98.9757 84.7144 97.9262 84.8247 96.9136 84.6098C95.901 84.395 94.9709 83.8647 94.2409 83.086C93.5108 82.3073 93.0137 81.3152 92.8123 80.2351C92.6109 79.155 92.7142 78.0354 93.1093 77.018C93.5044 76.0006 94.1735 75.131 95.0319 74.5192C95.8903 73.9074 96.8995 73.5808 97.932 73.5808C99.3164 73.5808 100.644 74.1674 101.623 75.2116C102.602 76.2558 103.152 77.6721 103.152 79.1488Z"
    fill="#D9D9D9"
  />
<path
    d="M270.378 199.386L267.114 193.549L267.24 193.581L265.47 194.701C265.22 194.832 264.944 194.894 264.666 194.88C264.388 194.867 264.117 194.779 263.88 194.624L262.992 194.093C262.74 193.954 262.526 193.749 262.369 193.497C262.213 193.245 262.12 192.954 262.098 192.653V190.458L262.272 190.643L255.9 190.694L256.122 190.458V192.659C255.892 193.421 255.405 194.066 254.756 194.468C254.106 194.869 253.341 195 252.606 194.835L250.806 193.741L251.166 193.638L247.998 199.533L247.896 199.13L249.696 200.224C250.2 200.832 250.479 201.617 250.479 202.429C250.479 203.241 250.2 204.025 249.696 204.634L247.896 205.747L248.01 205.306L251.178 211.206L250.788 211.091L252.588 209.997C252.961 209.804 253.385 209.754 253.788 209.856C254.289 210.059 254.766 210.323 255.21 210.643C255.478 210.795 255.705 211.017 255.87 211.288C256.036 211.559 256.135 211.87 256.158 212.192V214.4L255.9 214.118H262.272L262.032 214.374V212.173C262.062 211.751 262.227 211.353 262.5 211.046C262.914 210.693 263.363 210.388 263.838 210.138C264.086 209.975 264.369 209.883 264.66 209.869C264.951 209.856 265.24 209.922 265.5 210.061L267.3 211.168L267.06 211.238L270.3 205.382L270.342 205.549L268.578 204.429C268.298 204.193 268.087 203.877 267.969 203.517C267.851 203.158 267.832 202.771 267.912 202.4C267.841 202.034 267.869 201.654 267.992 201.304C268.115 200.954 268.329 200.648 268.608 200.422L270.408 199.36L270.378 199.386ZM270.378 199.386L268.626 200.512C268.365 200.738 268.17 201.039 268.063 201.379C267.957 201.719 267.944 202.084 268.026 202.432C267.955 202.776 267.977 203.134 268.09 203.465C268.202 203.796 268.401 204.086 268.662 204.301L270.462 205.37L270.564 205.427L270.504 205.536L267.378 211.456L267.288 211.616L267.138 211.526L265.338 210.458C265.136 210.355 264.912 210.309 264.689 210.324C264.465 210.338 264.249 210.413 264.06 210.541C263.424 210.97 262.512 211.29 262.482 212.237V214.406V214.656H262.242L255.87 214.688H255.6C255.6 214.56 255.6 212.429 255.6 212.237C255.6 211.533 255 211.168 254.484 210.886C253.968 210.605 253.404 210.208 252.834 210.541L250.83 211.776L250.686 211.514L247.488 205.632L247.338 205.357L249.36 204.115C249.906 203.77 249.93 203.04 249.888 202.432V201.882C249.897 201.658 249.853 201.436 249.76 201.235C249.667 201.035 249.527 200.863 249.354 200.736L247.596 199.648L247.356 199.501L247.494 199.245L250.692 193.363L250.824 193.12L251.052 193.261L252.81 194.349C253.41 194.682 254.01 194.349 254.484 194.003C254.768 193.855 255.034 193.67 255.276 193.453C255.475 193.23 255.596 192.941 255.618 192.634V190.464V190.221H255.84L262.212 190.272H262.386V190.458V192.627C262.402 192.874 262.476 193.112 262.6 193.32C262.725 193.528 262.897 193.699 263.1 193.818C263.322 193.958 263.772 194.234 263.988 194.381C264.187 194.518 264.415 194.599 264.651 194.616C264.888 194.632 265.124 194.585 265.338 194.477L267.138 193.414L267.216 193.37L267.258 193.453L270.366 199.386H270.378Z"
    fill="#D9D9D9"
  />
<path
    d="M264.288 202.426C264.33 207.405 258.552 210.048 255.192 206.554C254.674 206.017 254.262 205.375 253.981 204.665C253.7 203.955 253.555 203.193 253.555 202.422C253.555 201.652 253.7 200.889 253.981 200.18C254.262 199.47 254.674 198.828 255.192 198.291C258.558 194.797 264.33 197.453 264.288 202.426ZM264.288 202.426C264.288 197.594 258.642 195.181 255.558 198.682C254.658 199.691 254.156 201.03 254.156 202.422C254.156 203.815 254.658 205.154 255.558 206.163C258.63 209.67 264.318 207.258 264.288 202.426Z"
    fill="#D9D9D9"
  />
<path
    d="M57.828 161.35L49.53 168.07L49.398 167.949C48.1349 166.759 46.8087 165.648 45.426 164.621C44.748 164.186 43.728 164.102 42.426 163.981C39.474 163.731 35.016 163.341 30.282 158.099C27.552 155.066 25.998 150.131 26.334 145.523C26.5222 143.348 27.1318 141.239 28.1242 139.328C29.1166 137.417 30.4701 135.747 32.099 134.424C33.7279 133.1 35.5968 132.152 37.5872 131.639C39.5776 131.126 41.6462 131.059 43.662 131.443C47.916 132.333 51.966 135.283 53.976 138.874C57.45 145.152 56.598 149.837 56.034 152.954C55.788 154.31 55.596 155.386 55.806 156.198C56.3638 157.894 57.0108 159.554 57.744 161.171L57.828 161.35ZM49.554 167.462L57.276 161.203C56.5539 159.62 55.9227 157.991 55.386 156.326C55.146 155.411 55.35 154.291 55.608 152.87C56.208 149.67 56.988 145.261 53.604 139.142C51.654 135.622 47.718 132.794 43.584 131.93C41.6313 131.56 39.6281 131.627 37.7006 132.124C35.7731 132.622 33.9631 133.54 32.3847 134.82C30.8064 136.101 29.4939 137.717 28.5299 139.565C27.566 141.414 26.9715 143.456 26.784 145.562C26.46 150.042 27.984 154.842 30.612 157.779C35.232 162.899 39.414 163.258 42.474 163.539C43.824 163.654 44.874 163.744 45.66 164.237C47.0172 165.228 48.3175 166.305 49.554 167.462Z"
    fill="#D9D9D9"
  />
<path
    d="M39.8758 154.104L39.4325 154.626L51.4913 166.289L51.9347 165.767L39.8758 154.104Z"
    fill="#D9D9D9"
  />
<path
    d="M48.6344 147.168L48.0446 147.484L55.3484 163.001L55.9382 162.685L48.6344 147.168Z"
    fill="#D9D9D9"
  />
<path
    d="M47.244 155.398C46.488 156.006 45.33 155.821 44.244 155.296C44.2352 155.475 44.1911 155.651 44.1146 155.81C44.0381 155.97 43.9309 156.111 43.8 156.224C42.6 157.216 40.2 154.944 40.092 154.848L40.314 154.586C40.914 155.194 42.762 156.621 43.602 155.942C43.7012 155.835 43.7781 155.707 43.8277 155.565C43.8773 155.424 43.8985 155.274 43.89 155.123C43.0057 154.66 42.2212 154.006 41.586 153.203C41.046 152.442 40.986 151.789 41.478 151.405C41.6138 151.287 41.7777 151.211 41.9514 151.186C42.1251 151.161 42.3018 151.188 42.462 151.264C43.338 151.654 44.046 153.261 44.196 154.528C44.196 154.662 44.196 154.79 44.196 154.918C45.252 155.443 46.344 155.635 46.992 155.11C47.592 154.63 47.694 153.645 47.52 152.55C46.57 152.294 45.7337 151.692 45.156 150.848C44.466 149.882 44.382 148.998 44.94 148.55C45.39 148.179 45.99 148.442 46.578 149.267C47.1649 150.163 47.5733 151.178 47.778 152.25C48.1359 152.291 48.4951 152.184 48.78 151.949C49.5 151.373 48.816 149.005 48.498 148.109L48.804 147.981C48.93 148.326 50.004 151.36 48.984 152.205C48.6558 152.469 48.2482 152.597 47.838 152.563C48.072 153.76 47.94 154.829 47.244 155.398ZM45.186 148.864C44.712 149.248 45.042 150.08 45.468 150.675C45.98 151.403 46.6905 151.944 47.502 152.224C47.2988 151.25 46.9109 150.331 46.362 149.523C46.146 149.216 45.594 148.538 45.162 148.883L45.186 148.864ZM41.706 151.68C41.304 152 41.574 152.563 41.874 152.96C42.4347 153.684 43.1264 154.281 43.908 154.714V154.541C43.77 153.395 43.11 151.891 42.378 151.565C42.2727 151.51 42.1547 151.489 42.0385 151.505C41.9222 151.521 41.8129 151.573 41.724 151.654L41.706 151.68Z"
    fill="#D9D9D9"
  />
<path
    d="M60 162.253L49.8 170.547L48.066 168.115L58.302 159.795L60 162.253ZM49.86 169.888L59.4 162.163L58.2 160.48L48.654 168.205L49.86 169.888Z"
    fill="#D9D9D9"
  />
<path
    d="M61.71 164.646L51.51 172.966L49.77 170.534L60.006 162.214L61.71 164.646ZM51.564 172.282L61.092 164.557L59.892 162.874L50.364 170.598L51.564 172.282Z"
    fill="#D9D9D9"
  />
<path
    d="M63.414 167.04L53.214 175.36L51.48 172.928L61.68 164.608L63.414 167.04ZM53.268 174.675L62.796 166.95L61.596 165.267L52.068 172.992L53.268 174.675Z"
    fill="#D9D9D9"
  />
<path
    d="M270.396 159.68L265.278 151.84L265.392 151.731C265.488 151.642 267.648 149.638 269.964 149.933C270.549 150.025 271.108 150.252 271.602 150.598C272.096 150.944 272.514 151.4 272.826 151.936C273.185 152.441 273.44 153.022 273.574 153.639C273.707 154.257 273.716 154.898 273.6 155.52C273.084 157.978 270.6 159.514 270.522 159.578L270.396 159.68ZM265.74 151.898L270.492 159.187C271.014 158.835 272.862 157.44 273.276 155.456C273.382 154.881 273.371 154.288 273.245 153.717C273.119 153.147 272.88 152.611 272.544 152.147C272.259 151.654 271.877 151.233 271.424 150.914C270.972 150.594 270.459 150.384 269.922 150.298C268.056 150.061 266.22 151.494 265.74 151.898Z"
    fill="#D9D9D9"
  />
<path
    d="M237.516 184.902L237.312 184.602L270.396 159.251L265.656 151.981L232.578 177.331L232.374 177.03L265.734 151.462L270.87 159.341L270.732 159.443L237.516 184.902Z"
    fill="#D9D9D9"
  />
<path
    d="M269.862 161.062L263.904 151.923L265.5 150.694L271.464 159.84L269.862 161.062ZM264.378 152.006L269.946 160.55L270.984 159.75L265.416 151.213L264.378 152.006Z"
    fill="#D9D9D9"
  />
<path
    d="M268.404 162.182L262.44 153.037L264.042 151.814L270 160.954L268.404 162.182ZM262.92 153.126L268.488 161.664L269.526 160.87L263.958 152.32L262.92 153.126Z"
    fill="#D9D9D9"
  />
<path
    d="M229.332 185.254L232.38 177.139L232.518 177.184L233.778 177.306H233.982L233.652 178.643L234.936 178.771L234.612 180.109L235.89 180.237L235.566 181.574L236.838 181.683L236.52 183.04L237.588 183.13H237.786L237.396 184.819L229.332 185.254ZM232.596 177.574L229.854 184.87L231.492 184.8L237.12 184.525L237.354 183.514L236.286 183.418H236.082L236.4 182.067L235.128 181.958L235.458 180.614L234.174 180.486L234.498 179.149L233.22 179.021L233.544 177.69L232.596 177.574Z"
    fill="#D9D9D9"
  />
<path
    d="M229.512 185.05L230.748 181.792L232.776 184.902L229.512 185.05ZM230.826 182.56L230.034 184.659L232.134 184.563L230.826 182.56Z"
    fill="#D9D9D9"
  />
<path
    d="M235.878 177.702C238.056 175.782 240.288 173.952 242.532 172.134C244.776 170.317 247.068 168.57 249.33 166.784C251.592 164.998 253.926 163.302 256.254 161.613C258.582 159.923 260.928 158.253 263.328 156.666C261.15 158.586 258.918 160.416 256.674 162.234C254.43 164.051 252.138 165.798 249.87 167.584C247.602 169.37 245.28 171.066 242.946 172.749C240.612 174.432 238.278 176.115 235.878 177.702Z"
    fill="#D9D9D9"
  />
<path
    d="M238.14 181.069C240.318 179.149 242.55 177.325 244.794 175.507C247.038 173.69 249.33 171.936 251.592 170.15C253.854 168.365 256.188 166.675 258.516 164.986C260.844 163.296 263.19 161.619 265.59 160.032C263.412 161.952 261.18 163.789 258.936 165.606C256.692 167.424 254.4 169.171 252.138 170.957C249.876 172.742 247.542 174.432 245.208 176.122C242.874 177.811 240.54 179.482 238.14 181.069Z"
    fill="#D9D9D9"
  />
<path d="M236.04 46.7264H63.96V61.6448H236.04V46.7264Z" fill="#D9D9D9" />
<path d="M168.132 50.1824H68.01V58.1952H168.132V50.1824Z" fill="#A4248D" />
<path
    opacity="0.2"
    d="M78.822 58.1952H73.692L68.01 50.1824H73.134L78.822 58.1952Z"
    fill="white"
  />
<path
    opacity="0.2"
    d="M89.6279 58.1952H84.5039L78.8219 50.1824H83.9459L89.6279 58.1952Z"
    fill="white"
  />
<path
    opacity="0.2"
    d="M100.44 58.1952H95.3159L89.6279 50.1824H94.7579L100.44 58.1952Z"
    fill="white"
  />
<path
    opacity="0.2"
    d="M111.252 58.1952H106.128L100.44 50.1824H105.57L111.252 58.1952Z"
    fill="white"
  />
<path
    opacity="0.2"
    d="M122.064 58.1952H116.94L111.252 50.1824H116.382L122.064 58.1952Z"
    fill="white"
  />
<path
    opacity="0.2"
    d="M132.876 58.1952H127.746L122.064 50.1824H127.194L132.876 58.1952Z"
    fill="white"
  />
<path
    opacity="0.2"
    d="M143.688 58.1952H138.558L132.876 50.1824H138L143.688 58.1952Z"
    fill="white"
  />
<path
    opacity="0.2"
    d="M154.5 58.1952H149.37L143.688 50.1824H148.812L154.5 58.1952Z"
    fill="white"
  />
<path
    opacity="0.2"
    d="M165.312 58.1952H160.182L154.5 50.1824H159.624L165.312 58.1952Z"
    fill="white"
  />
<path
    opacity="0.2"
    d="M168.132 50.1824V54.1568L165.306 50.1824H168.132Z"
    fill="white"
  />
<path
    d="M130.8 41.7216H130.08V43.0784C130.069 43.1628 130.03 43.2402 129.97 43.2962C129.91 43.3522 129.833 43.3831 129.753 43.3831C129.673 43.3831 129.596 43.3522 129.536 43.2962C129.476 43.2402 129.437 43.1628 129.426 43.0784V39.392C129.428 39.3015 129.462 39.2152 129.523 39.1518C129.584 39.0883 129.665 39.0528 129.75 39.0528H130.8C130.972 39.0401 131.144 39.0652 131.306 39.1266C131.468 39.1879 131.616 39.2841 131.742 39.4092C131.868 39.5344 131.968 39.6858 132.037 39.854C132.105 40.0223 132.141 40.2038 132.141 40.3872C132.141 40.5707 132.105 40.7522 132.037 40.9204C131.968 41.0886 131.868 41.24 131.742 41.3652C131.616 41.4903 131.468 41.5866 131.306 41.6479C131.144 41.7092 130.972 41.7343 130.8 41.7216ZM130.08 41.0304H130.8C130.959 41.0304 131.112 40.963 131.224 40.843C131.337 40.7229 131.4 40.5602 131.4 40.3904C131.4 40.2207 131.337 40.0579 131.224 39.9379C131.112 39.8178 130.959 39.7504 130.8 39.7504H130.08V41.0304Z"
    fill="#C7C7C7"
  />
<path
    d="M135.564 42.88C135.591 42.9666 135.584 43.0609 135.546 43.1424C135.508 43.2239 135.441 43.286 135.36 43.3152C135.316 43.3211 135.272 43.3211 135.228 43.3152C135.147 43.3149 135.068 43.2905 135 43.2448C134.923 43.1887 134.859 43.1142 134.814 43.0272C134.72 42.7911 134.678 42.5346 134.694 42.2784C134.694 42.1834 134.669 42.0903 134.622 42.0096C134.578 41.936 134.518 41.8746 134.448 41.8304C134.346 41.7606 134.235 41.7087 134.118 41.6768H133.428V43.0336C133.426 43.1258 133.391 43.2137 133.329 43.2784C133.267 43.343 133.184 43.3792 133.098 43.3792C133.013 43.3775 132.932 43.3404 132.873 43.2757C132.813 43.2111 132.78 43.1242 132.78 43.0336V39.392C132.779 39.3472 132.787 39.3027 132.803 39.2612C132.818 39.2196 132.842 39.1819 132.871 39.1502C132.901 39.1185 132.936 39.0936 132.975 39.0768C133.014 39.0601 133.056 39.0519 133.098 39.0528H134.148C134.406 39.0511 134.658 39.1347 134.87 39.2923C135.082 39.4499 135.242 39.6736 135.33 39.9326C135.417 40.1916 135.428 40.4732 135.359 40.7386C135.29 41.004 135.146 41.2401 134.946 41.4144C135.024 41.4824 135.093 41.5622 135.15 41.6512C135.27 41.8406 135.337 42.0627 135.342 42.2912C135.328 42.4123 135.328 42.5349 135.342 42.656C135.393 42.6715 135.44 42.6999 135.479 42.7389C135.517 42.7779 135.547 42.8263 135.564 42.88ZM134.742 40.3648C134.742 40.1951 134.679 40.0323 134.566 39.9122C134.454 39.7922 134.301 39.7248 134.142 39.7248H133.422V41.0048H134.142C134.297 41.0049 134.446 40.941 134.558 40.8265C134.67 40.7119 134.736 40.5557 134.742 40.3904V40.3648Z"
    fill="#C7C7C7"
  />
<path
    d="M139.644 39.5968C140.026 40.0211 140.239 40.5864 140.239 41.1744C140.239 41.7625 140.026 42.3278 139.644 42.752C139.465 42.9559 139.248 43.118 139.008 43.2282C138.767 43.3383 138.508 43.3941 138.246 43.392C137.979 43.3948 137.714 43.3395 137.467 43.2295C137.221 43.1194 136.998 42.957 136.812 42.752C136.438 42.3234 136.231 41.7598 136.231 41.1744C136.231 40.5891 136.438 40.0255 136.812 39.5968C136.997 39.3907 137.22 39.2274 137.466 39.1173C137.713 39.0072 137.979 38.9525 138.246 38.9568C138.508 38.9536 138.768 39.0089 139.008 39.1191C139.249 39.2293 139.466 39.392 139.644 39.5968ZM139.566 41.1712C139.566 40.7684 139.425 40.3801 139.17 40.0832C139.053 39.9443 138.911 39.8327 138.752 39.7556C138.593 39.6785 138.421 39.6375 138.246 39.6352C138.067 39.6351 137.891 39.6749 137.727 39.7521C137.564 39.8292 137.418 39.9421 137.298 40.0832C137.041 40.3787 136.899 40.768 136.902 41.1712C136.897 41.575 137.039 41.9652 137.298 42.2592C137.418 42.4004 137.564 42.5132 137.727 42.5904C137.891 42.6676 138.067 42.7074 138.246 42.7072C138.427 42.7071 138.606 42.6653 138.771 42.5847C138.935 42.504 139.082 42.3865 139.2 42.24C139.442 41.9443 139.572 41.5635 139.566 41.1712Z"
    fill="#C7C7C7"
  />
<path
    d="M141.036 41.1712C141.047 40.5713 141.278 40 141.68 39.58C142.081 39.1599 142.622 38.9247 143.184 38.9248C143.672 38.9234 144.147 39.0944 144.534 39.4112C144.6 39.472 144.642 39.5565 144.653 39.6486C144.664 39.7407 144.643 39.8339 144.594 39.9104C144.54 39.9855 144.461 40.035 144.374 40.0482C144.286 40.0614 144.197 40.0372 144.126 39.9808C143.859 39.7522 143.526 39.63 143.184 39.6352C142.791 39.6387 142.413 39.8011 142.128 40.0896C141.994 40.2311 141.887 40.3995 141.814 40.5851C141.741 40.7707 141.703 40.9699 141.702 41.1712C141.701 41.3738 141.738 41.5745 141.811 41.7614C141.885 41.9483 141.992 42.1176 142.128 42.2592C142.414 42.546 142.791 42.7061 143.184 42.7072C143.525 42.7138 143.858 42.5939 144.126 42.368C144.198 42.3154 144.285 42.2929 144.371 42.3047C144.458 42.3165 144.537 42.3618 144.594 42.432C144.645 42.5081 144.667 42.6016 144.655 42.6941C144.644 42.7866 144.601 42.8713 144.534 42.9312C144.149 43.253 143.673 43.4266 143.184 43.424C142.62 43.4258 142.078 43.1902 141.676 42.7684C141.274 42.3467 141.044 41.7727 141.036 41.1712Z"
    fill="#C7C7C7"
  />
<path
    d="M145.728 43.0785V39.3921C145.728 39.347 145.736 39.3023 145.753 39.2608C145.769 39.2192 145.793 39.1815 145.823 39.1499C145.853 39.1183 145.889 39.0935 145.928 39.0768C145.968 39.0602 146.01 39.052 146.052 39.0529H147.966C148.051 39.0528 148.132 39.0884 148.193 39.1518C148.253 39.2152 148.288 39.3015 148.29 39.3921C148.29 39.4843 148.256 39.5729 148.195 39.6387C148.135 39.7046 148.052 39.7424 147.966 39.7441H146.4V40.8897H147.762C147.848 40.8897 147.93 40.9261 147.991 40.9909C148.052 41.0557 148.086 41.1436 148.086 41.2353C148.086 41.3269 148.052 41.4148 147.991 41.4796C147.93 41.5444 147.848 41.5809 147.762 41.5809H146.4V42.7265H147.984C148.063 42.7379 148.136 42.7796 148.188 42.8437C148.241 42.9078 148.27 42.9901 148.27 43.0753C148.27 43.1604 148.241 43.2427 148.188 43.3068C148.136 43.3709 148.063 43.4126 147.984 43.4241H146.07C146.026 43.4267 145.982 43.4197 145.94 43.4035C145.899 43.3873 145.861 43.3622 145.829 43.3299C145.797 43.2975 145.772 43.2585 145.754 43.2153C145.737 43.1721 145.728 43.1255 145.728 43.0785Z"
    fill="#C7C7C7"
  />
<path
    d="M149.076 42.336C149.101 42.3029 149.132 42.2755 149.167 42.2553C149.202 42.235 149.241 42.2225 149.28 42.2183C149.32 42.2141 149.36 42.2184 149.398 42.231C149.436 42.2435 149.471 42.264 149.502 42.2912C149.816 42.575 150.207 42.7434 150.618 42.7712C150.878 42.7757 151.134 42.6954 151.35 42.5408C151.423 42.4934 151.484 42.4279 151.528 42.3499C151.572 42.2719 151.597 42.1837 151.602 42.0928C151.604 42.0223 151.585 41.9528 151.548 41.8944C151.505 41.8168 151.445 41.751 151.374 41.7024C151.134 41.5576 150.872 41.458 150.6 41.408C150.339 41.3647 150.084 41.2828 149.844 41.1648C149.621 41.0636 149.431 40.8944 149.298 40.6784C149.206 40.526 149.158 40.3479 149.16 40.1664C149.167 39.986 149.214 39.8099 149.296 39.6521C149.378 39.4943 149.494 39.3592 149.634 39.2576C149.929 39.0365 150.282 38.9201 150.642 38.9248C151.105 38.9502 151.551 39.1241 151.92 39.424C151.985 39.4732 152.03 39.5469 152.045 39.6302C152.061 39.7135 152.046 39.8 152.004 39.872C151.982 39.9076 151.954 39.9383 151.921 39.9621C151.888 39.986 151.851 40.0025 151.812 40.0109C151.773 40.0192 151.732 40.0192 151.693 40.0107C151.654 40.0022 151.617 39.9856 151.584 39.9616C151.316 39.7291 150.987 39.5906 150.642 39.5648C150.408 39.5583 150.179 39.6324 149.988 39.776C149.925 39.8176 149.871 39.8747 149.833 39.9426C149.794 40.0105 149.771 40.0872 149.766 40.1664C149.763 40.2293 149.777 40.2917 149.808 40.3456C149.85 40.4086 149.903 40.4628 149.964 40.5056C150.189 40.6472 150.438 40.7407 150.696 40.7808C150.975 40.8317 151.247 40.9199 151.506 41.0432C151.75 41.1487 151.959 41.3292 152.106 41.5616C152.2 41.7206 152.25 41.9048 152.25 42.0928C152.243 42.2848 152.194 42.4724 152.106 42.6403C152.019 42.8082 151.895 42.9517 151.746 43.0592C151.428 43.2978 151.048 43.4233 150.66 43.4176C150.109 43.3857 149.584 43.1607 149.166 42.7776C149.1 42.7306 149.055 42.6584 149.038 42.5761C149.021 42.4938 149.035 42.4078 149.076 42.336Z"
    fill="#C7C7C7"
  />
<path
    d="M152.922 42.336C152.947 42.3029 152.978 42.2755 153.013 42.2553C153.048 42.235 153.086 42.2225 153.126 42.2183C153.166 42.2141 153.206 42.2184 153.244 42.231C153.282 42.2435 153.317 42.264 153.348 42.2912C153.662 42.575 154.053 42.7434 154.464 42.7712C154.724 42.7757 154.98 42.6954 155.196 42.5408C155.269 42.4943 155.331 42.4289 155.375 42.3507C155.419 42.2726 155.444 42.1839 155.448 42.0928C155.45 42.0223 155.431 41.9528 155.394 41.8944C155.353 41.8153 155.293 41.7491 155.22 41.7024C154.972 41.5555 154.702 41.4559 154.422 41.408C154.161 41.3647 153.906 41.2828 153.666 41.1648C153.444 41.0617 153.255 40.8929 153.12 40.6784C153.03 40.5253 152.984 40.3472 152.988 40.1664C152.994 39.9865 153.039 39.8105 153.121 39.6527C153.202 39.4949 153.317 39.3595 153.456 39.2576C153.751 39.0365 154.104 38.9201 154.464 38.9248C154.927 38.9502 155.373 39.1241 155.742 39.424C155.807 39.4732 155.852 39.5469 155.867 39.6302C155.883 39.7135 155.868 39.8 155.826 39.872C155.804 39.9076 155.776 39.9383 155.743 39.9621C155.71 39.986 155.673 40.0025 155.634 40.0109C155.595 40.0192 155.554 40.0192 155.515 40.0107C155.476 40.0022 155.439 39.9856 155.406 39.9616C155.138 39.7291 154.809 39.5906 154.464 39.5648C154.231 39.5606 154.002 39.6344 153.81 39.776C153.747 39.8176 153.693 39.8747 153.655 39.9426C153.616 40.0105 153.593 40.0872 153.588 40.1664C153.58 40.2179 153.584 40.2707 153.6 40.32C153.645 40.3811 153.697 40.4349 153.756 40.48C153.981 40.6206 154.23 40.714 154.488 40.7552C154.767 40.8061 155.039 40.8943 155.298 41.0176C155.542 41.1231 155.751 41.3036 155.898 41.536C155.992 41.695 156.042 41.8792 156.042 42.0672C156.037 42.2596 155.988 42.4477 155.9 42.6158C155.813 42.784 155.688 42.9273 155.538 43.0336C155.22 43.2722 154.84 43.3977 154.452 43.392C153.901 43.3601 153.376 43.1351 152.958 42.752C152.907 42.6981 152.876 42.627 152.869 42.551C152.863 42.475 152.881 42.3989 152.922 42.336Z"
    fill="#C7C7C7"
  />
<path
    d="M156.996 39.3921C156.996 39.347 157.004 39.3023 157.021 39.2608C157.037 39.2192 157.061 39.1815 157.091 39.1499C157.121 39.1183 157.157 39.0935 157.196 39.0768C157.236 39.0602 157.278 39.052 157.32 39.0529C157.405 39.0528 157.486 39.0884 157.547 39.1518C157.608 39.2152 157.642 39.3015 157.644 39.3921V43.0785C157.644 43.1238 157.636 43.1688 157.619 43.2107C157.603 43.2526 157.579 43.2907 157.549 43.3228C157.519 43.3549 157.483 43.3804 157.444 43.3977C157.405 43.4151 157.363 43.4241 157.32 43.4241C157.277 43.4241 157.235 43.4151 157.196 43.3977C157.157 43.3804 157.121 43.3549 157.091 43.3228C157.061 43.2907 157.037 43.2526 157.021 43.2107C157.004 43.1688 156.996 43.1238 156.996 43.0785V39.3921Z"
    fill="#C7C7C7"
  />
<path
    d="M159.384 43.0784C159.384 43.169 159.351 43.256 159.291 43.3206C159.232 43.3852 159.151 43.4224 159.066 43.424C158.981 43.4224 158.9 43.3852 158.841 43.3206C158.781 43.256 158.748 43.169 158.748 43.0784V39.4496C158.732 39.3681 158.745 39.2833 158.784 39.2112C158.823 39.1391 158.886 39.0849 158.96 39.0588C159.034 39.0327 159.114 39.0366 159.186 39.0697C159.257 39.1028 159.315 39.1629 159.348 39.2384L161.232 42.0288V39.4688C161.234 39.38 161.268 39.2954 161.327 39.2331C161.387 39.1709 161.467 39.136 161.55 39.136C161.634 39.136 161.714 39.1706 161.775 39.2327C161.835 39.2948 161.871 39.3794 161.874 39.4688V43.0976C161.872 43.1888 161.838 43.2757 161.777 43.3402C161.717 43.4047 161.635 43.4416 161.55 43.4432C161.504 43.4414 161.458 43.4291 161.417 43.407C161.376 43.3849 161.339 43.3536 161.31 43.3152L161.28 43.2768L159.408 40.5056L159.384 43.0784Z"
    fill="#C7C7C7"
  />
<path
    d="M162.78 41.1776C162.783 40.8784 162.841 40.5828 162.952 40.3076C163.062 40.0325 163.222 39.7832 163.423 39.574C163.623 39.3648 163.86 39.1998 164.121 39.0884C164.381 38.977 164.659 38.9214 164.94 38.9248C165.424 38.9262 165.894 39.0971 166.278 39.4112C166.315 39.4391 166.347 39.4749 166.371 39.5163C166.395 39.5577 166.411 39.604 166.418 39.6522C166.425 39.7004 166.422 39.7496 166.411 39.7967C166.399 39.8438 166.378 39.8879 166.35 39.9263C166.322 39.9647 166.287 39.9965 166.247 40.0198C166.206 40.0432 166.162 40.0575 166.117 40.062C166.071 40.0665 166.025 40.0611 165.982 40.046C165.938 40.031 165.898 40.0066 165.864 39.9744C165.6 39.755 165.275 39.6356 164.94 39.6352C164.745 39.6325 164.551 39.6719 164.371 39.7511C164.19 39.8303 164.027 39.9476 163.89 40.096C163.752 40.2343 163.642 40.4013 163.566 40.5868C163.491 40.7723 163.452 40.9723 163.452 41.1744C163.452 41.3766 163.491 41.5766 163.566 41.762C163.642 41.9475 163.752 42.1146 163.89 42.2528C164.027 42.4004 164.191 42.5167 164.371 42.5948C164.552 42.6729 164.745 42.7112 164.94 42.7072C165.223 42.7063 165.501 42.6246 165.744 42.4704V41.6H164.904C164.816 41.5984 164.732 41.5599 164.67 41.4928C164.609 41.4258 164.574 41.3356 164.574 41.2416C164.574 41.1483 164.609 41.0587 164.671 40.9927C164.733 40.9267 164.816 40.8896 164.904 40.8896H166.104C166.148 40.8888 166.191 40.8973 166.232 40.9146C166.273 40.9319 166.31 40.9577 166.341 40.9904C166.372 41.0232 166.397 41.0623 166.414 41.1054C166.431 41.1486 166.44 41.1949 166.44 41.2416V42.624C166.443 42.6581 166.443 42.6924 166.44 42.7264C166.421 42.7872 166.383 42.8391 166.332 42.8736C165.952 43.1913 165.483 43.3647 165 43.3664C164.719 43.3793 164.439 43.3328 164.175 43.2295C163.911 43.1263 163.669 42.9684 163.463 42.765C163.256 42.5615 163.09 42.3165 162.973 42.0441C162.856 41.7716 162.79 41.4772 162.78 41.1776Z"
    fill="#C7C7C7"
  />
<path
    d="M168.036 42.5344C168.152 42.5344 168.264 42.5836 168.346 42.6713C168.428 42.7589 168.474 42.8777 168.474 43.0016C168.472 43.1244 168.426 43.2416 168.344 43.3279C168.262 43.4141 168.151 43.4624 168.036 43.4624C167.979 43.4624 167.923 43.4505 167.871 43.4273C167.818 43.4042 167.771 43.3703 167.73 43.3275C167.69 43.2847 167.659 43.2339 167.637 43.178C167.615 43.1221 167.604 43.0621 167.604 43.0016C167.604 42.8788 167.649 42.7609 167.73 42.6735C167.811 42.5861 167.921 42.5361 168.036 42.5344Z"
    fill="#C7C7C7"
  />
<path
    d="M169.38 42.5344C169.496 42.5344 169.608 42.5836 169.69 42.6713C169.772 42.7589 169.818 42.8777 169.818 43.0016C169.816 43.1244 169.77 43.2416 169.688 43.3279C169.606 43.4141 169.495 43.4624 169.38 43.4624C169.265 43.4624 169.155 43.4139 169.074 43.3275C168.993 43.241 168.948 43.1238 168.948 43.0016C168.948 42.8788 168.993 42.7609 169.074 42.6735C169.155 42.5861 169.265 42.5361 169.38 42.5344Z"
    fill="#C7C7C7"
  />
<path
    d="M170.73 42.5344C170.787 42.5344 170.844 42.5465 170.898 42.57C170.951 42.5935 170.999 42.6279 171.04 42.6713C171.08 42.7146 171.113 42.7662 171.135 42.8228C171.157 42.8795 171.168 42.9403 171.168 43.0016C171.168 43.1255 171.122 43.2444 171.04 43.332C170.958 43.4196 170.846 43.4688 170.73 43.4688C170.614 43.4688 170.502 43.4196 170.42 43.332C170.338 43.2444 170.292 43.1255 170.292 43.0016C170.292 42.8777 170.338 42.7589 170.42 42.6713C170.502 42.5836 170.614 42.5344 170.73 42.5344Z"
    fill="#C7C7C7"
  />
<path
    d="M22.026 290.246C104.016 289.856 195.984 289.856 277.974 290.246C195.984 290.643 104.016 290.643 22.026 290.246Z"
    fill="#263238"
  />
<path
    d="M198.318 290.246H148.338C148.248 289.837 148.158 289.427 148.074 289.018C139.212 246.989 149.028 237.766 165.54 251.398C169.692 254.829 174.27 259.718 179.082 265.869L182.586 270.349C187.998 277.261 193.242 283.893 198.318 290.246Z"
    fill="#F7A9A0"
  />
<path
    d="M210.816 290.246H140.166C139.93 288.254 139.716 286.308 139.524 284.41C139.218 281.472 138.96 278.65 138.75 275.955C138.227 269.931 138.063 263.877 138.258 257.83C138.35 255.268 138.6 252.716 139.008 250.189C139.098 249.626 139.2 249.088 139.314 248.563C139.35 248.39 139.392 248.218 139.428 248.045C139.548 247.539 139.668 247.046 139.8 246.579C139.842 246.426 139.89 246.272 139.932 246.112C140.028 245.811 140.124 245.51 140.22 245.222C140.809 243.319 141.775 241.573 143.052 240.102C143.277 239.857 143.515 239.626 143.766 239.411L144.024 239.2C144.188 239.065 144.358 238.939 144.534 238.822C145.063 238.471 145.629 238.187 146.22 237.978C147.298 237.605 148.431 237.447 149.562 237.51H150C154.002 237.811 159.066 240.218 165.24 244.582C168.04 246.579 171.092 248.977 174.396 251.776C185.754 261.459 198.816 275.93 210.816 290.246Z"
    fill="#F25C05"
  />
<path
    opacity="0.5"
    d="M139.116 249.562C139.152 249.353 139.194 249.139 139.242 248.922C139.488 248.986 139.74 249.043 139.992 249.088C141.792 249.421 144.45 248.909 144.834 246.605C145.164 244.57 143.376 242.643 141.894 241.619C142.008 241.434 142.128 241.261 142.254 241.088C144.48 242.688 146.832 245.901 144.654 248.41C143.1 250.157 141.12 250.074 139.116 249.562ZM150.39 268.979C147.09 269.082 144.312 271.891 143.016 274.963C141.312 279.021 141.69 283.642 141.564 287.974C141.564 288.73 141.51 289.485 141.45 290.246H142.05C142.302 286.176 141.912 282.022 142.734 278.022C143.52 274.182 146.112 269.946 150.156 269.658C153.858 269.395 156.462 273.03 157.032 276.595C157.782 281.338 155.412 285.939 153.558 290.035C153.528 290.099 153.498 290.163 153.474 290.227H154.146C154.692 289.024 155.256 287.84 155.754 286.65C157.308 282.938 158.556 278.63 157.188 274.63C156.15 271.571 153.642 268.883 150.39 268.979ZM166.032 271.795C164.255 268.572 161.727 265.894 158.694 264.019C155.61 262.131 152.13 261.395 148.626 261.062C145.122 260.73 141.636 260.781 138.18 260.307C138.18 260.525 138.18 260.749 138.18 260.947C139.782 261.165 141.402 261.261 142.98 261.35C146.67 261.549 150.426 261.619 154.02 262.63C157.591 263.682 160.797 265.824 163.242 268.794C168.042 274.554 169.434 282.835 167.562 290.195H168.216C169.791 283.995 169.006 277.381 166.032 271.795ZM162.474 245.67C161.16 246.95 159.558 248.07 157.722 248.122C156.818 248.111 155.928 247.879 155.121 247.444C154.314 247.009 153.611 246.383 153.066 245.613C151.266 243.302 150.702 240.403 150.066 237.542H150H149.562H149.436C150.24 241.146 150.996 245.03 153.888 247.424C156.516 249.587 159.69 248.954 162.15 246.867C163.06 246.074 163.897 245.191 164.652 244.23C164.478 244.102 164.304 243.987 164.13 243.872C163.61 244.504 163.057 245.104 162.474 245.67ZM183.474 260.122C181.41 261.6 179.556 263.494 177.15 264.288C175.314 264.896 173.13 264.832 171.75 263.219C170.586 261.85 170.406 259.834 170.694 258.099C171.12 255.539 172.584 253.517 174.132 251.578L173.688 251.2C171.396 254.15 169.218 257.133 170.13 261.254C170.278 261.993 170.576 262.689 171.003 263.291C171.43 263.894 171.976 264.389 172.602 264.742C174.168 265.48 175.944 265.523 177.54 264.864C179.94 263.987 181.818 262.035 183.93 260.589L183.474 260.122ZM192.756 284.102C190.122 286.438 187.032 288.531 183.474 288.358C181.974 288.288 180.396 287.718 179.478 286.4C178.278 284.653 178.596 282.272 179.544 280.493C181.2 277.37 184.614 275.789 187.536 274.381C189.711 273.441 191.735 272.146 193.536 270.541C193.386 270.374 193.236 270.208 193.08 270.048C192.655 270.472 192.204 270.865 191.73 271.226C188.934 273.37 185.55 274.362 182.658 276.346C180.096 278.099 177.738 280.915 178.11 284.403C178.452 287.603 181.248 289.12 184.032 289.069C187.38 289.005 190.26 287.149 192.798 284.947C195.336 282.746 197.544 280.147 199.968 277.651L199.554 277.184C197.244 279.514 195.066 282.035 192.732 284.102H192.756ZM209.232 288.333C206.34 288.749 203.4 289.037 200.73 290.003L200.1 290.246H202.104C203.747 289.815 205.414 289.496 207.096 289.293C207.978 289.171 208.854 289.056 209.73 288.922C209.538 288.73 209.4 288.531 209.208 288.333H209.232Z"
    fill="white"
  />
<path
    opacity="0.1"
    d="M203.166 290.246H140.166C139.93 288.254 139.714 286.308 139.518 284.41C139.218 281.466 138.962 278.645 138.75 275.949C138.228 269.926 138.062 263.875 138.252 257.83C138.349 255.269 138.6 252.716 139.002 250.189C139.098 249.626 139.2 249.088 139.308 248.563C139.344 248.39 139.386 248.218 139.422 248.045C139.542 247.539 139.662 247.046 139.794 246.579C139.836 246.426 139.884 246.272 139.926 246.112C140.022 245.811 140.118 245.51 140.214 245.222C140.803 243.319 141.768 241.573 143.046 240.102C143.271 239.857 143.509 239.626 143.76 239.411L144.018 239.2C144.186 239.066 144.354 238.944 144.528 238.822C145.057 238.471 145.623 238.187 146.214 237.978C147.293 237.611 148.425 237.452 149.556 237.51H149.994C152.438 237.787 154.819 238.512 157.032 239.654L203.166 290.246Z"
    fill="black"
  />
<path
    d="M194.442 290.246H74.2379C85.4819 270.074 98.8919 252.288 114.834 239.52C124.956 231.405 148.998 228.736 165.234 244.608L165.588 244.96C167.058 246.432 174.066 256.614 182.58 270.349C186.36 276.435 190.428 283.219 194.442 290.246Z"
    fill="#F25C05"
  />
<path
    opacity="0.5"
    d="M101.508 286.88C103.451 287.718 105.27 288.852 106.908 290.246H105.834C102.834 287.93 98.5979 285.357 95.1179 287.584C94.1349 288.2 93.3599 289.132 92.9039 290.246H92.2739C92.3735 289.973 92.4918 289.708 92.6279 289.453C94.4459 285.939 98.2499 285.555 101.508 286.88ZM85.0799 272.64L84.5399 273.434C85.0199 276.307 85.9379 279.117 86.4899 281.958C87.1122 284.701 87.0481 287.57 86.3039 290.278H86.9039C87.2363 289.155 87.4378 287.992 87.5039 286.816C87.7319 282.624 86.2319 278.643 85.3979 274.611C85.2659 273.937 85.1599 273.28 85.0799 272.64ZM106.872 246.522L106.074 247.283C105.606 249.643 105.594 252.08 106.038 254.445C106.836 259.046 108.792 263.296 109.71 267.885C110.508 271.846 110.412 276.461 107.91 279.763C105.864 282.49 101.91 283.693 99.0179 281.734C95.4179 279.283 96.6599 273.939 98.3219 270.63C99.9839 267.322 102.72 263.725 102.522 259.642C102.485 258.531 102.116 257.462 101.468 256.591C100.82 255.72 99.9278 255.094 98.9219 254.803L98.4659 255.322C98.8669 255.42 99.2556 255.568 99.6239 255.763C101.538 256.787 102.138 259.014 101.838 261.171C101.238 265.382 98.2379 268.589 96.8699 272.474C95.7599 275.603 95.5559 279.686 98.2739 281.958C100.572 283.878 104.04 283.693 106.446 282.093C109.308 280.173 110.586 276.454 110.772 273.011C111.252 263.949 104.19 255.526 106.872 246.502V246.522ZM113.472 283.002C114.857 281.549 116.386 280.261 118.032 279.162C119.849 278.043 121.939 277.528 124.032 277.683C125.934 277.779 127.848 278.138 129.744 277.818C131.306 277.578 132.722 276.709 133.7 275.388C134.678 274.067 135.144 272.396 135 270.72C134.796 269.151 134.062 267.716 132.934 266.686C131.807 265.655 130.364 265.1 128.88 265.126C127.23 265.171 125.7 266.035 124.272 266.822C122.844 267.61 121.188 268.653 119.508 268.339C115.812 267.654 116.436 262.509 117.156 259.718C118.32 255.238 119.784 250.803 119.814 246.067C119.814 243.347 119.214 239.667 116.724 238.214C116.508 238.349 116.304 238.483 116.124 238.624C117.396 239.206 118.212 240.634 118.662 241.984C119.231 244.001 119.384 246.125 119.112 248.211C118.841 250.635 118.365 253.028 117.69 255.36C117.069 257.339 116.552 259.354 116.142 261.395C115.716 264.109 115.878 267.718 118.752 268.794C121.884 269.965 124.836 266.72 127.692 265.952C131.292 264.973 134.988 268.352 134.292 272.352C134.137 273.318 133.756 274.227 133.184 274.994C132.613 275.761 131.869 276.363 131.022 276.742C129.138 277.536 127.044 277.216 125.082 277.056C123.135 276.789 121.157 277.019 119.31 277.728C117.693 278.48 116.198 279.502 114.882 280.755C112.854 282.579 108.852 285.824 111.312 288.947C111.783 289.531 112.38 289.983 113.052 290.266C113.666 290.538 114.32 290.694 114.984 290.726C115.776 290.757 116.565 290.6 117.294 290.266C118.015 289.945 118.696 289.53 119.322 289.03C120.84 287.859 122.1 286.355 123.618 285.19C125.136 284.026 127.26 282.938 129.216 283.571C131.916 284.442 132.6 287.475 132.252 290.266H132.918C133.206 287.475 132.408 284.237 129.816 283.098C126.3 281.53 123 284.8 120.6 287.046C119.232 288.326 117.6 289.779 115.74 290.022C114.252 290.208 112.458 289.6 111.594 288.23C110.316 286.208 112.158 284.262 113.478 282.963L113.472 283.002ZM150.384 269.018C147.084 269.12 144.306 271.93 143.01 275.002C141.306 279.059 141.684 283.68 141.558 288.013C141.558 288.768 141.504 289.523 141.444 290.285H142.044C142.296 286.214 141.906 282.061 142.728 278.061C143.514 274.221 146.106 269.984 150.15 269.696C153.852 269.434 156.456 273.069 157.026 276.634C157.776 281.376 155.406 285.978 153.552 290.074C153.522 290.138 153.492 290.202 153.468 290.266H154.14C154.686 289.062 155.25 287.878 155.748 286.688C157.302 282.976 158.55 278.669 157.182 274.669C156.15 271.571 153.642 268.883 150.39 268.979L150.384 269.018ZM158.688 264.058C155.604 262.17 152.124 261.434 148.62 261.101C144.93 260.749 141.198 260.826 137.532 260.25C134.166 259.718 130.23 258.522 127.962 255.622C126.516 253.773 126.918 251.36 128.478 249.747C130.038 248.134 132.354 247.91 134.406 248.25C137.586 248.774 141.852 251.61 144.606 248.454C147.078 245.638 143.808 241.939 141.426 240.627C138.558 239.046 135.18 238.912 132.024 238.835C130.261 238.902 128.496 238.827 126.744 238.611C126.235 238.57 125.747 238.376 125.336 238.052C124.926 237.728 124.609 237.288 124.422 236.781C124.246 236.133 124.226 235.449 124.362 234.79L123.696 234.995C123.625 235.54 123.641 236.094 123.744 236.634C124.086 238.349 125.484 239.123 127.002 239.322C130.434 239.77 133.908 239.322 137.334 239.962C138.908 240.207 140.422 240.776 141.792 241.638C143.292 242.65 145.146 244.602 144.792 246.675C144.408 248.979 141.732 249.491 139.95 249.158C137.988 248.794 136.176 247.878 134.196 247.578C130.92 247.123 126.906 248.538 126.396 252.531C125.934 256.23 129.942 258.586 132.672 259.686C135.93 261.005 139.482 261.248 142.932 261.44C146.622 261.638 150.378 261.709 153.972 262.72C157.543 263.772 160.749 265.914 163.194 268.883C167.994 274.643 169.386 282.925 167.514 290.285H168.168C169.755 284.068 168.967 277.433 165.978 271.834C164.221 268.604 161.712 265.912 158.694 264.019L158.688 264.058ZM162.468 245.709C161.154 246.989 159.552 248.109 157.716 248.16C156.812 248.149 155.922 247.917 155.115 247.483C154.308 247.048 153.605 246.421 153.06 245.651C150.738 242.675 150.48 238.739 149.46 235.136L148.734 234.912C148.938 235.552 149.106 236.23 149.262 236.909C150.126 240.685 150.792 244.896 153.858 247.43C156.486 249.594 159.66 248.96 162.12 246.874C163.055 246.054 163.917 245.143 164.694 244.154L164.232 243.718C163.682 244.405 163.095 245.057 162.474 245.67L162.468 245.709ZM178.422 263.77C178.003 263.994 177.568 264.18 177.12 264.326C175.284 264.934 173.1 264.87 171.72 263.258C170.556 261.888 170.376 259.872 170.664 258.138C170.919 256.741 171.442 255.417 172.2 254.246C172.086 254.067 171.966 253.894 171.846 253.722C170.394 255.93 169.446 258.31 170.1 261.293C170.248 262.032 170.546 262.727 170.973 263.33C171.4 263.932 171.946 264.428 172.572 264.781C174.138 265.518 175.914 265.562 177.51 264.902C177.942 264.744 178.363 264.554 178.77 264.333C178.662 264.096 178.548 263.91 178.428 263.731L178.422 263.77ZM191.484 285.184C189.132 287.066 186.456 288.544 183.444 288.384C181.944 288.314 180.366 287.744 179.448 286.426C178.248 284.678 178.566 282.298 179.514 280.518C180.822 278.048 183.228 276.544 185.622 275.328L185.298 274.797C184.38 275.25 183.49 275.765 182.634 276.339C180.072 278.093 177.714 280.909 178.086 284.397C178.428 287.597 181.224 289.114 184.008 289.062C186.942 289.005 189.516 287.558 191.808 285.734C191.712 285.523 191.604 285.331 191.49 285.146L191.484 285.184Z"
    fill="white"
  />
<path
    d="M155.826 196.723C175.026 221.613 214.986 220.71 238.146 203.258C238.71 202.842 224.622 189.427 214.842 162.88C209.736 149.018 209.13 133.741 207.114 119.034C206.214 112.422 205.314 105.818 204.288 99.232C203.31 92.9472 202.386 85.9776 199.62 80.1728C191.754 63.6608 166.554 67.3728 163.782 71.6352C144.696 101.12 133.98 168.39 155.826 196.723Z"
    fill="#263238"
  />
<path
    d="M159.816 177.28C164.55 192.442 174.714 204.96 188.616 211.309C203.25 217.99 221.454 216.96 235.71 209.555C235.962 209.421 236.196 209.818 235.944 209.958C221.22 218.278 204.678 220.57 188.892 213.907C174.294 207.744 162.366 194.067 158.802 177.606C158.781 177.47 158.807 177.33 158.875 177.212C158.944 177.095 159.05 177.008 159.174 176.968C159.299 176.928 159.432 176.937 159.55 176.995C159.668 177.052 159.763 177.154 159.816 177.28Z"
    fill="#263238"
  />
<path
    d="M149.34 172.71C154.02 187.859 162.198 200.077 175.224 208.333C188.148 216.531 207.48 223.251 222.474 218.822C222.546 218.818 222.617 218.84 222.676 218.884C222.735 218.928 222.779 218.992 222.8 219.065C222.822 219.139 222.82 219.218 222.794 219.289C222.769 219.361 222.721 219.422 222.66 219.462C206.82 224.582 187.302 218.56 173.538 209.69C161.334 201.818 150.18 188.448 148.206 172.883C148.116 172.192 149.142 172.07 149.34 172.71Z"
    fill="#263238"
  />
<path
    d="M200.574 94.08C203.262 112.781 206.142 130.79 212.808 148.48C219.499 166.329 228.683 182.995 240.048 197.914C240.276 198.208 239.898 198.643 239.658 198.349C227.784 184.045 218.22 168.326 211.326 150.63C204.516 133.152 199.224 113.229 199.464 94.144C199.469 93.9953 199.526 93.854 199.623 93.7478C199.721 93.6416 199.852 93.5783 199.992 93.5703C200.131 93.5622 200.268 93.6101 200.376 93.7044C200.483 93.7988 200.554 93.9328 200.574 94.08Z"
    fill="#263238"
  />
<path
    d="M124.002 239.149C124.896 243.437 143.724 271.405 162.048 270.714C168.012 270.47 168.252 235.674 168.252 235.674L168.822 233.114L176.748 197.21L137.4 169.6L131.706 165.939C131.706 165.939 130.146 175.917 128.322 188.339C128.232 188.915 128.142 189.491 128.058 190.112C127.974 190.733 127.812 191.469 127.734 192.128C127.434 193.984 127.134 195.878 126.888 197.773C126.684 199.219 126.48 200.614 126.324 202.138C126.168 203.661 125.97 205.139 125.772 206.662C124.14 221.728 123.648 237.331 124.002 239.149Z"
    fill="#F7A9A0"
  />
<path
    d="M128.322 188.358C137.682 217.12 159.012 229.056 168.822 233.114L176.748 197.21L137.4 169.6L131.706 165.939C131.706 165.939 130.146 175.917 128.322 188.358Z"
    fill="#263238"
  />
<path
    d="M216.372 136.32C224.004 200.544 188.802 212.672 175.818 214.4C164.034 215.981 123.708 219.763 109.896 156.723C96.0839 93.6832 121.662 69.6 148.44 64.4672C175.218 59.3344 208.74 72.1152 216.372 136.32Z"
    fill="#F7A9A0"
  />
<path
    d="M77.472 125.702C77.6252 137.55 75.5228 149.307 71.292 160.262C67.764 169.35 63.264 178.362 63.318 188.486C63.426 206.579 79.584 218.566 94.278 226.125C104.106 231.194 125.784 232.096 142.326 226.266C143.136 225.978 100.86 144.691 164.286 63.1424C164.562 62.7904 124.284 52.9984 98.724 73.1264C82.074 86.2336 77.364 105.312 77.472 125.702Z"
    fill="#263238"
  />
<path
    d="M76.284 116.723C78.042 102.586 83.16 90.3936 92.064 79.7504C92.148 79.6544 92.304 79.8016 92.226 79.904C83.58 91.008 78.786 104.454 77.226 118.694C75.888 130.778 75.81 143.11 70.776 154.291C67.908 160.691 64.386 166.406 63.342 173.53C62.4026 180.253 63.0396 187.12 65.196 193.517C69.768 207.398 80.244 216.557 92.316 222.739C92.694 222.931 92.514 223.584 92.106 223.411C69.954 214.246 54.588 187.091 65.478 162.65C68.91 154.97 72.48 148.134 73.878 139.61C75.108 132.019 75.342 124.326 76.284 116.723Z"
    fill="#263238"
  />
<path
    d="M91.2659 83.4816C91.3499 83.3664 91.5299 83.4816 91.4459 83.6096C82.0739 96.128 77.5979 111.232 77.7119 127.168C77.7719 134.682 78.3119 142.202 77.1479 149.658C76.0919 156.429 73.7519 162.714 70.8359 168.8C64.1999 182.701 56.3219 199.04 69.3419 211.917C80.7419 223.155 97.6019 228.09 112.668 229.478C112.759 229.484 112.844 229.527 112.904 229.599C112.965 229.671 112.997 229.766 112.992 229.862C112.987 229.959 112.947 230.05 112.879 230.115C112.812 230.18 112.723 230.213 112.632 230.208C97.7279 229.466 81.4319 224.154 69.8819 213.734C60.2819 205.062 59.5139 193.082 64.0799 181.158C67.3259 172.685 72.2819 165.101 74.7539 156.269C77.3639 146.944 76.9019 137.709 76.7939 128.109C76.5959 111.45 81.1499 96.2688 91.2659 83.4816Z"
    fill="#263238"
  />
<path
    d="M75.9059 122.182C77.2799 107.501 80.5019 92.032 91.6859 82.3296C91.7146 82.3024 91.7522 82.2885 91.7904 82.2909C91.8287 82.2933 91.8645 82.3118 91.8899 82.3424C91.9154 82.3729 91.9285 82.413 91.9262 82.4538C91.924 82.4946 91.9066 82.5328 91.878 82.56C78.6 94.9952 77.5199 114.784 76.0739 132.314C75.3599 140.986 74.4539 149.805 71.5859 158.035C68.7179 166.266 63.1079 173.312 61.3859 182.01C57.7859 200.256 69.6599 216.442 84.0179 223.712C99.75 231.674 116.508 230.022 133.386 230.502C133.794 230.502 133.866 231.258 133.44 231.296C109.764 233.574 77.7479 231.462 64.4399 206.586C58.9079 196.237 58.2599 184.154 63.2399 173.267C67.0859 164.883 71.2919 157.459 73.0739 148.166C74.7419 139.597 75.0959 130.854 75.9059 122.182Z"
    fill="#263238"
  />
<path
    d="M116.4 166.733C127.41 167.373 126.312 130.253 126.312 130.253C126.312 130.253 166.098 130.752 176.712 89.1008C176.712 89.1008 195.846 114.432 211.962 113.312C217.584 112.922 207.804 67.904 175.326 65.952C175.326 65.952 137.928 50.656 112.71 83.1104C87.492 115.565 101.238 165.888 116.4 166.733Z"
    fill="#263238"
  />
<path
    d="M122.442 128.55C134.628 131.296 147.462 131.93 158.184 123.987C170.454 114.899 174.432 99.0272 178.098 84.5184C178.158 84.2624 178.53 84.3008 178.488 84.576C176.088 99.84 171 116.672 158.286 125.683C147.918 133.03 133.8 133.408 122.25 129.28C121.878 129.12 122.058 128.461 122.442 128.55Z"
    fill="#263238"
  />
<path
    d="M177 80.9728C179.484 89.248 182.184 96.4608 187.842 102.957C193.344 109.28 200.052 113.254 207.582 116.179C207.615 116.193 207.643 116.22 207.659 116.254C207.675 116.288 207.679 116.327 207.669 116.364C207.659 116.401 207.637 116.433 207.606 116.453C207.576 116.473 207.539 116.481 207.504 116.474C192.504 113.274 177.876 97.7024 176.202 81.184C176.124 80.704 176.82 80.4864 177 80.9728Z"
    fill="#263238"
  />
<path
    d="M206.13 120.237C204.716 120.253 203.302 120.189 201.894 120.045C200.268 119.949 198.96 120.045 197.604 118.97C197.252 118.618 197.018 118.151 196.94 117.643C196.862 117.135 196.944 116.614 197.172 116.16C198.252 114.278 200.268 113.862 202.23 113.888C204.21 113.845 206.135 114.589 207.63 115.974C209.202 117.389 208.044 120.134 206.13 120.237Z"
    fill="#263238"
  />
<path
    d="M165.99 137.702C167.385 137.444 168.767 137.111 170.13 136.704C171.714 136.301 173.01 136.16 174.168 134.829C174.456 134.416 174.609 133.912 174.601 133.397C174.593 132.882 174.426 132.384 174.126 131.981C172.746 130.336 170.694 130.31 168.768 130.701C166.813 131.03 165.045 132.128 163.812 133.779C162.492 135.475 164.088 137.965 165.99 137.702Z"
    fill="#263238"
  />
<path
    d="M175.2 146.458C175.146 146.298 174.912 146.72 174.942 146.899C175.74 151.283 175.962 156.448 172.452 158.554C172.338 158.618 172.386 158.835 172.518 158.79C177 157.325 176.634 150.477 175.2 146.458Z"
    fill="#263238"
  />
<path
    d="M170.838 142.49C164.112 143.13 165.744 157.402 171.972 156.838C178.104 156.282 176.472 141.984 170.838 142.49Z"
    fill="#263238"
  />
<path
    d="M168.288 143.59C167.214 144.55 166.23 146.15 164.832 146.464C163.218 146.848 161.832 145.51 160.584 144.205C160.458 144.07 160.356 144.205 160.374 144.403C160.65 147.149 161.958 149.83 164.754 149.882C167.31 149.926 168.84 147.264 169.164 144.429C169.2 143.904 168.726 143.206 168.288 143.59Z"
    fill="#263238"
  />
<path
    d="M199.044 142.31C199.044 142.138 199.386 142.49 199.392 142.675C199.596 147.155 200.538 152.205 204.42 153.357C204.54 153.395 204.546 153.619 204.42 153.606C199.746 153.312 198.564 146.56 199.044 142.31Z"
    fill="#263238"
  />
<path
    d="M202.416 137.344C209.082 136.224 210.69 150.528 204.516 151.565C198.438 152.589 196.83 138.285 202.416 137.344Z"
    fill="#263238"
  />
<path
    d="M205.32 137.926C206.46 138.566 207.666 139.795 208.92 139.718C210.402 139.635 211.32 137.952 212.082 136.346C212.166 136.179 212.28 136.288 212.31 136.474C212.688 139.2 212.16 142.157 209.754 142.995C207.564 143.763 205.65 141.626 204.732 138.982C204.6 138.496 204.858 137.677 205.32 137.926Z"
    fill="#263238"
  />
<path
    d="M174.912 181.606C175.866 182.707 176.796 184.166 178.308 184.41C179.82 184.653 181.488 184.013 182.85 183.533C182.879 183.52 182.912 183.518 182.943 183.527C182.973 183.536 183 183.555 183.019 183.582C183.039 183.609 183.049 183.642 183.049 183.676C183.048 183.71 183.038 183.743 183.018 183.77C182.381 184.611 181.544 185.254 180.593 185.63C179.643 186.006 178.615 186.102 177.618 185.907C175.74 185.453 174.888 183.661 174.516 181.792C174.45 181.53 174.774 181.446 174.912 181.606Z"
    fill="#263238"
  />
<path
    d="M192.294 165.344C192.294 165.344 193.2 172 193.224 175.149C193.224 175.443 192.516 175.584 191.514 175.654C191.466 175.654 191.436 175.693 191.4 175.654C186.198 176.563 180.948 174.682 177.756 170.176C177.546 169.869 177.918 169.536 178.188 169.741C182.094 172.749 186.396 173.504 191.01 173.549C191.208 172.678 189.096 162.202 189.564 162.163C191.172 162.003 194.364 163.149 196.266 163.731C194.754 149.798 191.154 136.25 189.84 122.355C189.836 122.255 189.864 122.157 189.92 122.076C189.975 121.996 190.056 121.939 190.146 121.914C190.237 121.889 190.333 121.898 190.419 121.94C190.504 121.982 190.573 122.054 190.614 122.144C195.324 136.07 197.394 152.051 199.308 166.394C199.56 168.186 193.476 165.869 192.294 165.344Z"
    fill="#263238"
  />
<path
    d="M166.83 171.36C163.347 171.393 159.925 170.381 156.954 168.441C153.983 166.501 151.583 163.71 150.027 160.386C148.47 157.062 147.82 153.338 148.151 149.639C148.481 145.94 149.778 142.415 151.895 139.464C154.012 136.513 156.863 134.256 160.124 132.949C163.385 131.642 166.924 131.338 170.339 132.071C173.753 132.805 176.907 134.546 179.439 137.098C181.971 139.649 183.781 142.908 184.662 146.502C185.909 151.586 185.214 156.989 182.73 161.527C180.247 166.065 176.177 169.366 171.414 170.707C169.918 171.131 168.378 171.35 166.83 171.36ZM166.566 134.368C165.227 134.376 163.894 134.565 162.6 134.931C158.638 136.041 155.223 138.721 153.048 142.423C150.874 146.126 150.105 150.573 150.897 154.86C151.689 159.146 153.983 162.95 157.313 165.495C160.642 168.04 164.755 169.136 168.815 168.56C172.875 167.983 176.577 165.777 179.166 162.392C181.755 159.006 183.036 154.695 182.749 150.337C182.463 145.978 180.629 141.901 177.622 138.934C174.616 135.967 170.662 134.334 166.566 134.368Z"
    fill="#455A64"
  />
<path
    d="M209.118 165.472C202.008 165.53 195.504 157.792 194.298 147.552C193.639 142.657 194.437 137.666 196.578 133.28C198.726 129.12 201.978 126.554 205.716 126.054C209.454 125.555 213.198 127.187 216.246 130.656C219.331 134.344 221.257 138.97 221.754 143.885C223.026 154.765 217.902 164.365 210.354 165.389C209.944 165.443 209.531 165.47 209.118 165.472ZM207 128.64C206.685 128.644 206.37 128.668 206.058 128.71C203.124 129.101 200.544 131.187 198.786 134.586C196.898 138.464 196.19 142.873 196.758 147.2C197.868 156.595 203.796 163.571 210.024 162.733C216.252 161.894 220.386 153.581 219.288 144.173C218.856 139.811 217.157 135.703 214.428 132.422C212.208 129.92 209.592 128.595 207 128.64Z"
    fill="#455A64"
  />
<path
    d="M184.308 148.858L182.508 147.059C185.01 144.179 191.082 139.949 196.188 144.499L194.598 146.534C190.008 142.445 184.542 148.602 184.308 148.858Z"
    fill="#455A64"
  />
<path
    d="M106.47 165.12L104.142 164.205C104.544 163.046 108.204 152.826 113.598 151.136C118.644 149.574 148.35 148.23 149.766 148.186L149.844 150.835C140.244 151.142 118.194 152.461 114.3 153.683C110.736 154.803 107.442 162.323 106.47 165.12Z"
    fill="#455A64"
  />
<path
    d="M129.72 160.64C129.72 160.64 115.74 141.011 107.334 146.406C98.9279 151.802 109.974 180.653 120.204 184.23C130.434 187.808 133.728 177.773 133.728 177.773L129.72 160.64Z"
    fill="#F7A9A0"
  />
<path
    d="M110.694 154.573C110.661 154.572 110.628 154.585 110.603 154.608C110.578 154.63 110.561 154.662 110.556 154.697C110.551 154.732 110.558 154.768 110.575 154.798C110.593 154.828 110.62 154.85 110.652 154.861C117.852 157.619 121.818 164.461 124.692 171.597C122.484 168.896 119.568 167.488 116.16 170.317C115.98 170.464 116.16 170.765 116.364 170.714C119.238 169.926 121.344 170.374 123.396 172.768C124.848 174.458 125.874 176.608 126.942 178.618C127.296 179.258 128.424 178.867 128.142 178.099L128.082 177.933C127.914 168.32 120.408 155.136 110.694 154.573Z"
    fill="#263238"
  />
<path
    d="M91.026 130.214C97.68 138.086 109.716 139.302 119.646 134.451C126.156 131.251 130.344 122.669 136.968 115.654C147.864 104.096 170.466 104.051 166.818 83.4368C163.572 65.1072 136.254 59.36 110.772 71.072C88.26 81.4144 76.074 112.531 91.026 130.214Z"
    fill="white"
  />
<path
    d="M254.014 95.2017C264.41 84.1121 264.41 66.1323 254.014 55.0426C243.617 43.953 226.761 43.953 216.365 55.0426C205.968 66.1323 205.968 84.1121 216.365 95.2018C226.761 106.291 243.617 106.291 254.014 95.2017Z"
    fill="white"
  />
<path
    d="M261.81 75.1232C261.942 86.3872 255.21 97.184 245.412 101.446C227.802 109.331 208.302 95.488 208.272 75.1232C208.242 54.7584 227.802 40.9088 245.4 48.7936C255.174 53.056 261.93 63.8592 261.798 75.1232H261.81ZM261.81 75.1232C261.894 63.8976 255.144 53.1008 245.34 48.9792C228.03 41.4016 208.812 55.1552 208.866 75.1232C208.806 95.0848 228.03 108.851 245.34 101.261C255.144 97.1392 261.894 86.3488 261.81 75.1232Z"
    fill="#263238"
  />
<path
    d="M231.516 95.392C231.532 95.5044 231.574 95.6106 231.639 95.7008C231.704 95.7909 231.79 95.862 231.887 95.9074C231.985 95.9528 232.092 95.971 232.198 95.9603C232.304 95.9497 232.406 95.9104 232.494 95.8464C232.527 95.8304 232.558 95.8087 232.584 95.7824C232.673 95.7115 232.742 95.6156 232.783 95.5054C232.824 95.3951 232.836 95.2748 232.817 95.158C232.797 95.0412 232.748 94.9323 232.674 94.8437C232.6 94.755 232.505 94.69 232.398 94.656C232.293 94.6132 232.179 94.6002 232.068 94.6181C231.956 94.6361 231.851 94.6844 231.762 94.7584C231.674 94.8325 231.604 94.9297 231.561 95.0407C231.518 95.1517 231.502 95.2727 231.516 95.392Z"
    fill="#F21616"
  />
<path
    d="M246.432 60.8704C246.356 60.9549 246.303 61.0601 246.28 61.1744C246.256 61.2887 246.262 61.4078 246.297 61.5187C246.332 61.6295 246.396 61.728 246.48 61.8033C246.564 61.8785 246.666 61.9278 246.774 61.9456H246.876C246.986 61.9692 247.101 61.9592 247.206 61.9169C247.311 61.8745 247.403 61.8015 247.471 61.7061C247.539 61.6106 247.581 61.4967 247.592 61.3772C247.602 61.2577 247.581 61.1376 247.53 61.0304C247.486 60.9214 247.416 60.8264 247.327 60.7546C247.238 60.6829 247.134 60.6367 247.023 60.6206C246.913 60.6045 246.801 60.6191 246.697 60.6628C246.593 60.7066 246.502 60.7781 246.432 60.8704Z"
    fill="#F21616"
  />
<path
    d="M219.036 67.2C218.942 67.1455 218.837 67.1175 218.73 67.1186C218.623 67.1197 218.518 67.1499 218.424 67.2062C218.331 67.2626 218.253 67.3433 218.198 67.4407C218.142 67.5382 218.11 67.6491 218.106 67.7632C218.103 67.8015 218.103 67.84 218.106 67.8784C218.105 67.9983 218.136 68.1161 218.195 68.2183C218.254 68.3205 218.338 68.403 218.439 68.4564C218.54 68.5098 218.653 68.5319 218.764 68.5202C218.876 68.5085 218.983 68.4636 219.072 68.3904C219.166 68.3248 219.242 68.2347 219.294 68.1286C219.346 68.0224 219.371 67.9039 219.367 67.7844C219.364 67.6649 219.331 67.5483 219.273 67.446C219.215 67.3437 219.134 67.2589 219.036 67.2Z"
    fill="#F21616"
  />
<path
    d="M229.71 93.8048C229.788 93.8137 229.867 93.7978 229.936 93.7591C230.005 93.7204 230.062 93.6605 230.1 93.5872C230.156 93.4972 230.182 93.39 230.175 93.2824C230.167 93.1748 230.126 93.0729 230.059 92.9928C229.991 92.9126 229.9 92.8588 229.8 92.8397C229.701 92.8207 229.598 92.8375 229.509 92.8875C229.419 92.9375 229.347 93.0179 229.305 93.116C229.263 93.2141 229.253 93.3244 229.276 93.4294C229.299 93.5345 229.354 93.6284 229.433 93.6963C229.511 93.7643 229.609 93.8024 229.71 93.8048Z"
    fill="#F21616"
  />
<path
    d="M230.616 97.3568C230.668 97.4188 230.74 97.4579 230.818 97.4662C230.895 97.4745 230.973 97.4515 231.035 97.4017C231.098 97.3519 231.141 97.2789 231.155 97.1971C231.17 97.1154 231.155 97.0308 231.114 96.96C231.062 96.8979 230.99 96.8589 230.913 96.8506C230.835 96.8423 230.757 96.8653 230.695 96.9151C230.632 96.9649 230.589 97.0379 230.575 97.1196C230.56 97.2014 230.575 97.286 230.616 97.3568Z"
    fill="#F21616"
  />
<path
    d="M250.662 78.5152C250.652 78.5975 250.673 78.6806 250.718 78.7476C250.764 78.8146 250.832 78.8606 250.909 78.876C250.985 78.8915 251.064 78.8754 251.13 78.831C251.195 78.7865 251.243 78.7171 251.262 78.6368C251.272 78.5545 251.251 78.4714 251.206 78.4044C251.16 78.3373 251.092 78.2914 251.016 78.2759C250.939 78.2605 250.86 78.2766 250.794 78.321C250.729 78.3655 250.681 78.4349 250.662 78.5152Z"
    fill="#F21616"
  />
<path
    d="M220.41 64.224C220.345 64.2439 220.287 64.2858 220.247 64.3436C220.206 64.4013 220.184 64.4717 220.184 64.544C220.184 64.6163 220.206 64.6867 220.247 64.7444C220.287 64.8022 220.345 64.8441 220.41 64.864C220.475 64.8441 220.533 64.8022 220.573 64.7444C220.614 64.6867 220.636 64.6163 220.636 64.544C220.636 64.4717 220.614 64.4013 220.573 64.3436C220.533 64.2858 220.475 64.2439 220.41 64.224Z"
    fill="#F21616"
  />
<path
    d="M250.014 63.4176C250.015 63.494 250.041 63.5676 250.088 63.626C250.134 63.6844 250.197 63.724 250.268 63.7383C250.338 63.7525 250.411 63.7405 250.474 63.7043C250.537 63.668 250.587 63.6097 250.614 63.5392C250.613 63.4628 250.587 63.3892 250.541 63.3308C250.494 63.2724 250.431 63.2328 250.36 63.2185C250.29 63.2042 250.217 63.2162 250.154 63.2525C250.091 63.2887 250.042 63.347 250.014 63.4176Z"
    fill="#F21616"
  />
<path
    d="M246.948 81.1392C243.807 85.6227 239.798 89.3333 235.194 92.0192C230.59 89.3333 226.582 85.6227 223.44 81.1392C219.3 75.296 219.504 66.1504 225.426 64.1728C231.972 61.984 235.194 72.4928 235.194 72.4928C235.194 72.4928 238.458 61.9136 244.962 64.1728C250.86 66.2208 251.088 75.296 246.948 81.1392Z"
    fill="#F21616"
  />
<path d="M205.422 76.3456H204.822V76.8256H205.422V76.3456Z" fill="#F21616" />
<path
    d="M203.616 76.8H202.416V76.32H203.616V76.8ZM201.216 76.8H200.016V76.32H201.216V76.8ZM198.816 76.8H197.616V76.32H198.816V76.8ZM196.416 76.8H195.216V76.32H196.416V76.8ZM194.016 76.8H192.816V76.32H194.016V76.8ZM191.616 76.8H190.416V76.32H191.616V76.8ZM189.216 76.8H188.016V76.32H189.216V76.8ZM186.816 76.8H185.616V76.32H186.816V76.8ZM184.416 76.8H183.216V76.32H184.416V76.8ZM182.016 76.8H180.816V76.32H182.016V76.8ZM179.616 76.8H178.416V76.32H179.616V76.8ZM177.216 76.8H176.016V76.32H177.216V76.8ZM174.816 76.8H173.616V76.32H174.816V76.8ZM172.416 76.8H171.216V76.32H172.416V76.8ZM170.016 76.8H168.816V76.32H170.016V76.8ZM167.616 76.8H166.416V76.32H167.616V76.8ZM165.216 76.8H164.016V76.32H165.216V76.8ZM162.816 76.8H161.616V76.32H162.816V76.8ZM160.416 76.8H159.216V76.32H160.416V76.8ZM158.016 76.8H156.816V76.32H158.016V76.8ZM155.616 76.8H154.416V76.32H155.616V76.8ZM153.216 76.8H152.016V76.32H153.216V76.8ZM150.816 76.8H149.616V76.32H150.816V76.8ZM148.416 76.8H147.216V76.32H148.416V76.8ZM146.016 76.8H144.816V76.32H146.016V76.8ZM143.616 76.8H142.416V76.32H143.616V76.8ZM141.216 76.8H140.016V76.32H141.216V76.8ZM138.816 76.8H137.616V76.32H138.816V76.8ZM136.416 76.8H135.216V76.32H136.416V76.8ZM134.016 76.8H132.816V76.32H134.016V76.8ZM131.616 76.8H130.416V76.32H131.616V76.8Z"
    fill="#F21616"
  />
<path
    d="M128.592 77.2224H128.142V76.3456H128.97V76.8256H128.592V77.2224Z"
    fill="#F21616"
  />
<path
    d="M128.592 87.7952H128.142V86.4704H128.592V87.7952ZM128.592 85.152H128.142V83.84H128.592V85.152ZM128.592 82.5088H128.142V81.184H128.592V82.5088ZM128.592 79.8656H128.142V78.5472H128.592V79.8656Z"
    fill="#F21616"
  />
<path d="M128.592 89.1136H128.142V89.7536H128.592V89.1136Z" fill="#F21616" />
<path
    d="M205.38 77.4848C205.847 77.4848 206.226 77.0808 206.226 76.5824C206.226 76.084 205.847 75.68 205.38 75.68C204.913 75.68 204.534 76.084 204.534 76.5824C204.534 77.0808 204.913 77.4848 205.38 77.4848Z"
    fill="#F21616"
  />
<path
    d="M127.524 89.7088C127.524 89.8873 127.574 90.0617 127.667 90.2101C127.76 90.3585 127.892 90.4742 128.046 90.5425C128.201 90.6108 128.371 90.6287 128.535 90.5939C128.699 90.559 128.85 90.4731 128.968 90.3469C129.087 90.2207 129.167 90.0599 129.2 89.8849C129.232 89.7098 129.216 89.5284 129.152 89.3635C129.088 89.1986 128.979 89.0576 128.84 88.9585C128.701 88.8593 128.537 88.8064 128.37 88.8064C128.146 88.8064 127.93 88.9015 127.772 89.0707C127.613 89.2399 127.524 89.4695 127.524 89.7088Z"
    fill="#F21616"
  />
<path
    d="M103.366 184.347C108.917 169.825 102.379 153.252 88.7644 147.331C75.1495 141.411 59.6127 148.384 54.0621 162.907C48.5115 177.429 55.0489 194.002 68.6639 199.922C82.2788 205.843 97.8156 198.87 103.366 184.347Z"
    fill="white"
  />
<path
    d="M105.336 173.638C105.468 184.902 98.736 195.699 88.938 199.962C71.328 207.846 51.828 194.003 51.792 173.638C51.756 153.274 71.328 139.424 88.938 147.309C98.712 151.571 105.468 162.368 105.336 173.638ZM105.336 173.638C105.42 162.413 98.664 151.616 88.866 147.494C71.556 139.91 52.338 153.67 52.392 173.638C52.332 193.6 71.556 207.366 88.866 199.776C98.664 195.654 105.42 184.864 105.336 173.638Z"
    fill="#263238"
  />
<path
    d="M62.664 171.29C62.5717 171.226 62.4649 171.191 62.3552 171.188C62.2455 171.185 62.1371 171.214 62.0418 171.272C61.9466 171.33 61.868 171.415 61.8148 171.518C61.7616 171.62 61.7357 171.736 61.74 171.853C61.7338 171.891 61.7338 171.93 61.74 171.968C61.7489 172.083 61.7855 172.194 61.8464 172.29C61.9073 172.386 61.9903 172.463 62.0875 172.515C62.1847 172.566 62.2927 172.59 62.401 172.584C62.5094 172.578 62.6144 172.542 62.706 172.48C62.7995 172.414 62.8755 172.323 62.9266 172.217C62.9778 172.11 63.0025 171.992 62.9983 171.872C62.9941 171.753 62.9611 171.636 62.9026 171.534C62.844 171.432 62.7619 171.348 62.664 171.29Z"
    fill="#62CDD9"
  />
<path
    d="M92.13 184.173C92.0353 184.12 91.9296 184.093 91.8227 184.096C91.7159 184.098 91.6113 184.129 91.5186 184.186C91.4259 184.242 91.3481 184.323 91.2924 184.42C91.2367 184.518 91.2049 184.629 91.2 184.742C91.1938 184.778 91.1938 184.815 91.2 184.851C91.1991 184.971 91.2299 185.089 91.2888 185.191C91.3476 185.293 91.4322 185.376 91.5329 185.429C91.6337 185.483 91.7464 185.505 91.8583 185.493C91.9703 185.481 92.0769 185.436 92.166 185.363C92.2597 185.298 92.3361 185.207 92.3878 185.101C92.4395 184.995 92.4648 184.877 92.4612 184.757C92.4576 184.638 92.4252 184.521 92.3672 184.419C92.3092 184.316 92.2275 184.232 92.13 184.173Z"
    fill="#62CDD9"
  />
<path
    d="M88.758 155.315C88.6658 155.38 88.5923 155.471 88.5455 155.578C88.4987 155.685 88.4805 155.804 88.4929 155.921C88.5053 156.038 88.5479 156.149 88.6158 156.242C88.6838 156.335 88.7745 156.406 88.878 156.448L88.974 156.499C89.0768 156.547 89.1901 156.563 89.3011 156.546C89.412 156.529 89.5162 156.478 89.6018 156.401C89.6874 156.324 89.751 156.222 89.7853 156.109C89.8196 155.995 89.8233 155.873 89.796 155.757C89.7774 155.639 89.7305 155.528 89.66 155.435C89.5895 155.341 89.4977 155.269 89.3934 155.225C89.2891 155.18 89.1759 155.165 89.0646 155.181C88.9533 155.197 88.8477 155.243 88.758 155.315Z"
    fill="#62CDD9"
  />
<path
    d="M64.938 170.682C64.8846 170.744 64.8498 170.821 64.838 170.904C64.8263 170.988 64.8381 171.073 64.872 171.149C64.8985 171.234 64.9472 171.31 65.0124 171.367C65.0777 171.424 65.1568 171.46 65.2405 171.47C65.3242 171.481 65.4091 171.466 65.4851 171.427C65.5612 171.389 65.6253 171.327 65.67 171.251C65.7253 171.147 65.7428 171.025 65.7192 170.909C65.6956 170.792 65.6326 170.689 65.5422 170.618C65.4517 170.548 65.3402 170.515 65.2288 170.527C65.1173 170.539 65.0138 170.594 64.938 170.682Z"
    fill="#62CDD9"
  />
<path
    d="M61.728 169.338C61.6628 169.357 61.6055 169.399 61.5646 169.457C61.5238 169.515 61.5017 169.585 61.5017 169.658C61.5017 169.73 61.5238 169.8 61.5646 169.858C61.6055 169.916 61.6628 169.958 61.728 169.978C61.7932 169.958 61.8506 169.916 61.8914 169.858C61.9322 169.8 61.9543 169.73 61.9543 169.658C61.9543 169.585 61.9322 169.515 61.8914 169.457C61.8506 169.399 61.7932 169.357 61.728 169.338Z"
    fill="#62CDD9"
  />
<path
    d="M65.7359 191.213C65.6707 191.233 65.6134 191.275 65.5726 191.332C65.5317 191.39 65.5096 191.46 65.5096 191.533C65.5096 191.605 65.5317 191.675 65.5726 191.733C65.6134 191.791 65.6707 191.833 65.7359 191.853C65.8011 191.833 65.8585 191.791 65.8993 191.733C65.9402 191.675 65.9622 191.605 65.9622 191.533C65.9622 191.46 65.9402 191.39 65.8993 191.332C65.8585 191.275 65.8011 191.233 65.7359 191.213Z"
    fill="#62CDD9"
  />
<path
    d="M86.76 152.8C86.7438 152.842 86.7356 152.887 86.7357 152.932C86.7359 152.978 86.7444 153.023 86.7608 153.065C86.7773 153.107 86.8013 153.145 86.8315 153.177C86.8617 153.209 86.8976 153.234 86.937 153.251C86.9763 153.268 87.0185 153.277 87.0611 153.277C87.1037 153.277 87.1458 153.268 87.1851 153.25C87.2244 153.233 87.26 153.207 87.29 153.175C87.32 153.143 87.3438 153.104 87.36 153.062C87.3926 152.978 87.3923 152.882 87.3591 152.798C87.3259 152.713 87.2625 152.646 87.1829 152.611C87.1034 152.576 87.0141 152.577 86.9348 152.612C86.8555 152.648 86.7926 152.715 86.76 152.8Z"
    fill="#62CDD9"
  />
<path
    d="M94.1579 178.56C94.0927 178.58 94.0354 178.622 93.9946 178.68C93.9537 178.737 93.9316 178.808 93.9316 178.88C93.9316 178.952 93.9537 179.023 93.9946 179.08C94.0354 179.138 94.0927 179.18 94.1579 179.2C94.2231 179.18 94.2805 179.138 94.3213 179.08C94.3622 179.023 94.3842 178.952 94.3842 178.88C94.3842 178.808 94.3622 178.737 94.3213 178.68C94.2805 178.622 94.2231 178.58 94.1579 178.56Z"
    fill="#62CDD9"
  />
<path
    d="M85.2 160.32C85.0395 161.331 84.6017 162.268 83.9419 163.013C83.282 163.759 82.4299 164.279 81.4931 164.507C80.5563 164.736 79.5769 164.664 78.6788 164.299C77.7806 163.934 77.004 163.293 76.4472 162.458C75.8903 161.622 75.5782 160.63 75.5503 159.605C75.5223 158.58 75.7798 157.57 76.2902 156.701C76.8006 155.833 77.541 155.145 78.4178 154.725C79.2945 154.305 80.2683 154.172 81.216 154.342C81.8456 154.456 82.4482 154.7 82.9893 155.062C83.5303 155.423 83.9993 155.895 84.3693 156.451C84.7392 157.006 85.0031 157.633 85.1456 158.297C85.2881 158.961 85.3066 159.648 85.2 160.32Z"
    fill="#62CDD9"
  />
<path
    d="M84.8231 164.698L74.6648 162.869L74.4172 164.434L84.5755 166.263L84.8231 164.698Z"
    fill="#62CDD9"
  />
<path
    opacity="0.1"
    d="M84.8231 164.698L74.6648 162.869L74.4172 164.434L84.5755 166.263L84.8231 164.698Z"
    fill="black"
  />
<path
    d="M86.3456 188.206L65.6863 184.422L65.4333 185.993L86.0926 189.777L86.3456 188.206Z"
    fill="#62CDD9"
  />
<path
    opacity="0.1"
    d="M86.3456 188.206L65.6863 184.422L65.4333 185.993L86.0926 189.777L86.3456 188.206Z"
    fill="black"
  />
<path
    d="M85.9335 191.523L65.3566 187.818L65.1089 189.383L85.6859 193.088L85.9335 191.523Z"
    fill="#62CDD9"
  />
<path
    opacity="0.1"
    d="M85.9335 191.523L65.3566 187.818L65.1089 189.383L85.6859 193.088L85.9335 191.523Z"
    fill="black"
  />
<path
    d="M85.6189 188.568L66.5742 185.139L66.1279 187.96L85.1725 191.389L85.6189 188.568Z"
    fill="#62CDD9"
  />
<path
    d="M83.6131 166.1L75.3246 164.606L75.0767 166.172L83.3652 167.665L83.6131 166.1Z"
    fill="#62CDD9"
  />
<path
    d="M84.738 186.81L67.938 183.776C67.938 183.776 72.42 180.378 74.004 175.616C75.324 171.597 76.488 166.413 76.488 166.413L82.044 167.411C82.044 167.411 81.54 172.717 81.558 176.979C81.552 182.022 84.738 186.81 84.738 186.81Z"
    fill="#62CDD9"
  />
<path
    d="M80.5734 142.156L80.557 142.796L81.0068 142.809L81.0233 142.17L80.5734 142.156Z"
    fill="#62CDD9"
  />
<path
    d="M81.054 140.922H80.604V139.693H81.054V140.922ZM81.114 138.458H80.664L80.7 137.222H81.15L81.114 138.458ZM81.18 135.994H80.73V134.758H81.18V135.994ZM81.246 133.523H80.796L80.826 132.294H81.276L81.246 133.523ZM81.306 131.059H80.856L80.892 129.824H81.342L81.306 131.059ZM81.372 128.595H80.922V127.36H81.372V128.595ZM81.438 126.125H80.988L81.018 124.89H81.468L81.438 126.125ZM81.498 123.661H81.048L81.084 122.426H81.534L81.498 123.661Z"
    fill="#62CDD9"
  />
<path
    d="M81.564 121.197L81.114 121.178L81.138 120.307H81.954V120.787H81.576L81.564 121.197Z"
    fill="#62CDD9"
  />
<path
    d="M89.184 120.787H87.984V120.32H89.184V120.787ZM86.784 120.787H85.584V120.32H86.784V120.787ZM84.384 120.787H83.184V120.32H84.384V120.787Z"
    fill="#62CDD9"
  />
<path d="M90.99 120.307H90.39V120.787H90.99V120.307Z" fill="#62CDD9" />
<path
    d="M81.6 142.771C81.5952 142.95 81.5409 143.122 81.444 143.268C81.3471 143.413 81.2119 143.525 81.0556 143.588C80.8993 143.652 80.7288 143.665 80.5657 143.625C80.4026 143.585 80.2543 143.495 80.1394 143.365C80.0245 143.235 79.9482 143.072 79.9202 142.896C79.8923 142.72 79.9138 142.539 79.9821 142.377C80.0505 142.214 80.1626 142.076 80.3042 141.981C80.4459 141.886 80.6108 141.838 80.778 141.843C80.8891 141.847 80.9985 141.873 81.1 141.922C81.2014 141.97 81.2929 142.039 81.3693 142.125C81.4456 142.212 81.5053 142.313 81.5449 142.424C81.5844 142.535 81.6032 142.653 81.6 142.771Z"
    fill="#62CDD9"
  />
<path
    d="M90.9481 121.446C91.1154 121.446 91.2789 121.393 91.4181 121.294C91.5572 121.195 91.6656 121.054 91.7297 120.889C91.7937 120.724 91.8104 120.543 91.7778 120.368C91.7452 120.193 91.6646 120.032 91.5463 119.906C91.428 119.78 91.2772 119.694 91.1131 119.659C90.949 119.624 90.7789 119.642 90.6243 119.71C90.4697 119.779 90.3376 119.894 90.2446 120.043C90.1517 120.191 90.1021 120.366 90.1021 120.544C90.1021 120.783 90.1912 121.013 90.3498 121.182C90.5085 121.351 90.7237 121.446 90.9481 121.446Z"
    fill="#62CDD9"
  />
<path
    d="M58.5571 122.492C72.8814 118.956 81.8063 103.704 78.4914 88.4244C75.1765 73.1451 60.877 63.6252 46.5526 67.1611C32.2283 70.697 23.3034 85.9498 26.6183 101.229C29.9333 116.508 44.2327 126.028 58.5571 122.492Z"
    fill="white"
  />
<path
    d="M79.2 94.8288C79.332 106.093 72.6 116.89 62.802 121.152C45.192 129.037 25.692 115.2 25.662 94.8288C25.632 74.4576 45.168 60.6144 62.778 68.48C72.552 72.7424 79.308 83.5456 79.176 94.8096L79.2 94.8288ZM79.2 94.8288C79.284 83.6032 72.534 72.8064 62.73 68.6912C45.396 61.1072 26.178 74.88 26.232 94.8288C26.172 114.79 45.396 128.557 62.706 120.966C72.504 116.845 79.26 106.054 79.176 94.8288H79.2Z"
    fill="#263238"
  />
<path
    d="M64.644 84.5568C64.7474 84.5862 64.8562 84.587 64.96 84.5591C65.0638 84.5312 65.1592 84.4756 65.2373 84.3975C65.3154 84.3193 65.3735 84.2213 65.4061 84.1126C65.4388 84.0038 65.4449 83.888 65.424 83.776C65.4274 83.7398 65.4274 83.7034 65.424 83.6672C65.3991 83.5503 65.3438 83.4432 65.2646 83.3582C65.1853 83.2731 65.0853 83.2135 64.9759 83.1862C64.8664 83.1588 64.752 83.1648 64.6455 83.2035C64.5391 83.2421 64.4451 83.3119 64.374 83.4048C64.2961 83.49 64.2399 83.595 64.2108 83.7099C64.1817 83.8248 64.1806 83.9457 64.2076 84.0612C64.2347 84.1766 64.289 84.2828 64.3654 84.3696C64.4418 84.4563 64.5377 84.5208 64.644 84.5568Z"
    fill="#F2B705"
  />
<path
    d="M32.0881 86.0032C31.9938 85.95 31.8884 85.9233 31.7818 85.9254C31.6751 85.9276 31.5708 85.9585 31.4784 86.0155C31.3861 86.0724 31.3088 86.1534 31.2538 86.2509C31.1988 86.3483 31.168 86.4591 31.1641 86.5728C31.1579 86.6088 31.1579 86.6456 31.1641 86.6816C31.1632 86.8015 31.194 86.9193 31.2529 87.0215C31.3117 87.1237 31.3964 87.2062 31.4971 87.2596C31.5978 87.313 31.7105 87.3351 31.8224 87.3234C31.9344 87.3118 32.041 87.2668 32.1301 87.1936C32.2236 87.1275 32.2996 87.0369 32.3507 86.9305C32.4019 86.824 32.4266 86.7054 32.4224 86.5858C32.4182 86.4663 32.3852 86.3499 32.3267 86.2479C32.2681 86.1458 32.186 86.0616 32.0881 86.0032Z"
    fill="#F2B705"
  />
<path
    d="M43.122 104.422C43.0297 104.359 42.9229 104.324 42.8132 104.321C42.7035 104.318 42.5951 104.347 42.4999 104.405C42.4046 104.463 42.3261 104.548 42.2729 104.65C42.2196 104.753 42.1938 104.869 42.198 104.986C42.1951 105.024 42.1951 105.062 42.198 105.101C42.2069 105.216 42.2436 105.327 42.3044 105.423C42.3653 105.519 42.4484 105.596 42.5456 105.648C42.6427 105.699 42.7507 105.723 42.8591 105.717C42.9674 105.711 43.0725 105.675 43.164 105.613C43.2575 105.547 43.3335 105.456 43.3847 105.35C43.4359 105.243 43.4606 105.125 43.4563 105.005C43.4521 104.885 43.4192 104.769 43.3606 104.667C43.3021 104.565 43.2199 104.481 43.122 104.422Z"
    fill="#F2B705"
  />
<path
    d="M62.5681 85.7024C62.6045 85.629 62.6205 85.5459 62.6141 85.4632C62.6077 85.3804 62.5793 85.3013 62.5321 85.2352C62.4883 85.1586 62.4251 85.0969 62.3498 85.0572C62.2745 85.0174 62.1901 85.0013 62.1065 85.0107C62.0229 85.0201 61.9436 85.0546 61.8776 85.1102C61.8117 85.1658 61.7619 85.2402 61.7341 85.3248C61.7024 85.4393 61.7113 85.5622 61.7591 85.6701C61.8069 85.7781 61.8903 85.8635 61.9933 85.9101C62.0963 85.9568 62.2118 85.9614 62.3178 85.9231C62.4238 85.8847 62.5129 85.8062 62.5681 85.7024Z"
    fill="#F2B705"
  />
<path
    d="M66 86.2144C66.0796 86.194 66.1483 86.1408 66.1911 86.0664C66.2338 85.9919 66.2471 85.9025 66.228 85.8176C66.2089 85.7327 66.159 85.6594 66.0892 85.6138C66.0195 85.5682 65.9356 85.554 65.856 85.5744C65.7765 85.5948 65.7077 85.648 65.665 85.7224C65.6222 85.7968 65.6089 85.8863 65.628 85.9712C65.6471 86.0561 65.697 86.1294 65.7668 86.175C65.8366 86.2206 65.9205 86.2348 66 86.2144Z"
    fill="#F2B705"
  />
<path
    d="M34.7461 84.48C34.6809 84.4998 34.6235 84.5418 34.5827 84.5996C34.5419 84.6573 34.5198 84.7277 34.5198 84.8C34.5198 84.8723 34.5419 84.9427 34.5827 85.0004C34.6235 85.0581 34.6809 85.1001 34.7461 85.12C34.8113 85.1001 34.8686 85.0581 34.9095 85.0004C34.9503 84.9427 34.9724 84.8723 34.9724 84.8C34.9724 84.7277 34.9503 84.6573 34.9095 84.5996C34.8686 84.5418 34.8113 84.4998 34.7461 84.48Z"
    fill="#F2B705"
  />
<path
    d="M46.056 108.365C45.9908 108.385 45.9335 108.427 45.8926 108.484C45.8518 108.542 45.8297 108.612 45.8297 108.685C45.8297 108.757 45.8518 108.827 45.8926 108.885C45.9335 108.943 45.9908 108.985 46.056 109.005C46.1212 108.985 46.1786 108.943 46.2194 108.885C46.2602 108.827 46.2823 108.757 46.2823 108.685C46.2823 108.612 46.2602 108.542 46.2194 108.484C46.1786 108.427 46.1212 108.385 46.056 108.365Z"
    fill="#F2B705"
  />
<path
    d="M74.868 100.544C74.8028 100.564 74.7455 100.606 74.7046 100.664C74.6638 100.721 74.6417 100.792 74.6417 100.864C74.6417 100.936 74.6638 101.007 74.7046 101.064C74.7455 101.122 74.8028 101.164 74.868 101.184C74.9332 101.164 74.9906 101.122 75.0314 101.064C75.0722 101.007 75.0943 100.936 75.0943 100.864C75.0943 100.792 75.0722 100.721 75.0314 100.664C74.9906 100.606 74.9332 100.564 74.868 100.544Z"
    fill="#F2B705"
  />
<path
    d="M31.0021 93.0048L30.8581 93.4784L30.5461 94.4896L30.4741 94.7328C29.4361 99.8208 69.1081 109.856 70.5241 102.31L70.9021 101.139C70.9021 101.139 70.9021 101.094 70.9021 101.069L70.9621 100.883L69.9481 100.115C66.5641 94.9952 49.6801 89.568 40.0501 88.7104L36.4501 87.328V87.3728V87.424C36.2641 87.9527 36.1098 88.4936 35.9881 89.0432C36.1801 89.7152 38.8441 91.0464 39.9961 92.0768C40.3501 92.3968 40.5541 92.6848 40.5121 92.9216C40.2661 94.2016 34.6021 92.864 31.9021 93.5936L31.1101 93.056L31.0021 93.0048ZM49.4881 93.8432C49.3021 94.5664 47.7961 94.752 46.1341 94.2592C44.4721 93.7664 43.2841 92.7808 43.4701 92.0512C43.6561 91.3216 45.1621 91.1424 46.8181 91.6352C48.4741 92.128 49.6741 93.1136 49.4881 93.8432Z"
    fill="#F2B705"
  />
<path
    d="M30.906 93.3184L30.858 93.4784C30.858 93.4784 30.858 93.5104 30.858 93.5232C29.772 98.7584 68.478 108.461 70.914 101.139C70.914 101.139 70.914 101.094 70.914 101.069C70.9335 101.004 70.9495 100.937 70.962 100.87C72.234 94.272 46.806 86.4832 37.266 87.0912C36.78 87.0912 36.516 87.2064 36.414 87.3344C36.4123 87.3472 36.4123 87.3601 36.414 87.3728C36.4085 87.3894 36.4085 87.4075 36.414 87.424C36.228 88.2624 41.124 90.4128 40.914 91.5072C40.854 91.8208 40.5 91.9936 39.96 92.0768C37.722 92.4288 32.286 91.328 31.074 93.056C31.0076 93.1354 30.9511 93.2236 30.906 93.3184ZM46.134 94.2592C44.472 93.7664 43.284 92.7808 43.47 92.0512C43.656 91.3216 45.162 91.1424 46.818 91.6352C48.474 92.128 49.674 93.1136 49.488 93.8432C49.302 94.5728 47.796 94.752 46.134 94.2592Z"
    fill="#F2B705"
  />
<path
    opacity="0.2"
    d="M30.906 93.3184L30.858 93.4784C30.858 93.4784 30.858 93.5104 30.858 93.5232C29.772 98.7584 68.478 108.461 70.914 101.139C70.914 101.139 70.914 101.094 70.914 101.069C70.9335 101.004 70.9495 100.937 70.962 100.87C72.234 94.272 46.806 86.4832 37.266 87.0912C36.78 87.0912 36.516 87.2064 36.414 87.3344C36.4123 87.3472 36.4123 87.3601 36.414 87.3728C36.4085 87.3894 36.4085 87.4075 36.414 87.424C36.228 88.2624 41.124 90.4128 40.914 91.5072C40.854 91.8208 40.5 91.9936 39.96 92.0768C37.722 92.4288 32.286 91.328 31.074 93.056C31.0076 93.1354 30.9511 93.2236 30.906 93.3184ZM47.874 94.5344C47.2851 94.5259 46.6999 94.4334 46.134 94.2592C44.472 93.7664 43.284 92.7808 43.47 92.0512C43.5161 91.9249 43.5897 91.8121 43.6846 91.722C43.7795 91.6319 43.8931 91.5671 44.016 91.5328C44.9395 91.2756 45.9132 91.3112 46.818 91.6352C48.486 92.128 49.674 93.1136 49.488 93.8432C49.368 94.2976 48.738 94.5344 47.874 94.5344Z"
    fill="black"
  />
<path
    d="M44.0161 91.52C44.6028 91.5262 45.186 91.6166 45.7501 91.7888C47.4121 92.288 48.6061 93.2736 48.4201 93.9968C48.3743 94.124 48.301 94.2378 48.2061 94.329C48.1112 94.4203 47.9975 94.4862 47.8741 94.5216C48.7381 94.5216 49.3681 94.2848 49.4881 93.8304C49.6741 93.1008 48.4861 92.1152 46.8181 91.6224C45.9133 91.2984 44.9396 91.2628 44.0161 91.52Z"
    fill="#F2B705"
  />
<path
    d="M43.692 95.3216C44.2282 95.5345 44.6866 95.9247 45 96.4352C45.0848 96.5673 45.1395 96.7187 45.1599 96.8773C45.1802 97.0359 45.1657 97.1974 45.1174 97.3489C45.069 97.5005 44.9883 97.6379 44.8815 97.7504C44.7746 97.8628 44.6447 97.9472 44.502 97.9968C43.188 98.5088 40.224 97.6448 40.302 95.7632C40.332 94.08 42.402 94.6176 43.692 95.3216Z"
    fill="#455A64"
  />
<path
    d="M50.274 99.36L50.124 99.2448C49.9557 99.1379 49.8022 99.0065 49.668 98.8544C49.5365 98.7017 49.4418 98.5172 49.392 98.3168C49.3513 98.1859 49.3513 98.0445 49.392 97.9136C49.4334 97.7253 49.5262 97.5543 49.6586 97.4222C49.791 97.2901 49.9571 97.2028 50.136 97.1712C50.712 97.0945 51.296 97.1205 51.864 97.248C52.704 97.312 53.388 96.9344 54.216 97.2096C55.044 97.4848 56.112 98.304 56.112 99.2512C56.106 101.76 51.426 100.141 50.274 99.36Z"
    fill="#F2B705"
  />
<path
    d="M55.068 92.3072C53.904 93.2864 55.416 94.6432 56.304 94.9632C57.192 95.2832 59.742 96.0576 59.904 94.5344C60.024 93.6192 59.184 93.1072 58.332 92.8704C57.318 92.192 55.872 91.6352 55.068 92.3072Z"
    fill="#263238"
  />
<path
    d="M66.69 98.176C67.488 99.776 65.712 100.922 64.428 100.877C63.4218 100.789 62.4289 100.574 61.47 100.237C60.87 100.038 60.27 99.5968 60.27 98.8544C60.27 97.3696 61.71 97.1328 62.976 97.2224C64.386 96.9216 66.054 96.8896 66.69 98.176Z"
    fill="#D9D9D9"
  />
<path
    d="M58.374 95.744C58.374 95.744 61.236 92.9856 64.08 89.984C66.924 86.9824 74.28 81.9136 74.556 82.0416C74.832 82.1696 68.508 88.8512 65.4 91.424C62.292 93.9968 58.98 96.3776 58.98 96.3776L58.374 95.744Z"
    fill="#455A64"
  />
<path
    d="M58.368 95.5456L60.498 93.2992L61.518 94.6432L59.088 96.4352L58.368 95.5456Z"
    fill="#D9D9D9"
  />
<path
    d="M58.3681 95.5456C57.8948 95.5631 57.4335 95.7085 57.0274 95.9682C56.6212 96.2279 56.2836 96.5934 56.0461 97.0304C55.8695 97.4228 55.6183 97.7717 55.3084 98.0549C54.9985 98.338 54.6367 98.5493 54.2461 98.6752C54.2461 98.6752 57.7081 99.52 59.0461 96.4352L58.3681 95.5456Z"
    fill="#263238"
  />
<path
    d="M54.132 98.72C54.252 98.5216 55.188 98.3296 55.656 97.5872C56.124 96.8448 58.002 98.3744 56.946 98.7072C55.746 99.0848 53.916 99.0848 54.132 98.72Z"
    fill="#F2B705"
  />
<path d="M74.8981 73.2736H74.2981V73.7536H74.8981V73.2736Z" fill="#F2B705" />
<path
    d="M102.288 73.7536H101.04V73.2736H102.288V73.7536ZM99.798 73.7536H98.55V73.2736H99.798V73.7536ZM97.308 73.7536H96.06V73.2736H97.308V73.7536ZM94.818 73.7536H93.6V73.2736H94.8L94.818 73.7536ZM92.328 73.7536H91.08V73.2736H92.328V73.7536ZM89.838 73.7536H88.59V73.2736H89.838V73.7536ZM87.348 73.7536H86.1V73.2736H87.348V73.7536ZM84.858 73.7536H83.61V73.2736H84.858V73.7536ZM82.368 73.7536H81.12V73.2736H82.368V73.7536ZM79.878 73.7536H78.63V73.2736H79.878V73.7536ZM77.388 73.7536H76.14V73.2736H77.4L77.388 73.7536Z"
    fill="#F2B705"
  />
<path
    d="M104.358 74.1504H103.908V73.7536H103.536V73.2736H104.358V74.1504Z"
    fill="#F2B705"
  />
<path d="M104.358 75.488H103.908V76.8256H104.358V75.488Z" fill="#F2B705" />
<path d="M104.358 78.1568H103.908V78.7968H104.358V78.1568Z" fill="#F2B705" />
<path
    d="M74.34 74.4128C74.1727 74.4128 74.0091 74.3599 73.87 74.2607C73.7309 74.1616 73.6224 74.0207 73.5584 73.8558C73.4944 73.6909 73.4776 73.5094 73.5103 73.3344C73.5429 73.1593 73.6235 72.9985 73.7418 72.8723C73.8601 72.7461 74.0109 72.6602 74.175 72.6254C74.3391 72.5906 74.5092 72.6084 74.6638 72.6767C74.8184 72.745 74.9505 72.8607 75.0434 73.0091C75.1364 73.1575 75.186 73.332 75.186 73.5104C75.186 73.7498 75.0969 73.9793 74.9382 74.1485C74.7796 74.3178 74.5644 74.4128 74.34 74.4128Z"
    fill="#F2B705"
  />
<path
    d="M103.29 78.752C103.29 78.9305 103.34 79.105 103.433 79.2534C103.526 79.4018 103.658 79.5174 103.812 79.5857C103.967 79.654 104.137 79.6719 104.301 79.6371C104.465 79.6023 104.616 79.5163 104.734 79.3901C104.853 79.2639 104.933 79.1031 104.966 78.9281C104.998 78.753 104.982 78.5716 104.918 78.4067C104.854 78.2418 104.745 78.1008 104.606 78.0017C104.467 77.9025 104.303 77.8496 104.136 77.8496C103.912 77.8496 103.696 77.9447 103.538 78.1139C103.379 78.2831 103.29 78.5127 103.29 78.752Z"
    fill="#F2B705"
  />
<path
    d="M120.672 117.76V115.398L118.032 115.117C117.901 113.844 117.587 112.601 117.102 111.43L119.244 109.792L118.134 107.738L115.734 108.902C115.02 107.875 114.164 106.969 113.196 106.214L114.282 103.654L112.362 102.47L110.814 104.762C109.715 104.251 108.55 103.921 107.358 103.782L107.094 100.986H104.88L104.616 103.795C103.423 103.941 102.258 104.277 101.16 104.794L99.6 102.522L97.686 103.68L98.772 106.24C97.8116 107.005 96.9624 107.917 96.252 108.947L93.852 107.789L92.736 109.837L94.89 111.482C94.4096 112.656 94.1001 113.901 93.972 115.174L91.35 115.456V117.818L93.978 118.099C94.1192 119.371 94.4366 120.613 94.92 121.786L92.772 123.424L93.888 125.478L96.288 124.32C97.0031 125.344 97.8564 126.25 98.82 127.008L97.74 129.568L99.66 130.758L101.202 128.461C102.302 128.974 103.47 129.304 104.664 129.44L104.928 132.237H107.142L107.406 129.434C108.598 129.283 109.763 128.944 110.862 128.429L112.398 130.714L114.324 129.53L113.232 126.97C114.195 126.208 115.045 125.295 115.752 124.262L118.152 125.421L119.262 123.373L117.114 121.728C117.589 120.554 117.898 119.312 118.032 118.042L120.672 117.76ZM106.008 122.048C105 122.048 104.015 121.729 103.177 121.132C102.339 120.534 101.687 119.685 101.301 118.692C100.916 117.699 100.815 116.606 101.012 115.552C101.209 114.498 101.695 113.53 102.408 112.77C103.121 112.01 104.029 111.493 105.018 111.284C106.006 111.075 107.031 111.184 107.962 111.596C108.892 112.008 109.687 112.706 110.246 113.6C110.805 114.495 111.103 115.546 111.102 116.621C111.104 117.336 110.974 118.044 110.719 118.705C110.464 119.366 110.089 119.967 109.616 120.473C109.143 120.979 108.58 121.381 107.961 121.654C107.342 121.928 106.678 122.068 106.008 122.067V122.048Z"
    fill="#F21616"
  />
<g opacity="0.6">
<path
      d="M138.258 106.138L138.33 103.123L136.17 102.88C135.963 101.766 135.556 100.705 134.97 99.7568L136.392 98.0736L134.442 95.8848L132.762 97.3376C131.881 96.6901 130.887 96.2354 129.84 96L129.738 93.8048L126.906 93.7216L126.696 95.9168C125.598 96.1173 124.549 96.5527 123.612 97.1968L122.172 95.8144L120.12 97.888L121.32 99.4944C120.644 100.485 120.172 101.617 119.934 102.816L118.134 102.918L118.062 105.933L119.892 106.138C120.092 107.368 120.534 108.539 121.188 109.574L119.988 110.982L121.932 113.171L123.378 111.891C124.346 112.595 125.445 113.069 126.6 113.28L126.69 115.238L129.522 115.322L129.726 113.248C130.826 113.01 131.869 112.535 132.792 111.853L134.25 113.254L136.308 111.181L134.994 109.453C135.591 108.482 135.999 107.394 136.194 106.253L138.258 106.138ZM128.196 107.52C127.631 107.52 127.079 107.341 126.609 107.007C126.14 106.672 125.774 106.196 125.557 105.639C125.341 105.083 125.285 104.47 125.395 103.879C125.505 103.288 125.777 102.746 126.177 102.319C126.576 101.893 127.085 101.603 127.639 101.486C128.193 101.368 128.767 101.429 129.289 101.659C129.811 101.89 130.257 102.28 130.571 102.781C130.885 103.282 131.052 103.871 131.052 104.474C131.052 105.282 130.751 106.056 130.216 106.628C129.68 107.199 128.953 107.52 128.196 107.52Z"
      fill="#F21616"
    />
</g>
<g opacity="0.6">
<path
      d="M114.102 94.5152L114.984 91.6544L112.98 90.7584C113.084 89.6283 112.982 88.4874 112.68 87.3984L114.48 86.2208L113.208 83.5264L111.204 84.4032C110.538 83.5014 109.71 82.7507 108.768 82.1952L109.266 80.0576L106.572 79.1104L105.78 81.1456C104.679 80.9984 103.561 81.0855 102.492 81.4016L101.484 79.6352L99 80.992L99.738 82.912C98.8249 83.6554 98.0686 84.5952 97.518 85.6704L95.748 85.2096L94.866 88.0704L96.564 88.832C96.422 90.0705 96.5283 91.3271 96.876 92.5184L95.352 93.504L96.6 96.192L98.322 95.4368C99.0434 96.4045 99.9521 97.1947 100.986 97.7536L100.548 99.6736L103.236 100.621L103.992 98.7008C105.11 98.8088 106.236 98.6738 107.304 98.304L108.324 100.096L110.85 98.7392L110.052 96.64C110.887 95.9016 111.575 94.9919 112.074 93.9648L114.102 94.5152ZM104.082 92.8C103.543 92.6258 103.065 92.2852 102.707 91.8213C102.349 91.3573 102.129 90.7907 102.073 90.1931C102.017 89.5954 102.128 88.9935 102.392 88.4632C102.657 87.9329 103.062 87.498 103.558 87.2135C104.054 86.9289 104.618 86.8074 105.179 86.8644C105.739 86.9213 106.271 87.154 106.708 87.5333C107.145 87.9125 107.466 88.4213 107.632 88.9952C107.798 89.5692 107.801 90.1828 107.64 90.7584C107.533 91.1422 107.356 91.4996 107.119 91.8101C106.882 92.1207 106.589 92.3782 106.259 92.5679C105.928 92.7576 105.566 92.8758 105.192 92.9156C104.819 92.9554 104.441 92.9162 104.082 92.8Z"
      fill="#F21616"
    />
</g>
</svg>
