<svg
  width="40"
  height="51"
  viewBox="0 0 40 51"
  fill="none"
  xmlns="http://www.w3.org/2000/svg"
>
<path
    d="M9.55981 10.2874C9.55981 10.2874 13.2606 7.28192 19.9494 7.28192C26.8782 7.28192 30.3342 10.2874 30.3342 10.2874L30.4038 7.21536L27.7998 2.51264C27.7998 2.51264 25.1862 0.239365 19.947 0.239365C14.8902 0.239365 12.0918 2.51264 12.0918 2.51264L9.64141 6.7392L9.55981 10.2874Z"
    fill="#EF284B"
  />
<path
    opacity="0.2"
    d="M9.55981 10.2874C9.55981 10.2874 13.2606 7.28192 19.9494 7.28192C26.8782 7.28192 30.3342 10.2874 30.3342 10.2874L30.4038 7.21536L27.7998 2.51264C27.7998 2.51264 25.1862 0.239365 19.947 0.239365C14.8902 0.239365 12.0918 2.51264 12.0918 2.51264L9.64141 6.7392L9.55981 10.2874Z"
    fill="black"
  />
<path
    d="M10.1167 9.21217C10.1161 8.92092 10.2026 8.63706 10.3636 8.40182C10.5246 8.16658 10.7517 7.9922 11.0119 7.90401C11.0902 8.81192 11.2509 9.70957 11.4919 10.5843H11.4151C11.2452 10.586 11.0766 10.5518 10.9191 10.4836C10.7617 10.4154 10.6184 10.3146 10.4977 10.187C10.377 10.0594 10.2812 9.90756 10.2158 9.74024C10.1504 9.57293 10.1167 9.39344 10.1167 9.21217V9.21217Z"
    fill="#EF284B"
  />
<path
    d="M12.2286 12.832H12.0486V12.3559C12.1062 12.5095 12.1638 12.6656 12.2286 12.832Z"
    fill="#EF284B"
  />
<path
    d="M22.5632 30.0045C22.394 30.0048 22.2265 29.9696 22.0701 29.9008C21.9138 29.832 21.7717 29.7309 21.652 29.6035C21.5323 29.476 21.4373 29.3247 21.3725 29.158C21.3077 28.9914 21.2744 28.8127 21.2744 28.6323V27.8182H19.0592V25.5808H18.4136C18.0718 25.5808 17.7439 25.436 17.5022 25.1782C17.2605 24.9203 17.1248 24.5707 17.1248 24.2061C17.1248 23.8415 17.2605 23.4918 17.5022 23.234C17.7439 22.9762 18.0718 22.8314 18.4136 22.8314H18.5312C20.3288 25.1738 22.0448 27.3395 23.684 29.3056C23.572 29.5176 23.4092 29.6941 23.2123 29.8169C23.0153 29.9397 22.7913 30.0045 22.5632 30.0045V30.0045Z"
    fill="#EF284B"
  />
<path
    d="M16.8414 20.6093V21.024C16.8414 21.3886 16.7056 21.7383 16.4639 21.9961C16.2222 22.2539 15.8944 22.3987 15.5526 22.3987C15.2108 22.3987 14.883 22.2539 14.6413 21.9961C14.3996 21.7383 14.2638 21.3886 14.2638 21.024V20.297H12.0486V12.832H12.2286C13.071 14.9568 14.4246 17.4067 16.515 20.1869L16.8414 20.6093Z"
    fill="#EF284B"
  />
<path
    opacity="0.2"
    d="M16.8414 20.6093V21.024C16.8414 21.3886 16.7056 21.7383 16.4639 21.9961C16.2222 22.2539 15.8944 22.3987 15.5526 22.3987C15.2108 22.3987 14.883 22.2539 14.6413 21.9961C14.3996 21.7383 14.2638 21.3886 14.2638 21.024V20.297H12.0486V12.832H12.2286C13.071 14.9568 14.4246 17.4067 16.515 20.1869L16.8414 20.6093Z"
    fill="#F2F2F2"
  />
<path
    d="M12.0486 2.55873C11.54 3.38621 11.2119 4.3249 11.0886 5.30561H10.0974C10.6398 4.30487 11.2942 3.37818 12.0462 2.54593L12.0486 2.55873Z"
    fill="#EF284B"
  />
<path
    d="M9.83098 5.80736V6.03264C9.83122 6.27604 9.77063 6.51511 9.65547 6.72523C9.54031 6.93536 9.37473 7.10896 9.17578 7.22816C9.38698 6.71616 9.60778 6.24 9.83098 5.80736Z"
    fill="#EF284B"
  />
<path
    d="M9.83108 6.03265V5.80737C9.91268 5.64865 9.99668 5.49505 10.0711 5.34657H11.0791C10.9561 6.19344 10.9311 7.05321 11.0047 7.90657C10.7114 8.0056 10.4611 8.21342 10.2992 8.49238C10.1373 8.77133 10.0744 9.10294 10.122 9.42709C10.1696 9.75123 10.3245 10.0465 10.5587 10.2592C10.7928 10.472 11.0907 10.5883 11.3983 10.5869H11.4799C11.64 11.1874 11.8291 11.7787 12.0463 12.3584V12.832H9.82867V13.6461C9.82865 13.8944 9.76557 14.1381 9.64613 14.3512C9.52669 14.5644 9.35536 14.7391 9.15033 14.8567C8.9453 14.9743 8.71422 15.0305 8.48166 15.0193C8.24909 15.0081 8.02372 14.9299 7.82947 14.793C7.74485 12.1995 8.20401 9.61854 9.17347 7.23841C9.3743 7.1187 9.54129 6.94364 9.65697 6.73152C9.77266 6.51941 9.83279 6.27804 9.83108 6.03265V6.03265Z"
    fill="#EF284B"
  />
<path
    opacity="0.2"
    d="M9.83108 6.03265V5.80737C9.91268 5.64865 9.99668 5.49505 10.0711 5.34657H11.0791C10.9561 6.19344 10.9311 7.05321 11.0047 7.90657C10.7114 8.0056 10.4611 8.21342 10.2992 8.49238C10.1373 8.77133 10.0744 9.10294 10.122 9.42709C10.1696 9.75123 10.3245 10.0465 10.5587 10.2592C10.7928 10.472 11.0907 10.5883 11.3983 10.5869H11.4799C11.64 11.1874 11.8291 11.7787 12.0463 12.3584V12.832H9.82867V13.6461C9.82865 13.8944 9.76557 14.1381 9.64613 14.3512C9.52669 14.5644 9.35536 14.7391 9.15033 14.8567C8.9453 14.9743 8.71422 15.0305 8.48166 15.0193C8.24909 15.0081 8.02372 14.9299 7.82947 14.793C7.74485 12.1995 8.20401 9.61854 9.17347 7.23841C9.3743 7.1187 9.54129 6.94364 9.65697 6.73152C9.77266 6.51941 9.83279 6.27804 9.83108 6.03265V6.03265Z"
    fill="#F2F2F2"
  />
<path
    d="M8.54475 15.0106C8.71388 15.0106 8.88136 14.975 9.03759 14.9059C9.19382 14.8367 9.33573 14.7354 9.45522 14.6078C9.5747 14.4801 9.66941 14.3285 9.73392 14.1617C9.79842 13.995 9.83147 13.8163 9.83115 13.6358V12.832H12.0487V20.3098H9.83115V21.024C9.83076 21.2288 9.78746 21.431 9.70441 21.6157C9.62136 21.8004 9.50067 21.963 9.35115 22.0915C8.43893 19.7707 7.92282 17.2947 7.82715 14.7802C8.03973 14.9309 8.28946 15.0111 8.54475 15.0106Z"
    fill="#EF284B"
  />
<path
    opacity="0.6"
    d="M8.54475 15.0106C8.71388 15.0106 8.88136 14.975 9.03759 14.9059C9.19382 14.8367 9.33573 14.7354 9.45522 14.6078C9.5747 14.4801 9.66941 14.3285 9.73392 14.1617C9.79842 13.995 9.83147 13.8163 9.83115 13.6358V12.832H12.0487V20.3098H9.83115V21.024C9.83076 21.2288 9.78746 21.431 9.70441 21.6157C9.62136 21.8004 9.50067 21.963 9.35115 22.0915C8.43893 19.7707 7.92282 17.2947 7.82715 14.7802C8.03973 14.9309 8.28946 15.0111 8.54475 15.0106Z"
    fill="#F2F2F2"
  />
<path
    d="M33.08 40.5747H32.432C32.1359 40.5736 31.8491 40.4638 31.62 40.2637C31.3909 40.0635 31.2334 39.7854 31.1739 39.4759C31.1145 39.1664 31.1568 38.8446 31.2937 38.5645C31.4306 38.2844 31.6537 38.0631 31.9256 37.9379C34.7288 40.3034 37.2704 41.6883 39.6056 41.911L38.9552 42.8122H37.88V43.6262C37.88 43.9908 37.7442 44.3405 37.5025 44.5983C37.2608 44.8561 36.933 45.001 36.5912 45.001C36.2494 45.001 35.9216 44.8561 35.6799 44.5983C35.4382 44.3405 35.3024 43.9908 35.3024 43.6262V42.8122H33.08V40.5747Z"
    fill="#EF284B"
  />
<path
    opacity="0.5"
    d="M33.08 40.5747H32.432C32.1359 40.5736 31.8491 40.4638 31.62 40.2637C31.3909 40.0635 31.2334 39.7854 31.1739 39.4759C31.1145 39.1664 31.1568 38.8446 31.2937 38.5645C31.4306 38.2844 31.6537 38.0631 31.9256 37.9379C34.7288 40.3034 37.2704 41.6883 39.6056 41.911L38.9552 42.8122H37.88V43.6262C37.88 43.9908 37.7442 44.3405 37.5025 44.5983C37.2608 44.8561 36.933 45.001 36.5912 45.001C36.2494 45.001 35.9216 44.8561 35.6799 44.5983C35.4382 44.3405 35.3024 43.9908 35.3024 43.6262V42.8122H33.08V40.5747Z"
    fill="#F2F2F2"
  />
<path
    d="M30.6367 36.7962C30.4816 37.0377 30.2582 37.2201 29.9991 37.3168C29.74 37.4135 29.4587 37.4194 29.1963 37.3337C28.9338 37.248 28.7038 37.0752 28.5399 36.8403C28.3759 36.6055 28.2865 36.321 28.2847 36.0282V35.2986H26.0671V32.0832C27.6631 33.8803 29.1847 35.4598 30.6367 36.7962Z"
    fill="#EF284B"
  />
<path
    opacity="0.5"
    d="M30.6367 36.7962C30.4816 37.0377 30.2582 37.2201 29.9991 37.3168C29.74 37.4135 29.4587 37.4194 29.1963 37.3337C28.9338 37.248 28.7038 37.0752 28.5399 36.8403C28.3759 36.6055 28.2865 36.321 28.2847 36.0282V35.2986H26.0671V32.0832C27.6631 33.8803 29.1847 35.4598 30.6367 36.7962Z"
    fill="#F2F2F2"
  />
<path
    d="M21.2744 36.023V35.2934H19.0592V32.9715H18.4136C18.0718 32.9715 17.7439 32.8267 17.5022 32.5689C17.2605 32.3111 17.1248 31.9614 17.1248 31.5968C17.1248 31.2322 17.2605 30.8825 17.5022 30.6247C17.7439 30.3669 18.0718 30.2221 18.4136 30.2221H19.0592V27.8182H21.2744V28.6323C21.279 28.9321 21.3754 29.222 21.5489 29.4579C21.7223 29.6938 21.9633 29.8628 22.2352 29.939C22.507 30.0153 22.7947 29.9947 23.0546 29.8803C23.3144 29.766 23.532 29.5641 23.6744 29.3056C24.4872 30.2818 25.2816 31.2077 26.0576 32.0832V35.2934H23.8424V36.023C23.8424 36.3876 23.7066 36.7373 23.4649 36.9951C23.2232 37.2529 22.8954 37.3978 22.5536 37.3978C22.2118 37.3978 21.8839 37.2529 21.6422 36.9951C21.4005 36.7373 21.2648 36.3876 21.2648 36.023H21.2744Z"
    fill="#EF284B"
  />
<path
    d="M21.2744 36.023V35.2934H19.0592V32.9715H18.4136C18.0718 32.9715 17.7439 32.8267 17.5022 32.5689C17.2605 32.3111 17.1248 31.9614 17.1248 31.5968C17.1248 31.2322 17.2605 30.8825 17.5022 30.6247C17.7439 30.3669 18.0718 30.2221 18.4136 30.2221H19.0592V27.8182H21.2744V28.6323C21.279 28.9321 21.3754 29.222 21.5489 29.4579C21.7223 29.6938 21.9633 29.8628 22.2352 29.939C22.507 30.0153 22.7947 29.9947 23.0546 29.8803C23.3144 29.766 23.532 29.5641 23.6744 29.3056C24.4872 30.2818 25.2816 31.2077 26.0576 32.0832V35.2934H23.8424V36.023C23.8424 36.3876 23.7066 36.7373 23.4649 36.9951C23.2232 37.2529 22.8954 37.3978 22.5536 37.3978C22.2118 37.3978 21.8839 37.2529 21.6422 36.9951C21.4005 36.7373 21.2648 36.3876 21.2648 36.023H21.2744Z"
    fill="#EF284B"
  />
<path
    opacity="0.7"
    d="M21.2744 36.023V35.2934H19.0592V32.9715H18.4136C18.0718 32.9715 17.7439 32.8267 17.5022 32.5689C17.2605 32.3111 17.1248 31.9614 17.1248 31.5968C17.1248 31.2322 17.2605 30.8825 17.5022 30.6247C17.7439 30.3669 18.0718 30.2221 18.4136 30.2221H19.0592V27.8182H21.2744V28.6323C21.279 28.9321 21.3754 29.222 21.5489 29.4579C21.7223 29.6938 21.9633 29.8628 22.2352 29.939C22.507 30.0153 22.7947 29.9947 23.0546 29.8803C23.3144 29.766 23.532 29.5641 23.6744 29.3056C24.4872 30.2818 25.2816 31.2077 26.0576 32.0832V35.2934H23.8424V36.023C23.8424 36.3876 23.7066 36.7373 23.4649 36.9951C23.2232 37.2529 22.8954 37.3978 22.5536 37.3978C22.2118 37.3978 21.8839 37.2529 21.6422 36.9951C21.4005 36.7373 21.2648 36.3876 21.2648 36.023H21.2744Z"
    fill="#F2F2F2"
  />
<path
    d="M23.8519 35.3165V36.0231C23.8519 36.3877 23.7161 36.7373 23.4744 36.9951C23.2327 37.2529 22.9049 37.3978 22.5631 37.3978C22.2213 37.3978 21.8935 37.2529 21.6518 36.9951C21.4101 36.7373 21.2743 36.3877 21.2743 36.0231V35.2935H19.0591V37.6845C20.5642 39.6335 22.1665 41.4948 23.8591 43.2602V42.8122H26.0743V40.5747H25.4239C25.0821 40.5747 24.7543 40.4299 24.5126 40.1721C24.2709 39.9143 24.1351 39.5646 24.1351 39.2C24.1351 38.8354 24.2709 38.4858 24.5126 38.2279C24.7543 37.9701 25.0821 37.8253 25.4239 37.8253H26.0671V35.2935H23.8519V35.3165Z"
    fill="#EF284B"
  />
<g opacity="0.2">
<path
      d="M23.8519 35.3165V36.0231C23.8519 36.3877 23.7161 36.7373 23.4744 36.9951C23.2327 37.2529 22.9049 37.3978 22.5631 37.3978C22.2213 37.3978 21.8935 37.2529 21.6518 36.9951C21.4101 36.7373 21.2743 36.3877 21.2743 36.0231V35.2935H19.0591V37.6845C20.5642 39.6335 22.1665 41.4948 23.8591 43.2602V42.8122H26.0743V40.5747H25.4239C25.0821 40.5747 24.7543 40.4299 24.5126 40.1721C24.2709 39.9143 24.1351 39.5646 24.1351 39.2C24.1351 38.8354 24.2709 38.4858 24.5126 38.2279C24.7543 37.9701 25.0821 37.8253 25.4239 37.8253H26.0671V35.2935H23.8519V35.3165Z"
      fill="#F2F2F2"
    />
</g>
<path
    d="M19.0591 35.3344V37.6845C18.4831 36.9447 17.8927 36.1639 17.2903 35.3344L17.2615 35.2935H19.0591V35.3344Z"
    fill="#EF284B"
  />
<path
    d="M14.2639 27.8182V28.6323C14.2639 28.9969 14.3997 29.3466 14.6414 29.6044C14.8831 29.8622 15.2109 30.007 15.5527 30.007C15.8945 30.007 16.2224 29.8622 16.464 29.6044C16.7057 29.3466 16.8415 28.9969 16.8415 28.6323V27.8182H19.0591V30.2221H18.4135C18.0717 30.2221 17.7439 30.3669 17.5022 30.6247C17.2605 30.8825 17.1247 31.2322 17.1247 31.5968C17.1247 31.9614 17.2605 32.3111 17.5022 32.5689C17.7439 32.8267 18.0717 32.9715 18.4135 32.9715H19.0591V35.2934H17.2615C15.6871 33.1277 14.0191 30.6496 12.2695 27.8182H14.2639Z"
    fill="#EF284B"
  />
<path
    d="M33.0799 47.9654H32.4319C32.0901 47.9654 31.7622 47.8206 31.5205 47.5628C31.2789 47.305 31.1431 46.9553 31.1431 46.5907C31.1431 46.2261 31.2789 45.8765 31.5205 45.6186C31.7622 45.3608 32.0901 45.216 32.4319 45.216H33.0799V42.8122H35.2951V43.6262C35.2951 43.9908 35.4308 44.3405 35.6725 44.5983C35.9142 44.8561 36.2421 45.001 36.5839 45.001C36.9257 45.001 37.2535 44.8561 37.4952 44.5983C37.7369 44.3405 37.8727 43.9908 37.8727 43.6262V42.8122H38.9479L33.5599 50.2874C33.3972 50.2516 33.2368 50.2046 33.0799 50.1466V47.9654Z"
    fill="#EF284B"
  />
<path
    opacity="0.2"
    d="M33.0799 47.9654H32.4319C32.0901 47.9654 31.7622 47.8206 31.5205 47.5628C31.2789 47.305 31.1431 46.9553 31.1431 46.5907C31.1431 46.2261 31.2789 45.8765 31.5205 45.6186C31.7622 45.3608 32.0901 45.216 32.4319 45.216H33.0799V42.8122H35.2951V43.6262C35.2951 43.9908 35.4308 44.3405 35.6725 44.5983C35.9142 44.8561 36.2421 45.001 36.5839 45.001C36.9257 45.001 37.2535 44.8561 37.4952 44.5983C37.7369 44.3405 37.8727 43.9908 37.8727 43.6262V42.8122H38.9479L33.5599 50.2874C33.3972 50.2516 33.2368 50.2046 33.0799 50.1466V47.9654Z"
    fill="#F2F2F2"
  />
<path
    d="M28.28 43.6262C28.2725 43.8116 28.3002 43.9966 28.3615 44.1703C28.4229 44.3439 28.5165 44.5024 28.6368 44.6364C28.7571 44.7704 28.9016 44.877 29.0616 44.9499C29.2215 45.0227 29.3936 45.0603 29.5676 45.0603C29.7415 45.0603 29.9136 45.0227 30.0736 44.9499C30.2336 44.877 30.378 44.7704 30.4983 44.6364C30.6186 44.5024 30.7123 44.3439 30.7736 44.1703C30.8349 43.9966 30.8627 43.8116 30.8552 43.6262V42.8122H33.08V45.216H32.432C32.0902 45.216 31.7624 45.3608 31.5207 45.6186C31.279 45.8765 31.1432 46.2261 31.1432 46.5907C31.1432 46.9553 31.279 47.305 31.5207 47.5628C31.7624 47.8206 32.0902 47.9654 32.432 47.9654H33.08V50.1466C32.1032 49.801 29.66 48.695 26.0696 45.4208V42.8122H28.28V43.6262Z"
    fill="#EF284B"
  />
<path
    opacity="0.7"
    d="M28.28 43.6262C28.2725 43.8116 28.3002 43.9966 28.3615 44.1703C28.4229 44.3439 28.5165 44.5024 28.6368 44.6364C28.7571 44.7704 28.9016 44.877 29.0616 44.9499C29.2215 45.0227 29.3936 45.0603 29.5676 45.0603C29.7415 45.0603 29.9136 45.0227 30.0736 44.9499C30.2336 44.877 30.378 44.7704 30.4983 44.6364C30.6186 44.5024 30.7123 44.3439 30.7736 44.1703C30.8349 43.9966 30.8627 43.8116 30.8552 43.6262V42.8122H33.08V45.216H32.432C32.0902 45.216 31.7624 45.3608 31.5207 45.6186C31.279 45.8765 31.1432 46.2261 31.1432 46.5907C31.1432 46.9553 31.279 47.305 31.5207 47.5628C31.7624 47.8206 32.0902 47.9654 32.432 47.9654H33.08V50.1466C32.1032 49.801 29.66 48.695 26.0696 45.4208V42.8122H28.28V43.6262Z"
    fill="#F2F2F2"
  />
<path
    d="M23.8518 43.2602V42.8122H26.067V45.4208C25.371 44.7859 24.6318 44.064 23.8518 43.2602Z"
    fill="#EF284B"
  />
<path
    d="M26.067 35.3344V37.8253H25.4238C25.082 37.8253 24.7542 37.9701 24.5125 38.2279C24.2708 38.4857 24.135 38.8354 24.135 39.2C24.135 39.5646 24.2708 39.9143 24.5125 40.1721C24.7542 40.4299 25.082 40.5747 25.4238 40.5747H26.067V42.8122H28.2798V43.6262C28.2723 43.8116 28.3001 43.9966 28.3614 44.1702C28.4227 44.3439 28.5163 44.5024 28.6366 44.6364C28.7569 44.7704 28.9014 44.877 29.0614 44.9499C29.2214 45.0227 29.3935 45.0603 29.5674 45.0603C29.7413 45.0603 29.9135 45.0227 30.0734 44.9499C30.2334 44.877 30.3779 44.7704 30.4982 44.6364C30.6185 44.5024 30.7121 44.3439 30.7734 44.1702C30.8348 43.9966 30.8625 43.8116 30.855 43.6262V42.8122H33.0798V40.5747H32.4318C32.1357 40.5736 31.8489 40.4638 31.6198 40.2636C31.3907 40.0635 31.2332 39.7853 31.1737 39.4759C31.1143 39.1664 31.1566 38.8446 31.2935 38.5645C31.4304 38.2844 31.6535 38.0631 31.9254 37.9379C31.503 37.5795 31.071 37.1981 30.6366 36.7962C30.4815 37.0377 30.2581 37.2201 29.999 37.3168C29.7399 37.4135 29.4586 37.4194 29.1961 37.3337C28.9337 37.248 28.7037 37.0751 28.5397 36.8403C28.3758 36.6055 28.2864 36.3209 28.2846 36.0282V35.2986H26.067C26.067 35.2986 26.0598 35.3344 26.067 35.3344Z"
    fill="#EF284B"
  />
<path
    opacity="0.4"
    d="M26.067 35.3344V37.8253H25.4238C25.082 37.8253 24.7542 37.9701 24.5125 38.2279C24.2708 38.4857 24.135 38.8354 24.135 39.2C24.135 39.5646 24.2708 39.9143 24.5125 40.1721C24.7542 40.4299 25.082 40.5747 25.4238 40.5747H26.067V42.8122H28.2798V43.6262C28.2723 43.8116 28.3001 43.9966 28.3614 44.1702C28.4227 44.3439 28.5163 44.5024 28.6366 44.6364C28.7569 44.7704 28.9014 44.877 29.0614 44.9499C29.2214 45.0227 29.3935 45.0603 29.5674 45.0603C29.7413 45.0603 29.9135 45.0227 30.0734 44.9499C30.2334 44.877 30.3779 44.7704 30.4982 44.6364C30.6185 44.5024 30.7121 44.3439 30.7734 44.1702C30.8348 43.9966 30.8625 43.8116 30.855 43.6262V42.8122H33.0798V40.5747H32.4318C32.1357 40.5736 31.8489 40.4638 31.6198 40.2636C31.3907 40.0635 31.2332 39.7853 31.1737 39.4759C31.1143 39.1664 31.1566 38.8446 31.2935 38.5645C31.4304 38.2844 31.6535 38.0631 31.9254 37.9379C31.503 37.5795 31.071 37.1981 30.6366 36.7962C30.4815 37.0377 30.2581 37.2201 29.999 37.3168C29.7399 37.4135 29.4586 37.4194 29.1961 37.3337C28.9337 37.248 28.7037 37.0751 28.5397 36.8403C28.3758 36.6055 28.2864 36.3209 28.2846 36.0282V35.2986H26.067C26.067 35.2986 26.0598 35.3344 26.067 35.3344Z"
    fill="#F2F2F2"
  />
<path
    d="M14.2639 20.3405V21.024C14.2639 21.3886 14.3997 21.7383 14.6414 21.9961C14.8831 22.2539 15.2109 22.3987 15.5527 22.3987C15.8945 22.3987 16.2223 22.2539 16.464 21.9961C16.7057 21.7383 16.8415 21.3886 16.8415 21.024V20.6067C17.4127 21.3645 17.9727 22.1052 18.5215 22.8288H18.4039C18.0621 22.8288 17.7343 22.9736 17.4926 23.2314C17.2509 23.4893 17.1151 23.8389 17.1151 24.2035C17.1151 24.5681 17.2509 24.9178 17.4926 25.1756C17.7343 25.4334 18.0621 25.5782 18.4039 25.5782H19.0495V27.8157H16.8319V28.6298C16.8319 28.9944 16.6961 29.344 16.4544 29.6018C16.2127 29.8596 15.8849 30.0045 15.5431 30.0045C15.2013 30.0045 14.8735 29.8596 14.6318 29.6018C14.3901 29.344 14.2543 28.9944 14.2543 28.6298V27.8157H12.2599L12.0391 27.4547V25.5808H11.3959C11.2226 25.5814 11.051 25.5439 10.8919 25.4707C10.6183 24.9587 10.3647 24.4467 10.1311 23.9347C10.1879 23.6213 10.3452 23.3388 10.576 23.1356C10.8068 22.9324 11.0967 22.8213 11.3959 22.8211H12.0391V20.2893H14.2543L14.2639 20.3405Z"
    fill="#EF284B"
  />
<path
    opacity="0.5"
    d="M14.2639 20.3405V21.024C14.2639 21.3886 14.3997 21.7383 14.6414 21.9961C14.8831 22.2539 15.2109 22.3987 15.5527 22.3987C15.8945 22.3987 16.2223 22.2539 16.464 21.9961C16.7057 21.7383 16.8415 21.3886 16.8415 21.024V20.6067C17.4127 21.3645 17.9727 22.1052 18.5215 22.8288H18.4039C18.0621 22.8288 17.7343 22.9736 17.4926 23.2314C17.2509 23.4893 17.1151 23.8389 17.1151 24.2035C17.1151 24.5681 17.2509 24.9178 17.4926 25.1756C17.7343 25.4334 18.0621 25.5782 18.4039 25.5782H19.0495V27.8157H16.8319V28.6298C16.8319 28.9944 16.6961 29.344 16.4544 29.6018C16.2127 29.8596 15.8849 30.0045 15.5431 30.0045C15.2013 30.0045 14.8735 29.8596 14.6318 29.6018C14.3901 29.344 14.2543 28.9944 14.2543 28.6298V27.8157H12.2599L12.0391 27.4547V25.5808H11.3959C11.2226 25.5814 11.051 25.5439 10.8919 25.4707C10.6183 24.9587 10.3647 24.4467 10.1311 23.9347C10.1879 23.6213 10.3452 23.3388 10.576 23.1356C10.8068 22.9324 11.0967 22.8213 11.3959 22.8211H12.0391V20.2893H14.2543L14.2639 20.3405Z"
    fill="#F2F2F2"
  />
<path
    d="M12.0486 25.5808V27.4573C11.9982 27.3779 11.9502 27.2986 11.9022 27.2167C11.5398 26.6279 11.2086 26.0442 10.9014 25.4707C11.0605 25.5439 11.2321 25.5814 11.4054 25.5808H12.0486Z"
    fill="#EF284B"
  />
<path
    d="M12.0488 20.3405V22.8314H11.4056C11.1063 22.8315 10.8164 22.9427 10.5857 23.1459C10.3549 23.3491 10.1976 23.6316 10.1408 23.945C9.84796 23.3152 9.58636 22.6982 9.35596 22.0941C9.50547 21.9655 9.62617 21.803 9.70922 21.6183C9.79227 21.4336 9.83557 21.2314 9.83596 21.0266V20.2995H12.0536L12.0488 20.3405Z"
    fill="#EF284B"
  />
<g opacity="0.7">
<path
      d="M12.0488 25.5808V27.4573C11.9984 27.3779 11.9504 27.2986 11.9024 27.2167C11.54 26.6279 11.2088 26.0442 10.9016 25.4707C11.0607 25.5439 11.2323 25.5814 11.4056 25.5808H12.0488Z"
      fill="#F2F2F2"
    />
<path
      d="M12.0488 20.3405V22.8314H11.4056C11.1063 22.8315 10.8164 22.9427 10.5857 23.1459C10.3549 23.3491 10.1976 23.6316 10.1408 23.945C9.84796 23.3152 9.58636 22.6982 9.35596 22.0941C9.50547 21.9655 9.62617 21.803 9.70922 21.6183C9.79227 21.4336 9.83557 21.2314 9.83596 21.0266V20.2995H12.0536L12.0488 20.3405Z"
      fill="#F2F2F2"
    />
</g>
<path
    d="M29.7558 9.21217C29.7564 8.92092 29.6699 8.63706 29.5089 8.40182C29.3479 8.16658 29.1208 7.9922 28.8606 7.90401C28.7823 8.81192 28.6216 9.70957 28.3806 10.5843H28.4598C28.6296 10.5857 28.7979 10.5512 28.955 10.4828C29.1122 10.4145 29.2552 10.3136 29.3756 10.1861C29.4961 10.0585 29.5917 9.90679 29.657 9.73965C29.7222 9.5725 29.7558 9.39323 29.7558 9.21217Z"
    fill="#EF284B"
  />
<path
    d="M27.6462 12.832H27.8238V12.3559C27.7662 12.5095 27.7086 12.6656 27.6462 12.832Z"
    fill="#EF284B"
  />
<path
    d="M17.3095 30.0045C17.4787 30.0048 17.6462 29.9696 17.8025 29.9008C17.9589 29.832 18.101 29.7309 18.2207 29.6035C18.3404 29.476 18.4354 29.3247 18.5002 29.158C18.565 28.9914 18.5983 28.8127 18.5983 28.6323V27.8182H20.8159V25.5808H21.4591C21.8009 25.5808 22.1287 25.436 22.3704 25.1782C22.6121 24.9203 22.7479 24.5707 22.7479 24.2061C22.7479 23.8415 22.6121 23.4918 22.3704 23.234C22.1287 22.9762 21.8009 22.8314 21.4591 22.8314H21.3415C19.5439 25.1738 17.8279 27.3395 16.1887 29.3056C16.3007 29.5176 16.4635 29.6941 16.6604 29.8169C16.8574 29.9397 17.0814 30.0045 17.3095 30.0045V30.0045Z"
    fill="#EF284B"
  />
<path
    opacity="0.2"
    d="M17.3095 30.0045C17.4787 30.0048 17.6462 29.9696 17.8025 29.9008C17.9589 29.832 18.101 29.7309 18.2207 29.6035C18.3404 29.476 18.4354 29.3247 18.5002 29.158C18.565 28.9914 18.5983 28.8127 18.5983 28.6323V27.8182H20.8159V25.5808H21.4591C21.8009 25.5808 22.1287 25.436 22.3704 25.1782C22.6121 24.9203 22.7479 24.5707 22.7479 24.2061C22.7479 23.8415 22.6121 23.4918 22.3704 23.234C22.1287 22.9762 21.8009 22.8314 21.4591 22.8314H21.3415C19.5439 25.1738 17.8279 27.3395 16.1887 29.3056C16.3007 29.5176 16.4635 29.6941 16.6604 29.8169C16.8574 29.9397 17.0814 30.0045 17.3095 30.0045V30.0045Z"
    fill="#F2F2F2"
  />
<path
    d="M23.031 20.6093V21.024C23.031 21.3886 23.1668 21.7383 23.4085 21.9961C23.6502 22.2539 23.978 22.3987 24.3198 22.3987C24.6616 22.3987 24.9894 22.2539 25.2311 21.9961C25.4728 21.7383 25.6086 21.3886 25.6086 21.024V20.297H27.8238V12.832H27.6462C26.8014 14.9568 25.4502 17.4067 23.3574 20.1869C23.2398 20.3226 23.139 20.4659 23.031 20.6093Z"
    fill="#EF284B"
  />
<path
    opacity="0.2"
    d="M23.031 20.6093V21.024C23.031 21.3886 23.1668 21.7383 23.4085 21.9961C23.6502 22.2539 23.978 22.3987 24.3198 22.3987C24.6616 22.3987 24.9894 22.2539 25.2311 21.9961C25.4728 21.7383 25.6086 21.3886 25.6086 21.024V20.297H27.8238V12.832H27.6462C26.8014 14.9568 25.4502 17.4067 23.3574 20.1869C23.2398 20.3226 23.139 20.4659 23.031 20.6093Z"
    fill="#F2F2F2"
  />
<path
    d="M27.824 2.55873C28.3337 3.38561 28.6619 4.32458 28.784 5.30561H29.7752C29.2328 4.30487 28.5784 3.37818 27.8264 2.54593L27.824 2.55873Z"
    fill="#EF284B"
  />
<path
    d="M30.0415 5.80736V6.03264C30.0413 6.27604 30.1019 6.51511 30.217 6.72523C30.3322 6.93536 30.4978 7.10896 30.6967 7.22816C30.4855 6.71616 30.2647 6.24 30.0415 5.80736Z"
    fill="#EF284B"
  />
<path
    d="M30.0415 6.03265V5.80737C29.9599 5.64865 29.8783 5.49505 29.8015 5.34657H28.7959C28.9167 6.19368 28.9408 7.05327 28.8679 7.90657C29.1609 8.00554 29.411 8.21316 29.573 8.49184C29.7349 8.77052 29.798 9.10184 29.7507 9.42581C29.7034 9.74979 29.5489 10.045 29.3152 10.258C29.0815 10.471 28.784 10.5876 28.4767 10.5869H28.3975C28.2373 11.1874 28.0483 11.7787 27.8311 12.3584V12.832H30.0487V13.6461C30.0487 13.8944 30.1118 14.1381 30.2312 14.3512C30.3506 14.5644 30.522 14.7391 30.727 14.8567C30.932 14.9743 31.1631 15.0305 31.3957 15.0193C31.6282 15.0081 31.8536 14.9299 32.0479 14.793C32.1334 12.1994 31.6742 9.61826 30.7039 7.23841C30.5021 7.11937 30.3342 6.9446 30.2176 6.73243C30.1011 6.52027 30.0402 6.27855 30.0415 6.03265V6.03265Z"
    fill="#EF284B"
  />
<path
    opacity="0.5"
    d="M30.0415 6.03265V5.80737C29.9599 5.64865 29.8783 5.49505 29.8015 5.34657H28.7959C28.9167 6.19368 28.9408 7.05327 28.8679 7.90657C29.1609 8.00554 29.411 8.21316 29.573 8.49184C29.7349 8.77052 29.798 9.10184 29.7507 9.42581C29.7034 9.74979 29.5489 10.045 29.3152 10.258C29.0815 10.471 28.784 10.5876 28.4767 10.5869H28.3975C28.2373 11.1874 28.0483 11.7787 27.8311 12.3584V12.832H30.0487V13.6461C30.0487 13.8944 30.1118 14.1381 30.2312 14.3512C30.3506 14.5644 30.522 14.7391 30.727 14.8567C30.932 14.9743 31.1631 15.0305 31.3957 15.0193C31.6282 15.0081 31.8536 14.9299 32.0479 14.793C32.1334 12.1994 31.6742 9.61826 30.7039 7.23841C30.5021 7.11937 30.3342 6.9446 30.2176 6.73243C30.1011 6.52027 30.0402 6.27855 30.0415 6.03265V6.03265Z"
    fill="#F2F2F2"
  />
<path
    d="M31.3304 15.0106C31.161 15.0109 30.9933 14.9756 30.8368 14.9066C30.6803 14.8376 30.5381 14.7364 30.4184 14.6087C30.2986 14.4809 30.2037 14.3293 30.139 14.1623C30.0744 13.9954 30.0413 13.8165 30.0416 13.6358V12.832H27.824V20.3098H30.0416V21.024C30.042 21.2288 30.0853 21.431 30.1683 21.6157C30.2514 21.8004 30.3721 21.963 30.5216 22.0915C31.4338 19.7707 31.9499 17.2947 32.0456 14.7802C31.8337 14.9306 31.5849 15.0108 31.3304 15.0106V15.0106Z"
    fill="#EF284B"
  />
<path
    opacity="0.6"
    d="M31.3304 15.0106C31.161 15.0109 30.9933 14.9756 30.8368 14.9066C30.6803 14.8376 30.5381 14.7364 30.4184 14.6087C30.2986 14.4809 30.2037 14.3293 30.139 14.1623C30.0744 13.9954 30.0413 13.8165 30.0416 13.6358V12.832H27.824V20.3098H30.0416V21.024C30.042 21.2288 30.0853 21.431 30.1683 21.6157C30.2514 21.8004 30.3721 21.963 30.5216 22.0915C31.4338 19.7707 31.9499 17.2947 32.0456 14.7802C31.8337 14.9306 31.5849 15.0108 31.3304 15.0106V15.0106Z"
    fill="#F2F2F2"
  />
<path
    d="M6.79509 40.5747H7.44069C7.73682 40.5736 8.02357 40.4638 8.25269 40.2637C8.48181 40.0635 8.63933 39.7854 8.69876 39.4759C8.75819 39.1664 8.71591 38.8446 8.57901 38.5645C8.44211 38.2844 8.21896 38.0631 7.94709 37.9379C5.14389 40.3034 2.60229 41.6883 0.26709 41.911L0.917491 42.8122H1.99269V43.6262C1.99269 43.9908 2.12847 44.3405 2.37017 44.5983C2.61187 44.8561 2.93968 45.001 3.28149 45.001C3.6233 45.001 3.95111 44.8561 4.19281 44.5983C4.43451 44.3405 4.57029 43.9908 4.57029 43.6262V42.8122H6.78549L6.79509 40.5747Z"
    fill="#EF284B"
  />
<path
    opacity="0.5"
    d="M6.79509 40.5747H7.44069C7.73682 40.5736 8.02357 40.4638 8.25269 40.2637C8.48181 40.0635 8.63933 39.7854 8.69876 39.4759C8.75819 39.1664 8.71591 38.8446 8.57901 38.5645C8.44211 38.2844 8.21896 38.0631 7.94709 37.9379C5.14389 40.3034 2.60229 41.6883 0.26709 41.911L0.917491 42.8122H1.99269V43.6262C1.99269 43.9908 2.12847 44.3405 2.37017 44.5983C2.61187 44.8561 2.93968 45.001 3.28149 45.001C3.6233 45.001 3.95111 44.8561 4.19281 44.5983C4.43451 44.3405 4.57029 43.9908 4.57029 43.6262V42.8122H6.78549L6.79509 40.5747Z"
    fill="#F2F2F2"
  />
<path
    d="M9.23584 36.7962C9.39098 37.0377 9.61437 37.2201 9.87347 37.3168C10.1326 37.4135 10.4138 37.4194 10.6763 37.3337C10.9388 37.248 11.1688 37.0752 11.3327 36.8403C11.4967 36.6055 11.5861 36.321 11.5878 36.0282V35.2986H13.8054V32.0832C12.1998 33.8803 10.6878 35.4598 9.23584 36.7962Z"
    fill="#EF284B"
  />
<path
    opacity="0.5"
    d="M9.23584 36.7962C9.39098 37.0377 9.61437 37.2201 9.87347 37.3168C10.1326 37.4135 10.4138 37.4194 10.6763 37.3337C10.9388 37.248 11.1688 37.0752 11.3327 36.8403C11.4967 36.6055 11.5861 36.321 11.5878 36.0282V35.2986H13.8054V32.0832C12.1998 33.8803 10.6878 35.4598 9.23584 36.7962Z"
    fill="#F2F2F2"
  />
<path
    d="M18.5984 36.023V35.2934H20.816V32.9715H21.4592C21.6284 32.9715 21.796 32.936 21.9524 32.8669C22.1087 32.7978 22.2508 32.6965 22.3705 32.5689C22.4902 32.4412 22.5851 32.2897 22.6499 32.1229C22.7146 31.9561 22.748 31.7773 22.748 31.5968C22.748 31.4163 22.7146 31.2375 22.6499 31.0707C22.5851 30.9039 22.4902 30.7524 22.3705 30.6247C22.2508 30.4971 22.1087 30.3958 21.9524 30.3267C21.796 30.2576 21.6284 30.2221 21.4592 30.2221H20.816V27.8182H18.5984V28.6323C18.5937 28.9321 18.4973 29.222 18.3239 29.4579C18.1504 29.6938 17.9094 29.8628 17.6376 29.939C17.3657 30.0153 17.078 29.9947 16.8182 29.8803C16.5584 29.766 16.3407 29.5641 16.1984 29.3056C15.3856 30.2818 14.5912 31.2077 13.8152 32.0832V35.2934H16.0304V36.023C16.0304 36.3876 16.1662 36.7373 16.4079 36.9951C16.6496 37.2529 16.9774 37.3978 17.3192 37.3978C17.661 37.3978 17.9888 37.2529 18.2305 36.9951C18.4722 36.7373 18.608 36.3876 18.608 36.023H18.5984Z"
    fill="#EF284B"
  />
<path
    d="M18.5984 36.023V35.2934H20.816V32.9715H21.4592C21.6284 32.9715 21.796 32.936 21.9524 32.8669C22.1087 32.7978 22.2508 32.6965 22.3705 32.5689C22.4902 32.4412 22.5851 32.2897 22.6499 32.1229C22.7146 31.9561 22.748 31.7773 22.748 31.5968C22.748 31.4163 22.7146 31.2375 22.6499 31.0707C22.5851 30.9039 22.4902 30.7524 22.3705 30.6247C22.2508 30.4971 22.1087 30.3958 21.9524 30.3267C21.796 30.2576 21.6284 30.2221 21.4592 30.2221H20.816V27.8182H18.5984V28.6323C18.5937 28.9321 18.4973 29.222 18.3239 29.4579C18.1504 29.6938 17.9094 29.8628 17.6376 29.939C17.3657 30.0153 17.078 29.9947 16.8182 29.8803C16.5584 29.766 16.3407 29.5641 16.1984 29.3056C15.3856 30.2818 14.5912 31.2077 13.8152 32.0832V35.2934H16.0304V36.023C16.0304 36.3876 16.1662 36.7373 16.4079 36.9951C16.6496 37.2529 16.9774 37.3978 17.3192 37.3978C17.661 37.3978 17.9888 37.2529 18.2305 36.9951C18.4722 36.7373 18.608 36.3876 18.608 36.023H18.5984Z"
    fill="#EF284B"
  />
<path
    opacity="0.7"
    d="M18.5984 36.023V35.2934H20.816V32.9715H21.4592C21.6284 32.9715 21.796 32.936 21.9524 32.8669C22.1087 32.7978 22.2508 32.6965 22.3705 32.5689C22.4902 32.4412 22.5851 32.2897 22.6499 32.1229C22.7146 31.9561 22.748 31.7773 22.748 31.5968C22.748 31.4163 22.7146 31.2375 22.6499 31.0707C22.5851 30.9039 22.4902 30.7524 22.3705 30.6247C22.2508 30.4971 22.1087 30.3958 21.9524 30.3267C21.796 30.2576 21.6284 30.2221 21.4592 30.2221H20.816V27.8182H18.5984V28.6323C18.5937 28.9321 18.4973 29.222 18.3239 29.4579C18.1504 29.6938 17.9094 29.8628 17.6376 29.939C17.3657 30.0153 17.078 29.9947 16.8182 29.8803C16.5584 29.766 16.3407 29.5641 16.1984 29.3056C15.3856 30.2818 14.5912 31.2077 13.8152 32.0832V35.2934H16.0304V36.023C16.0304 36.3876 16.1662 36.7373 16.4079 36.9951C16.6496 37.2529 16.9774 37.3978 17.3192 37.3978C17.661 37.3978 17.9888 37.2529 18.2305 36.9951C18.4722 36.7373 18.608 36.3876 18.608 36.023H18.5984Z"
    fill="#F2F2F2"
  />
<path
    d="M16.0208 35.3165V36.0231C16.0208 36.3877 16.1566 36.7373 16.3983 36.9951C16.64 37.2529 16.9678 37.3978 17.3096 37.3978C17.6514 37.3978 17.9792 37.2529 18.2209 36.9951C18.4626 36.7373 18.5984 36.3877 18.5984 36.0231V35.2935H20.816V37.6845C19.3102 39.6329 17.7079 41.4941 16.016 43.2602V42.8122H13.8008V40.5747H14.444C14.7858 40.5747 15.1136 40.4299 15.3553 40.1721C15.597 39.9143 15.7328 39.5646 15.7328 39.2C15.7328 38.8354 15.597 38.4858 15.3553 38.2279C15.1136 37.9701 14.7858 37.8253 14.444 37.8253H13.8008V35.2935H16.016L16.0208 35.3165Z"
    fill="#EF284B"
  />
<g opacity="0.5">
<path
      d="M16.0208 35.3165V36.0231C16.0208 36.3877 16.1566 36.7373 16.3983 36.9951C16.64 37.2529 16.9678 37.3978 17.3096 37.3978C17.6514 37.3978 17.9792 37.2529 18.2209 36.9951C18.4626 36.7373 18.5984 36.3877 18.5984 36.0231V35.2935H20.816V37.6845C19.3102 39.6329 17.7079 41.4941 16.016 43.2602V42.8122H13.8008V40.5747H14.444C14.7858 40.5747 15.1136 40.4299 15.3553 40.1721C15.597 39.9143 15.7328 39.5646 15.7328 39.2C15.7328 38.8354 15.597 38.4858 15.3553 38.2279C15.1136 37.9701 14.7858 37.8253 14.444 37.8253H13.8008V35.2935H16.016L16.0208 35.3165Z"
      fill="#F2F2F2"
    />
</g>
<path
    d="M20.8159 35.3344V37.6845C21.3895 36.9447 21.9799 36.1639 22.5823 35.3344L22.6111 35.2935H20.8159V35.3344Z"
    fill="#EF284B"
  />
<path
    d="M25.6087 27.8182V28.6323C25.6087 28.9969 25.4729 29.3466 25.2312 29.6044C24.9895 29.8622 24.6617 30.007 24.3199 30.007C23.9781 30.007 23.6503 29.8622 23.4086 29.6044C23.1669 29.3466 23.0311 28.9969 23.0311 28.6323V27.8182H20.8159V30.2221H21.4591C21.6284 30.2221 21.796 30.2576 21.9523 30.3267C22.1087 30.3958 22.2508 30.4971 22.3704 30.6247C22.4901 30.7524 22.585 30.9039 22.6498 31.0707C22.7146 31.2375 22.7479 31.4163 22.7479 31.5968C22.7479 31.7773 22.7146 31.9561 22.6498 32.1229C22.585 32.2897 22.4901 32.4412 22.3704 32.5689C22.2508 32.6965 22.1087 32.7978 21.9523 32.8669C21.796 32.936 21.6284 32.9715 21.4591 32.9715H20.8159V35.2934H22.6111C24.1879 33.1277 25.8535 30.6496 27.6031 27.8182H25.6087Z"
    fill="#EF284B"
  />
<path
    opacity="0.2"
    d="M25.6087 27.8182V28.6323C25.6087 28.9969 25.4729 29.3466 25.2312 29.6044C24.9895 29.8622 24.6617 30.007 24.3199 30.007C23.9781 30.007 23.6503 29.8622 23.4086 29.6044C23.1669 29.3466 23.0311 28.9969 23.0311 28.6323V27.8182H20.8159V30.2221H21.4591C21.6284 30.2221 21.796 30.2576 21.9523 30.3267C22.1087 30.3958 22.2508 30.4971 22.3704 30.6247C22.4901 30.7524 22.585 30.9039 22.6498 31.0707C22.7146 31.2375 22.7479 31.4163 22.7479 31.5968C22.7479 31.7773 22.7146 31.9561 22.6498 32.1229C22.585 32.2897 22.4901 32.4412 22.3704 32.5689C22.2508 32.6965 22.1087 32.7978 21.9523 32.8669C21.796 32.936 21.6284 32.9715 21.4591 32.9715H20.8159V35.2934H22.6111C24.1879 33.1277 25.8535 30.6496 27.6031 27.8182H25.6087Z"
    fill="#F2F2F2"
  />
<path
    d="M6.79512 47.9654H7.44072C7.78253 47.9654 8.11034 47.8206 8.35204 47.5628C8.59374 47.305 8.72952 46.9553 8.72952 46.5907C8.72952 46.2261 8.59374 45.8765 8.35204 45.6186C8.11034 45.3608 7.78253 45.216 7.44072 45.216H6.79512V42.8122H4.57992V43.6262C4.57992 43.9908 4.44414 44.3405 4.20244 44.5983C3.96075 44.8561 3.63293 45.001 3.29112 45.001C2.94931 45.001 2.6215 44.8561 2.3798 44.5983C2.13811 44.3405 2.00232 43.9908 2.00232 43.6262V42.8122H0.919922L6.31272 50.2874C6.47542 50.2516 6.63576 50.2046 6.79272 50.1466L6.79512 47.9654Z"
    fill="#EF284B"
  />
<path
    opacity="0.2"
    d="M6.79512 47.9654H7.44072C7.78253 47.9654 8.11034 47.8206 8.35204 47.5628C8.59374 47.305 8.72952 46.9553 8.72952 46.5907C8.72952 46.2261 8.59374 45.8765 8.35204 45.6186C8.11034 45.3608 7.78253 45.216 7.44072 45.216H6.79512V42.8122H4.57992V43.6262C4.57992 43.9908 4.44414 44.3405 4.20244 44.5983C3.96075 44.8561 3.63293 45.001 3.29112 45.001C2.94931 45.001 2.6215 44.8561 2.3798 44.5983C2.13811 44.3405 2.00232 43.9908 2.00232 43.6262V42.8122H0.919922L6.31272 50.2874C6.47542 50.2516 6.63576 50.2046 6.79272 50.1466L6.79512 47.9654Z"
    fill="#F2F2F2"
  />
<path
    d="M11.588 43.6262C11.5955 43.8116 11.5677 43.9966 11.5064 44.1703C11.4451 44.3439 11.3514 44.5024 11.2311 44.6364C11.1108 44.7704 10.9663 44.877 10.8064 44.9499C10.6464 45.0227 10.4743 45.0603 10.3004 45.0603C10.1264 45.0603 9.95431 45.0227 9.79435 44.9499C9.63438 44.877 9.4899 44.7704 9.3696 44.6364C9.24929 44.5024 9.15566 44.3439 9.09433 44.1703C9.03301 43.9966 9.00526 43.8116 9.01277 43.6262V42.8122H6.79517V45.216H7.44077C7.78258 45.216 8.11039 45.3608 8.35209 45.6186C8.59378 45.8765 8.72957 46.2261 8.72957 46.5907C8.72957 46.9553 8.59378 47.305 8.35209 47.5628C8.11039 47.8206 7.78258 47.9654 7.44077 47.9654H6.79517V50.1466C7.77197 49.801 10.2152 48.695 13.8056 45.4208V42.8122H11.588V43.6262Z"
    fill="#EF284B"
  />
<path
    opacity="0.7"
    d="M11.588 43.6262C11.5955 43.8116 11.5677 43.9966 11.5064 44.1703C11.4451 44.3439 11.3514 44.5024 11.2311 44.6364C11.1108 44.7704 10.9663 44.877 10.8064 44.9499C10.6464 45.0227 10.4743 45.0603 10.3004 45.0603C10.1264 45.0603 9.95431 45.0227 9.79435 44.9499C9.63438 44.877 9.4899 44.7704 9.3696 44.6364C9.24929 44.5024 9.15566 44.3439 9.09433 44.1703C9.03301 43.9966 9.00526 43.8116 9.01277 43.6262V42.8122H6.79517V45.216H7.44077C7.78258 45.216 8.11039 45.3608 8.35209 45.6186C8.59378 45.8765 8.72957 46.2261 8.72957 46.5907C8.72957 46.9553 8.59378 47.305 8.35209 47.5628C8.11039 47.8206 7.78258 47.9654 7.44077 47.9654H6.79517V50.1466C7.77197 49.801 10.2152 48.695 13.8056 45.4208V42.8122H11.588V43.6262Z"
    fill="#F2F2F2"
  />
<path
    d="M16.0206 43.2602V42.8122H13.8054V45.4208C14.5014 44.7859 15.2406 44.064 16.0206 43.2602Z"
    fill="#EF284B"
  />
<path
    d="M13.8056 35.3344V37.8253H14.4488C14.7906 37.8253 15.1184 37.9701 15.3601 38.2279C15.6018 38.4857 15.7376 38.8354 15.7376 39.2C15.7376 39.5646 15.6018 39.9143 15.3601 40.1721C15.1184 40.4299 14.7906 40.5747 14.4488 40.5747H13.8056V42.8122H11.588V43.6262C11.5955 43.8116 11.5677 43.9966 11.5064 44.1702C11.4451 44.3439 11.3514 44.5024 11.2311 44.6364C11.1108 44.7704 10.9663 44.877 10.8064 44.9499C10.6464 45.0227 10.4743 45.0603 10.3004 45.0603C10.1264 45.0603 9.95431 45.0227 9.79435 44.9499C9.63438 44.877 9.4899 44.7704 9.3696 44.6364C9.24929 44.5024 9.15566 44.3439 9.09433 44.1702C9.03301 43.9966 9.00526 43.8116 9.01277 43.6262V42.8122H6.79517V40.5747H7.44077C7.7369 40.5736 8.02364 40.4638 8.25277 40.2636C8.48189 40.0635 8.63941 39.7853 8.69884 39.4759C8.75827 39.1664 8.71598 38.8446 8.57909 38.5645C8.44219 38.2844 8.21904 38.0631 7.94717 37.9379C8.37277 37.5795 8.80237 37.1989 9.23597 36.7962C9.3911 37.0377 9.61449 37.2201 9.87359 37.3168C10.1327 37.4135 10.414 37.4194 10.6764 37.3337C10.9389 37.248 11.1689 37.0751 11.3328 36.8403C11.4968 36.6055 11.5862 36.3209 11.588 36.0282V35.2986H13.8056C13.8056 35.2986 13.8152 35.3344 13.8056 35.3344Z"
    fill="#EF284B"
  />
<path
    opacity="0.2"
    d="M13.8056 35.3344V37.8253H14.4488C14.7906 37.8253 15.1184 37.9701 15.3601 38.2279C15.6018 38.4857 15.7376 38.8354 15.7376 39.2C15.7376 39.5646 15.6018 39.9143 15.3601 40.1721C15.1184 40.4299 14.7906 40.5747 14.4488 40.5747H13.8056V42.8122H11.588V43.6262C11.5955 43.8116 11.5677 43.9966 11.5064 44.1702C11.4451 44.3439 11.3514 44.5024 11.2311 44.6364C11.1108 44.7704 10.9663 44.877 10.8064 44.9499C10.6464 45.0227 10.4743 45.0603 10.3004 45.0603C10.1264 45.0603 9.95431 45.0227 9.79435 44.9499C9.63438 44.877 9.4899 44.7704 9.3696 44.6364C9.24929 44.5024 9.15566 44.3439 9.09433 44.1702C9.03301 43.9966 9.00526 43.8116 9.01277 43.6262V42.8122H6.79517V40.5747H7.44077C7.7369 40.5736 8.02364 40.4638 8.25277 40.2636C8.48189 40.0635 8.63941 39.7853 8.69884 39.4759C8.75827 39.1664 8.71598 38.8446 8.57909 38.5645C8.44219 38.2844 8.21904 38.0631 7.94717 37.9379C8.37277 37.5795 8.80237 37.1989 9.23597 36.7962C9.3911 37.0377 9.61449 37.2201 9.87359 37.3168C10.1327 37.4135 10.414 37.4194 10.6764 37.3337C10.9389 37.248 11.1689 37.0751 11.3328 36.8403C11.4968 36.6055 11.5862 36.3209 11.588 36.0282V35.2986H13.8056C13.8056 35.2986 13.8152 35.3344 13.8056 35.3344Z"
    fill="#F2F2F2"
  />
<path
    d="M25.6087 20.3405V21.024C25.6087 21.3886 25.4729 21.7383 25.2312 21.9961C24.9895 22.2539 24.6617 22.3987 24.3199 22.3987C23.9781 22.3987 23.6503 22.2539 23.4086 21.9961C23.1669 21.7383 23.0311 21.3886 23.0311 21.024V20.6067C22.4599 21.3645 21.8999 22.1052 21.3511 22.8288H21.4687C21.8105 22.8288 22.1383 22.9736 22.38 23.2314C22.6217 23.4893 22.7575 23.8389 22.7575 24.2035C22.7575 24.5681 22.6217 24.9178 22.38 25.1756C22.1383 25.4334 21.8105 25.5782 21.4687 25.5782H20.8159V27.8157H23.0311V28.6298C23.0311 28.9944 23.1669 29.344 23.4086 29.6018C23.6503 29.8596 23.9781 30.0045 24.3199 30.0045C24.6617 30.0045 24.9895 29.8596 25.2312 29.6018C25.4729 29.344 25.6087 28.9944 25.6087 28.6298V27.8157H27.6031L27.8239 27.4547V25.5808H28.4695C28.6421 25.5814 28.8128 25.5439 28.9711 25.4707C29.2471 24.9587 29.4991 24.4467 29.7319 23.9347C29.6756 23.6215 29.5188 23.3391 29.2884 23.1359C29.058 22.9326 28.7685 22.8214 28.4695 22.8211H27.8239V20.2893H25.6087V20.3405Z"
    fill="#EF284B"
  />
<path
    opacity="0.5"
    d="M25.6087 20.3405V21.024C25.6087 21.3886 25.4729 21.7383 25.2312 21.9961C24.9895 22.2539 24.6617 22.3987 24.3199 22.3987C23.9781 22.3987 23.6503 22.2539 23.4086 21.9961C23.1669 21.7383 23.0311 21.3886 23.0311 21.024V20.6067C22.4599 21.3645 21.8999 22.1052 21.3511 22.8288H21.4687C21.8105 22.8288 22.1383 22.9736 22.38 23.2314C22.6217 23.4893 22.7575 23.8389 22.7575 24.2035C22.7575 24.5681 22.6217 24.9178 22.38 25.1756C22.1383 25.4334 21.8105 25.5782 21.4687 25.5782H20.8159V27.8157H23.0311V28.6298C23.0311 28.9944 23.1669 29.344 23.4086 29.6018C23.6503 29.8596 23.9781 30.0045 24.3199 30.0045C24.6617 30.0045 24.9895 29.8596 25.2312 29.6018C25.4729 29.344 25.6087 28.9944 25.6087 28.6298V27.8157H27.6031L27.8239 27.4547V25.5808H28.4695C28.6421 25.5814 28.8128 25.5439 28.9711 25.4707C29.2471 24.9587 29.4991 24.4467 29.7319 23.9347C29.6756 23.6215 29.5188 23.3391 29.2884 23.1359C29.058 22.9326 28.7685 22.8214 28.4695 22.8211H27.8239V20.2893H25.6087V20.3405Z"
    fill="#F2F2F2"
  />
<path
    d="M27.824 25.5808V27.4573L27.9728 27.2167C28.3328 26.6279 28.664 26.0442 28.9712 25.4707C28.8129 25.5439 28.6421 25.5814 28.4696 25.5808H27.824Z"
    fill="#EF284B"
  />
<path
    d="M27.824 20.3405V22.8314H28.4696C28.7685 22.8316 29.0581 22.9429 29.2884 23.1461C29.5188 23.3493 29.6756 23.6318 29.732 23.945C30.0248 23.3152 30.2864 22.6982 30.5168 22.0941C30.3673 21.9655 30.2466 21.803 30.1635 21.6183C30.0805 21.4336 30.0372 21.2314 30.0368 21.0266V20.2995H27.824V20.3405Z"
    fill="#EF284B"
  />
<g opacity="0.7">
<path
      d="M27.824 25.5808V27.4573L27.9728 27.2167C28.3328 26.6279 28.664 26.0442 28.9712 25.4707C28.8129 25.5439 28.6421 25.5814 28.4696 25.5808H27.824Z"
      fill="#F2F2F2"
    />
<path
      d="M27.824 20.3405V22.8314H28.4696C28.7685 22.8316 29.0581 22.9429 29.2884 23.1461C29.5188 23.3493 29.6756 23.6318 29.732 23.945C30.0248 23.3152 30.2864 22.6982 30.5168 22.0941C30.3673 21.9655 30.2466 21.803 30.1635 21.6183C30.0805 21.4336 30.0372 21.2314 30.0368 21.0266V20.2995H27.824V20.3405Z"
      fill="#F2F2F2"
    />
</g>
</svg>
